<svg xmlns="http://www.w3.org/2000/svg" fill="none" viewBox="0 0 70 70"><g style="mix-blend-mode:lighten"><mask id="a" width="70" height="70" x="0" y="0" maskUnits="userSpaceOnUse" style="mask-type:alpha"><path fill="#D9D9D9" d="M0 0v70h70V13.8L55.2 0H0Z"/></mask><g mask="url(#a)"><path fill="#FF961A" d="M-5 75.3c.3-.3.5-.6.5-1V74l4.2-3.6c.2-.2.5-.3.8-.3h13.1c.4 0 .7.1 1 .3 2.3 1 4.7 1.7 7.2 2.3a65.5 65.5 0 0 0 32-1l3.6-1.4.9-.3h12.4c.5 0 .8.2 1.2.5l5 4.8H-5ZM43 .4l.9.6V-.6v1.8l.2.3.3-.3v-1l.1 1c0 .2.2.3.3.4l3 .4 2.4.7V1.5h.2v.7c0 .4.2.7.5.8l1.7.8.3.4h-.5l-1.9-.8L50 3l-.1.2-.3-.3-.4-.2-3.7-.7-2-.2h-.6v.4l-11.7-.4V2l.5-.3-.6-.2-3.1.4h-3.3c-2 .2-3.8.6-5.6 1.3-.1 0-.2.1-.4 0l.3-.3c.7-.2 1.5-.6 2.2-.7l7.4-.9c.4 0 .5-.2.5-.5v-1c0-.5.2-1-.7-1 .9 0 .7-.7.6-1.2v-.7c0-.4 0-.7.5-.6l.3-.3v2.2l1.3-.3c-.2.1-.4.3-.7.3-.3.1-.6.3-.5.8l-.1.5.5.1-.5.3V1l.2.1h1.8c.4 0 .4-.3.4-.6v-6.1c0-1 .1-1.1 1-1.4l.5-.1c.2 0 .3-.2.4-.3l-.3-.3H38l-1.2.3c-.2 0-.3.2-.4.3l.4.2c.8 0 1.5-.2 2.2-.3l.8.1v.2l-.7.4c-.4 0-.5.3-.5.7v4c0 .4 0 .7.6.8l.2.1c-.8 0-.8 0-.8.8-.1 1.5-.3 1.2 1 1.3l3.8.2h.4c0-.2 0-.3-.2-.4-.1-.3-.3-.4-.5-.6Zm-6.3.6c-.5.1-1-.5-1.5 0h1.5Zm-2 0-.4-.5c0 .5 0 .5.3.4ZM77.1 75.3v-83h.1v83ZM50.3-7.7v8c-.1-.4-.1-.8-.3-1.1-.5-1-.4-2.2-.4-3.3v-3.6h.7ZM26.3-7.7c0 .3-.1.5-.4.6l-1.2 1 .3-.1c-.6.8-.3 1.8-.4 2.7 0 .3 0 .6-.4.6L24-3v-.4l.4-.3c-.4.2-.5 0-.5-.4v-1.2c.1-1.2.7-2 2-2.4h.5Z"/><path fill="#FF961A" d="m42.2-7.7 1 1.1c.3.4.2.7-.3 1l-.3.3.2 1.7c-.7.1-.9 0-.9-.7v-1l.1-.6v-1l.5-.3-.7-.4.3-.1ZM46.3-7.7v2.6l-.5 4.3h-.2v-7h.7ZM55.9-7.7l-.1 1.2v17c0 .3-.1.6.2.7l.1.3H56l-.2-.8V-7.7h.2ZM-3.3-7.7l.3.3c.5 1.1.5 1.1-.5 1.9-.4-.2-.4-.8 0-1.6-.4-.2-.5-.1-.5.3L-4-5.5v-1.7h.8v-.2l-.4-.3h.4ZM21.1-7.7v2.2L21-.8v.4h-.2v-7.3h.3ZM23-7.7v6.6H23v-6.6h.2ZM45.5-7.7v2l-.2.4h-.1v-2.4h.3ZM44-7.7V-3h-.1v-4.7ZM30.3-7.7c-.6.7-.5.6-1.4.2l-.8-.2h2.2ZM33.5-7.7l-1.3.2c-.5 0-.7.7-1.3.3l1.2-.5h1.4ZM40.6-7.7l.5.5c-.1 0-.3.1-.4 0-.3 0-.7-.2-1-.4v-.1h1ZM-5.8 72.7l1-.6-1 .8v-.2ZM-5.8 55.9h.3v.1l-.3.2V56ZM46.6 43.6l.1 2c0 .5 0 1 .6 1.1-.5 1.2-.2 2.3-.1 3.4l.3.4c.8.2 1 .3 1 1.2l-.1 8.1c0 .3-.1.5-.5.4h-1.7l.2.2h1.4l.6.3h.5l1.4.2c-1.4 0-2.7 0-4.1-.2v.3c-.1.4 0 .7.5.7h1.4l-.4.1 2.8.4c.2 0 .4 0 .5.2l.1.3c0 .1 0 .2-.2.2l-.5.2c.5.1.9.3.7.8 0 .2-.1.4-.3.4l-1.8.4c-.4 0-.5-.1-.5-.4v-.8.4c-.2 1-.2 1-1.1 1l-5.2.2c-.6 0-1.1-.5-1.3-1l-.2-.8.4-1.2c0-.4.1-.5.5-.5l2.4.2h.4v-.1h-.5l-2.3-.2-.5-.2.4-.3 2.1.2h.6c.1-.3-.5-.3 0-.6l-1.2-.2h1.3v-.1l-.5-.1h-2.4c-.3-.1-.4-.2-.4-.5v-3.3l-.1-.9V53l-.4.4-.1-.1 1.4-1.2 2-1.4c.2-.1.3-.4.2-.5a35 35 0 0 1-3.3-11.2c-.3-2-.8-4.1-1-6.2-.2-1 0-2 0-3.1l.3.7.3 1.8c0 1 .7 2 1 3 .5 1 .8 2.2 1 3.3.2.7 0 1.5 0 2.3l.1.5h.2l.3-1.6c.7.5.7 1 .4 1.7l-.4.8v.6l.5-.2.1.7c.2-.2.4-.4.4-.6.2-.6.5-1.1 1-1.6v-.3l.3-.6V40l-.3-2.7c0-.1 0-.3.2-.4.1-.2 0-1.1-.2-1.3-.2-.1-.6-1.3-.4-1.6.1-.4 0-.7-.3-1-.2 0-.3-.3-.3-.5l-.4-3.8-.2-.5-.7-.8c0-.1-.2-.3-.1-.4.3-.8-.4-1.3-.4-2l-.2-2c-.2-1.2-.5-2.2-1.8-2.5-.4 0-.8-.3-1.2-.5-.6-.4-1.2-.8-1.5-1.5-.2-.4-.6-.8-1-1.2.6-.4.8-1 .8-1.7h-.4c0-.7.1-1.5-.4-2.2l.2 2h-.1V15c0-1-.3-1-1.1-1.3-.3-.2-2 .5-2.1.8l-.4 1-.1-1.7v2h-.1v-.2l-.2-.1-.2.1c-.2.3 0 1 .4 1.2v-.3h.4l.2 1.1-.4-.5-3.1 1.7c-1.1.7-2 1.5-2.6 2.6l-.2.6-.5 3.4v.3h.4l.2-1.6v1.2c0 .3-.2.6-.4.8a6.4 6.4 0 0 0-1.9 4.2c0 1.1-.2 2.2-.4 3.4 0 1-.3 2.1-.4 3.2a18.8 18.8 0 0 0 0 2.1c0 .3.3.6 0 1l.1.7 1.8 2.4c.3.4.4 0 .5-.1h.5l-.1-.6c-.4-.7-1-1.3-.5-2.2l.2-.2.1.7.2.2.2-.3v-.6c-.2-1.5 0-3 .5-4.5v-1l.6-1.8c.2-.5.1-1 .2-1.5l.2-.4.2-.4c-.4-.5.2-.6.4-1 0 1.4.2 2.8 0 4-.6 3.7-1.2 7.3-2 10.9-.5 2-1.3 4-2 5.9l-.2.2c-.1-.1-.3-.2-.3-.4a92 92 0 0 1-.3-3.6c0-.7 0-1.3-.2-2v5c0 .4.2.7.3 1l.1.6c.1.8.7 1.5 1.5 1.6l.3-.3v-.9l2 1c.2.1.2.4.2.6-.6 1.2-.1 2.4 0 3.7v.3a5 5 0 0 0-.1 2.7l-.4.3h-3.5l-1 .2c-.4 0-.5-.2-.5-.5V59v.1c0 .8-.4 1.2-1.2 1.2H21c-.6 0-.7-.1-.7-.7l.1-10.7.1.4.6.4.2-.4V45l.1-15.4c0-3.3-.2-6.6-.4-9.8V18c-.2-2.8.1-5.5.1-8.3 0-.6-.3-.7-.7-.9 0 0-.3.3-.3.5v2.2L20 22.2l-.1.2v-17l-1.4.6c1 .4.6 1 .6 1.7l.1 8.6v13.4l-.3-2.7.1-9.3.1-5.2v-2H19l-.1.8h-.1V9.2h-.1l-.1.7c-.8-.4-1.4-1-1.9-1.7V8c0-.2-.2-.3-.3-.5l-.2-.2h.3L17 7c.3.4.6 1 1.3 1.2-.8-.8-.8-1-.2-2.2l-.8.7c0-.5.5-1 1-1h.1c1-.9 2.2-1 3.4-1.3 5.1-1 10.3-1.4 15.6-1.2l6.4.6h.1-3.5l.2 1-.2.1-.1-.2-.1-.2-.2.1c-.4-.5-1-.2-1.5-.5v1h.6c-.7 0-.7.4-.6 1v2.7c0 .4 0 .5.5.5h1.2c.7-.2 1-.4 1-1V6.7l.2.2v1.6c-.1.6-.4.8-1 .9H39l-.4.1.3.2 2.3-.1c.3 0 .4-.1.4-.4V5h.2v4.1c0 .4.2.5.6.5 1 .1 1 .1.9-.8l-.1-4v-.3l.2 1h.1v3.7l.2.5.2-.5c0-1.2 0-2.4.2-3.6v4c0 .4-.2.4-.5.5l-4.7.2c-.3 0-.4.2-.4.5v.4c.2 1 .2 1 1.2 1l1.1.3c.2 0 .3.3.5.5l-.5.2h-1.8c-.3 0-.5 0-.4.4l.2 2.9-.1.2.1.5c.6.3.8 1 1.2 1.5l.2.2h.7c.3 0 .6-.5.7-1v-4.9l.1-.7h.2v.5l.1 8c0 .4.1.6.4.9.2.1.3.4.4.7l.5 1c0 .2.3.4.4.4l.6-.5v-.6h-.5l-.4-.2c0-.2-.2-.7.3-.7.7 0 .7-.3.7-.9V10.6c0-.4.2-.5.5-.5l.4-.1H45c-.8 0-.7-.5-.7-1V6.5c0-.8 0-.8.6-1.3l-.6-.2.6.1-.3-.2.2-.2h.2c.9-.4 1-.3 1 .6v4.2l-.1.4v10.7l.1.5.3-.3c.2-.5.5-1 .5-1.6v-5l-.2-.7h.4v6c.5-.7.3-1.9 1.7-1.9l-.3.3c-.4.3-.5.7-.5 1.2 0 1.1-.5 1.8-1.3 2.4a1 1 0 0 0-.4.4l-.2 1.3c0 .3 0 .5.3.5l.3.2-.1.1c-.7-.2-.6.2-.6.7l.1 7.8.3 1.2h.2v-3.2l.2 2.3-.1-.2V43.2l-.1.4v-1.8 1.8ZM22.7 27h.4V12h.2v.4l-.1.6v18.2c0 .8.3 1.3 1.2 1.5v-2l-.2-5.5v-7.8h.3v7.3c.9-.2 1-.4 1-1.1v-.8l.3-1.3v1.9c.2-.6.1-1.2.2-1.7l.5-1.7h.2l.5-.8c.2-.4.4-.8.8-1.1.3-.3.5-.5.5-.9l-.1-2.2c0-.3 0-.6.5-.6l.2-.3v-.4c.3.4-.2 1 .5 1l-.3.5h.4l.1 2.9h.2l.2-1.1v-3.2c0-.7 0-.7-.6-.7l-.3.1h-.6v-.5l.1-.5.7.4V11l-.1-.4-.2.4v.9h-.3v-1.3c0-.3-.2-.4-.4-.4h-.7l.6-.3c.4-.1.5-.3.5-.8V5.4c0-.3 0-.6-.3-.7l.2-.5s-.2-.3-.4-.2a585.6 585.6 0 0 0-7.2 1.2v2l1.4-.4c0 .9.2 1.4.4 1.5-.6.8-.6 1-.6 2l.1 1.9.2 4.5v4.1l-.3.4c.2.9-.2 1.8.3 2.7.3.6 0 1.4 0 2.2v.9Zm7-22.5.2-.1c.4 0 .8.2 1 .3 0 .2-.4.3-.4.4a157.5 157.5 0 0 0 .2 4.7c1 .3 1.5-.1 1.4-1v-.1l-.5-.4-.2.4v.8L30.8 8l.8-.1.3-.1-.2-.4-.4-.6c-.1-.2 0-.5.3-.5l.3-.2V4l-.4-.2H30c-.2 0-.4.2-.4.3v5.2c0 .2.3.3.4.5 0-.2.3-.3.3-.5V6c0-.5.3-1.2-.6-1.5ZM21 6.3v-.7c0-.2-.2-.3-.3-.5-.2.1-.7 0-.7.5v2.9l.6.3.2-.3.2-2.2Zm11 4-.8.2c-.6 0-.8.3-.7.8v.2c0 1.2.2 1.3 1.3 1l.2-.3v-2Zm-8.4 34.4h-.3v7.4l.2-1.7c0-1.7.2-3.3.3-5l-.2-.7Zm22.9.2h-.1v-1h-.2V48.6c.6-1.3.3-2.6.3-4v.3ZM30.3 11.8v-.9l-.2-.3-.4.3v1.7l.3.3.3-.3v-.8Zm.3 1.4.2.1c.6 0 .8.2.7.7v1.6h.2c0-.1.3-.3.3-.5v-1.5l-.1-.2-1.3-.3ZM23 48v5.3V48Zm28 14.6v-.2l-3.4-.5v.2l2.3.5-.4-.2 1.4.2ZM23 28.1v3.4-3.4Zm21 33.4v-.1l-2.6-.2v.1l2.7.2Zm2.3-22.8v3-3Zm-2.8-13.4h.2l-.2-1h-.1v1Zm-14-9.6h-.2v.3h.1v-.3Z"/><path fill="#FF961A" d="m51.1 45.8.2-.2.1-.2-.2 1-.1.5v13c0 .5-.2.7-.7.6l-1.3-.2s-.3-.2-.3-.4l.2-10v-8l.1-.4v1.7h.2v-.5l-.1-6.8.1-12.3V11.9c0-.4.1-.7.6-.8.3-.1.4 0 .5.3.2.5.5 1 .6 1.6v2.8c0 .3 0 .6.3.7v.3l-.3.6v8.3l.1 17.5v2.6Zm-1.5-2.3h.2v-4.2h-.2v4.2ZM63 62.2h-5.5c-.6-.1-1.2-.4-1.8-.7l-.1-.2v-8.5l.4.8h1c1.3.3 2.7-.3 4 0h.7l.9-.2V48h.2v9.4h.2V57c0 .4.1 1-.3 1.3-.6.5-.5 1.5.1 1.8l-.2.2.3.6-.2.4-.3-.3c-.3-.5-1-.6-1.6-.1 1 0 1.8.4 2.3 1.2Zm-4-6.6 1-.1c.4-.1.6 0 .6.5v1l.2-.9c0-.5.2-.7.6-.6h1c-.6-.3-1.1-.5-1.7-.5l-1.2.3c-.2 0-.3.2-.5.3ZM13.2 62.6c-.2.1-.5.2-.6.4-.2.2-.4.5-.5.9-.1.3-.2.5-.5.6l-.7.4c-1.1.9-1.2 2-.2 3l1.3 1 .5.4H1l1.3-1.4 5.4-5c.2-.2.5-.4.8-.4h4.7v.1ZM70.7 69.3H59.3l.4-.3 1.7-1.6c.6-.7.4-1.6-.3-2.2l-.6-.4c-.5-.3-.9-.5-1-1.2-.1-.4-.7-.8-1-1.1h4.6c.2 0 .5.1.7.3l6.7 6.2.2.3ZM37.3 59.2c-.1.9-.1 1-1 .9-1.4 0-1.2.2-1.2-1.2v-4.6L35 54c-.2.6-.4.6-.8.2l-.4-.3v5.9l-.4.4h-1.6c-.4 0-.5-.2-.4-.5.7-2 .8-4 .7-6 0-.8.2-1.6.4-2.4l.2-.2H37v4.6l.9 3.6.1.4.1.3-.4.2-.2-.3-.1-.6Z"/><path fill="#FF961A" d="m50 7 .6.8v-.6l.6.7c-.1-.8-.3-1.5-.7-2.2 0-.3-.6-.4-1-.6v1c0-1 .1-.8-.8-1L46 4.3 44.7 4l-.4-.2 2.1.3c1.7.4 3.4.8 5 1.4l1.6.7c.4.1.4.9.1 1.4l.7-.4-.7 1-.2.4-.1 4.1v20.6l.2.5v.2l-.2 2v1.7l.2.6v.4l-.2 1V53c0 .5.3.6.7.7.7 0 1.3-.5 1.3-1.2v-1.3.8l.2 7.8c0 .4 0 .6-.5.6h-1.8c-.4 0-.5-.1-.5-.5l.3-1.7.2-.9v-10L52.5 34l-.2-12.6-.3.8v-.4l.1-5.3c0-.5.4-.9.4-1.3V8.9c0-.5-.5-.8-1-.7l-1.5.5c-.4.2-.6-.1-.6-.4V6.9l.6.1Zm2.3-.3c-.1-.4-.9-1-1.4-1l.3.5V6l1 .7ZM18.7 19.8v15.8c.1 5.2-.2 10.5.2 15.7h.2V39.9l-.1-6.4v-1.4h.2l.2 3.2-.2 23.9c0 .7-.4 1-1 1l-1.5-.1c.5.4 1.4.1 1.7 1-.5.1-1 .4-1.4.3-.3 0-.6-.4-.7-.7-.2-.5-.3-1-.3-1.6V53l.7.3c.4-.5-.1-.9-.3-1.5l.4.4c0-.5.5-.4.8-.5.7 0 1-.4 1-1.1V19.8h.2ZM8.2 62.2c.6-.5 1-1 1.7-1h1.3c.2 0 .3-.1.3-.4l-.2-4.9c0-.2.3-.4.5-.7.2.4.5.6.1.9l.1.3 1 .7.2.3v-.8a11 11 0 0 0-.8-1.2l-.4-.2c-.1-.1-.5 0-.4-.3h-.7v-.1c-.7.3-1.4 0-2 0l-.2-.4v-1.8V54c0 .3.1.4.4.4l2.2-.2c.4 0 .7.3 1 .4l1.1.2H15c.2 0 .4-.2.4-.3 0-.4 0-.8.2-1.2V60.9c0 1 0 1-1.1 1.2l-1.5.1H8.2ZM20.5 61.8l1.6-.2 5.4-.3h.4c.3 0 .5 0 .6.3.2.3.6.4 1 .6V62l-1 .5.3.5v.7c0 .4-.8 1.4-1.2 1.4-2.9-.1-5.8-.2-8.6-1l-.6-.3.9-.3 1-.1c.2 0 .7 0 .3-.6v-.3l2-.2c.5 0 1-.3 1.4-.3l.9.1V62l-.3-.1 3.6-.3-7.7.3v-.1Zm2 2.7h.1v-1.3 1.3Zm.2-.5V63.4v.6ZM37.6 62l.7 1.4-.3 1.4c0 .2-.2.3-.3.3l-5.8.1c-.2 0-.3-.2-.4-.4v-.3c-.1-.7 0-1.3.4-1.8.1-.1 0-.5 0-.8h5.7Z"/><path fill="#FF961A" d="m15.5 62.3-.7.3-.3.4-.3.3-.5.2c.5-.2.7.2 1 .4.3.3.8.6 1.3.7 1.3.4 2.7.6 4 .6l4.5.3 2.6.1.3.3.4.2H31l.4.1-2 .2c-2.7 0-5.6 0-8.4-.3-1.7 0-3.5-.4-5.2-.7a5 5 0 0 1-2.9-1.4c-.4-.4-.4-.7.2-1 .7-.5 1.4-.7 2.4-.7ZM67 7.5l.7-.9L69 4.8v1.9l-.2.5-1.6 2 1.6.2-1.9.3-.4.1-2 2.2-1.4 1.9-.4.4-.2-.3v.6l.7-.5 1.1-1.4c.2-.3.5-.4.8-.6l.4.7h2.7l-2.5.2-.4.3c-.1 0-.2-.3-.3-1l-.2.5v-.1l-2.9 2.9c0-1 0-1.7.6-2.3L66.6 8c.2-.1.2-.3.3-.4l.1-.1ZM2.4 5.5 3.8 7c.3.2.6.4 1 .4h4.4l.8.1v.2H4.3l.3.5 3.7 4.6v.3l-.1 1-1-1.2-.6-.6-.3-.5-.8-.9-.9-1c-.1-.2-.3-.1-.5-.2l-.9-.3v-.2l.5-.2-.9-1c-.3-.3-.5-.6-.4-1V5.5ZM-3.8-1A127.6 127.6 0 0 1-.4 2.4c.2.2.3.5.3.8v1.9l-.3-.3c-1-1.1-2-2.3-3.2-3.4C-3.9 1-4 .7-3.9.2l.1-1.3ZM70.2 18.5V60.4c0 .2 0 .5-.2.7V19l.2-.5ZM75.4 0l.2 1.5h-.1L75-.7c-.3.7-.7 1.5-.7 2.3 0 .8-.3 1.4-1 2l-1.7 1.8V2.5l3-3.3c.3-.3.4-.7.5-1l.2 1.9ZM1.3 67 1 36h.2V66l.7-.5L3.6 64c.5-.5.5-.5 1 0l-.2-.6c.2-.2.5-.5 1-.3l.7-.1-4.7 4-.1-.2ZM11 55.8v3.8c0 .5-.2.7-.8.5L9 60c-.3 0-.4 0-.4-.4v-3.8c.1.9.3 1 1.2 1.1.4 0 .8-.3 1.2-1ZM67.8 52.4c-.5 0-.6 0-.6.6v9.5l-.1.5h-.2V52.9c0-.8 0-.8.8-.8.4 0 .7-.3 1-.4h.3l.4.2.2.2-.2.3h-.2c-1 .2-1.1.4-1.1 1.4v9.9c0 .1 0 .3-.2.4V52.4ZM32.6 50.8l.5-1.3.5-.2 3 .1h.4c0-.6 0-1.2-.2-1.9h.1l.2 2.8-.2.3-4.1.2h-.2ZM54.7 65.5l.4-.2c-1.2 0-2.3.2-3.4.3l3-.5.6-.5.8-.5c.3-.3.6-.6.4-1l.7-.4c.5-.3 1.2 0 1.6.6.2.4 0 .8-.5 1l-3.6 1.2ZM38.7 66.1l2.8-.1c1.8-.4 3.6-.4 5.3-.6H51c-.5.7-12 1.2-12.3.7ZM32.7 17.7l-1.2 1.8c-.1.2-.5.3-.8.5L28 21.3c-.3 0-.4.3-.6.4 1.1-2.1 3.3-3 5.2-4.1l.1.1ZM75.7 34.8h.1v29-29ZM-3.1 70.4l.2.2-1 .9.3-1.3c0-.2.2-.3.3-.5l2.7-2.4.4-.3c0 .8.2 1.5-.6 2-.4.2-.8.6-1.2 1-.3.2-.6.6-1.1.4ZM71.8 67.1l3 2.4c.3.3.2.8 0 1.4-1-1-2.1-1.8-3-2.8-.2-.1-.1-.6-.2-1h.2ZM16 24.3v-8.7l.2-.4.2.5v7.8c0 .2-.2.3-.3.4l-.1.4ZM31.7 66.2l.4-.1-.1-.4h5.8l.3.2-.3.3H31.7ZM38.5 67.2h-7.7c.2-.2.3-.3.5-.3l6.8-.1.5.3v.1ZM54.7 42.6V22.3h.2v3.5l-.1 3.3v.7l.1-.4v13.2h-.2ZM48 39.7V28.9l.1-.6v-5.6c.3.9.2 16.7 0 17ZM19.8 60V36l.3 24h-.3ZM-4 35.8v19.3-19.3ZM34.4 59.4l-.3-1v-3c0-.7 0-.8.6-.6V59.7c0 .1 0 .3-.2.3l-.3-.1.1-.5s.1 0 0 0ZM28.8 22.2l-.5-.3-.1.1-.2-.4 3-1.5-1.4 2.4.2-.9-.6.6-.4.1v-.1ZM75.6 30.5v-15h.1v15Z"/><path fill="#FF961A" d="M11.8 10.2H9.7c-.2 0-.3-.2-.4-.3l.3-.2h4.5l.3.2-.3.2h-2.3ZM32.4 22.8c-.8-1-.6-1.9.4-2l-.1-.7.5.1h-.3c.2 1 .5 1.8.8 2.6l-.2.1-1.2-1v.9ZM37.5 20.7c-.4-.2-.6-.5-.5-1 .1-.5-.2-1-.4-1.4v-.5c.8.8.7 2.1 1.9 2.8v-.7c.4.2.5.5.4 1.2l-1.4-.3ZM-4.3 17.6v13.9c0 .2 0 .4-.2.6V18l.2-.5ZM73.3 11.9l.2-.4 1.9-1.9.2-.6V3.7l.1-.4v7.5l-.3-.6-2 1.8-.1-.1ZM-4.3 17.6l.2-.5v-1c0-.9.6-1.3 1.4-1.1l-1.2.9c-.1.2 0 .5 0 .8v8.2l-.1.5v-7.3c0-.2-.2-.4-.3-.5ZM67.4 64l2.5 2.3c.2.2.2.6.3.9h-.1l-2.7-2.5V64ZM75 29.4V16.8a2 2 0 0 0-1.2-1.8h-.2v-.2c.2 0 .5 0 .6.2.7.5 1 1 1 2l-.1 12v.4ZM67 7.5c-1.7.2-3.3 0-5 .2l-.4-.1h-2.8c-.2 0-.3.2-.4.3.1-.5.2-.5.7-.5H67ZM38 61.7h-5.9l-.5-.2.4-.2h5.2l.9.2v.2ZM51.4 56.8c0-5.4 0-10.8.2-16.3l-.1 16.3h-.1ZM58.7 48v-.2h.2v1c0 .2-.4.2-.7.2.4-.9 0-1.4-.4-2-.3-.5-.6-.9-1-1.2l-.6-.4-.2-.2.2-.3h.4l1.2 1.4c.4.5.6 1.2.9 1.8ZM67 64.3l-2.5-2.2c.5-.1.9-.1 1.2.3l1.2 1.1c.2.2.2.4.3.7l-.3.1ZM26.5-7.6l3 .7c-.2.7-.3.8-.9.5a50 50 0 0 0-1.5-.6c-.6 0-.7 0-.6-.6ZM4.2 56.9l2.2-.5.2-.3V55c.4.2.5.8.4 1.2v.5c0 .5-.2.9-.7 1l-1.1.2c.5-.3 1.2-.1 1.7-.8l-1.8.4 1.4-.4v-.1H4.2ZM41 21.4l-1.3.2.2 1.2c-.3 0-.8-1.8-.7-2.5h.3l1.6 1v.1ZM74.7-7.5l.5.5v1.5l-.7-.6-.5.8h-.2v-.5c.3-.3.3-.5.3-.9 0-.3.4-.6.6-.8ZM54.6 61.5l-2.2-.4-.2-.2.2-.2 1.7-.2c.4 0 .6.4.5 1ZM75.4 60.3v8.9c-.3-.2-.3-8.2 0-8.9ZM4 55.5l.6-.2c1-.2 1.1-.5 1-1.4l-.2-.5c-.7-1.3-.5-2.7-.5-4.1V49h.2V52l.2.9.5 1.6c0 .6-.3 1-.9 1H4ZM75 46V34.8h.1v11ZM16.2 15l-.2-.6v-1l.3-1.3s.2-.3.4-.3h1.6l.3.2-.3.1h-1.6c-.3 0-.4.1-.4.4v2.6ZM59.7 36.7l-.6.5V34l.3-.5c1-.9 2-.7 3.2-.4h-1.2c-.8-.2-1.3.2-1.9.6l-.1.2v2l.3.7ZM25.2 29.2l1.2.8-.6.4c-.6.3-.6.5 0 .8v.1c0 .2-.3.1-.8 0 .2 0 .3.3.5.4l-.4.3c-.3-.6 0-1 .1-1.5v-1.3ZM47 12.5v-3c-.8-.1-.3-.7-.3-1v.7c.4-1 0-2.1 0-3.1.6 2 .4 4.2.5 6.4h-.1ZM29.7-4.1h-.5l-.2-.3v-1.1l.4-.8.3.1v2.1ZM20.3 66.5l7.6.4v.2c-2.5 0-5-.3-7.6-.6ZM16.1 45.1l.9-1c.4-.5.3-1 .3-1.6l-.3-.3-.3-.2.2-.2.4.1c.4.5.4 1.6 0 2.1l-.4.7-.6.5-.2-.1ZM8.8 14.5l-.3-.6.4-.4c.7.5.8 1.4.6 2.1l-.8-.7v-.3a774.7 774.7 0 0 0 .8.7l-.7-.8ZM-4 9.8l2.5 2.5C-2.5 12-4 10.4-4 9.8ZM69.1 49.8v1.3l-.2.3-.2-.3v-2.6l.3-.3v1.6h.1Z"/><path fill="#FF961A" d="m37.5 20.7.8.6c.5.2.6.5.4 1l-.2.4-.2-.8H38v1c0-.5 0-.9-.4-1.3-.2-.2-.2-.6-.2-.9ZM.4 62.4v-7.7 7.7ZM15.9 45v-9.8 9.9ZM42.5 67l7.9-.5v.1l-7.9.5ZM10 32.1l.8.8.5.2h2.9c.4 0 .8.2 1.3.4-1.4-.5-2.8-.1-4.2-.2-.4 0-.7-.2-1-.6l-.4-.5h.2ZM-3.9 60.2v10.4-10.4ZM6.6 60.5c1-.4.4-1.3.6-2l-.7.2.1-.5.2-.5.5.4v2.6l-.7-.2ZM31.4 20.3v.8l.5-.2c0 .3-1 .8-1.2.7v-.1c-.3-.5.1-1.2.7-1.2ZM34.6 22.3l2-2c0 .4-.7.7 0 1.2l-2 .9v-.1ZM3.2 32.1h4.4v.1H3.2ZM57.4 10c0-.1.2-.3.4-.3h2l.4.2v.2h-2.7l-.1-.1ZM28.4 60.2l-7.8.6c.2-.3 6.5-.7 7.8-.6ZM58.5 11.8h4.7v.1h-4.7ZM56.6 18h1.8l.2.2-.2.2h-1.5l-.3-.4ZM6.6 62c-.6-.4-.6-.4-.2-1l.3-.3v1.7l-.2.2c-.1 0-.2 0-.3-.2l.2-.3.2-.2Z"/><path fill="#FF961A" d="m35.7 22.1 1.5-.6s.3 0 .4.2l-.1.3c-.6.2-1.2.3-1.8.1ZM37.9 61.2h-6.2V61h6.2v.2ZM-4.4 65.8V60v5.8ZM11 40.6v-7h.1v.6l.2 1v.1c-.4 1.3-.1 2.7-.2 4v1.3ZM13.6 41.4c0 .5-.2 1.2 0 1.7 0 .6.5 1 .8 1.5-.2 0-1.1-.9-1.2-1.3-.2-.6 0-1.6.4-1.9ZM67 10l-1.6 1.8h-.2v-.2l1.5-1.6.3-.1ZM55.7 29v-1.6c0-.2.5-.5.8-.6a2 2 0 0 1 1-.2l-.3.2-.2.1c-.8.3-1.2 1-1.2 1.8v.4h-.1ZM65.8 45.4c-.1.2-.3.3-.3.5-.2.5-.6.3-1 .3l.1-.5 1.1-.4v.1ZM67.2 1.3l1.4-2.2.3-.2v.4l-1.7 2ZM38.1 60.4h-6.5v-.1h6.6ZM-4.5 45.2V36v9.2ZM14.1 47.8l-.3 1.8v-.1c-.2-.5-.2-1-.2-1.4 0-.4.2-.4.5-.3ZM75.2 70c.4 0 .6 1 .3 1.8-.3-.1-.4-1-.3-1.9ZM43 .4l-.4-.2-1.9-1.5c1.2.2 1.7 1 2.4 1.7ZM57.1 17.2V12h1l-.5.1c-.3 0-.4.1-.4.4V17.2h-.1ZM-4 26v6-6ZM20-6.5V-2h-.1v-4.4ZM70.2 18.5 70 18l.1-2.9v3.3ZM8.6 61.5v-.7c0-.1 0-.3.2-.4.2 0 .4.1.5.3 0 0 0 .3-.2.4l-.5.4ZM70 6.4V1.1v5.3ZM51.3 20.5v-2.8l.1.4v-.2 2.6ZM59.3 18.6l-.5-.4c.2-.1.4-.3.7-.3l.4.4-.6.3ZM28.1 65.4l-.1-.2v-.1l3 .2H28ZM64.3 53.2V52l.2-.2.2.3c0 .3 0 .5-.3.7l-.1.4ZM73 70.6l2.4 2.3h-.1l-2.5-2.2h.1ZM64 45.4v-4.8 4.8ZM51.6 53.8v6.5-6.5ZM25.5 28.4l.5-.8.1.1 1.2-.3a2485.6 2485.6 0 0 1-1.8 1ZM32.9 49.3l.7-4.2h.1l-.7 4.2h-.1ZM75.8 12.3v2.4h-.1v-2.4ZM2.7 43.6v2.2c-.3-.3-.3-2 0-2.2ZM62.9 30v-6.1 6ZM43.4 37l.1-.2c.5 0 .7-.3 1-.6.1 0 0-.5 0-.8l.4 1.3-1.5.2ZM64 31v6-6ZM15.5 20.8v-6 6ZM58.8 50.4c0 .4.6.6.2 1l-.6-.1c-.4-.4.3-.5.4-1ZM2.4 12.8h3-3ZM51.5 28.6v5.5-5.5ZM52 28.6V33v-4.5ZM15.5 51.8c-1-.2-1.7-1.1-1.5-1.9.1.9.8 1.3 1.5 1.9ZM7.1 37.7v3.2-3.2ZM64 46.5v2.8-2.8ZM18.7 14.5v4.9-5ZM61.7 3.4c-.3 1-1.3 1.8-2 2.8l2-2.8ZM45.1-4.6V-5l.2-.2.2.2v.6l-.3.3-.1-.3v-.2ZM73.7 39.8v-5.2 5.2ZM-4 12.7l.8.2v.1l-.8.5v-.8ZM12.5 12h2.7-2.7ZM38 23c.1.7-.1 1.7-.7 2.5L38 23ZM19 60.3l.5.5c-.2 0-.4.2-.5.3l-.3-.3.4-.5ZM36.6 43.1l-.6-3.3h.1l.7 3.3h-.2ZM58.6 37.8l.2.7h-.9l.6-.8.1.1ZM53 8.5c.5 0 .8-.2 1.1-.3l.3.1v.4H54l-1-.2ZM-4.4 10.2V5.7v4.5ZM64.2 62.7l2.3 2.1-.1.1a48977 48977 0 0 1-2.2-2.2ZM32.9 19l-.1-.2-.9 1.4h-.1c.2-.6.5-1 .8-1.5h.2l.2.2h-.1ZM25.7 35.5c-.5.1-.7-.2-.7-.6 0-.6.6 0 .8-.4l-.5.7.4.3ZM8.4 9.3V8.2l.1-.3.2.3-.1 1h-.2ZM2.2 5.2V.8v4.4ZM16.7 46.5V46a781.9 781.9 0 0 0 1.5.4h-1.5ZM-4.5 17.2v-1.6h.2l-.1 1.6h-.1ZM31-6.4h-1s-.1-.1 0-.2l.1-.2c.3 0 .6.2.8.3v.1Z"/><path fill="#FF961A" d="M60.5 19.7c-.4-.3-.8-.8-1.2-1h-1.5c1 0 2.1-.3 2.7 1ZM52.2 64h-.8v-.4l.8.2v.2ZM25 33v.3l.7-.1v.1l-1 .3v.3l.1-1 .2.1ZM54.7 16.8v-3 3ZM75 46.5v4-4ZM53 66.1l3-.5-3 .6ZM54.7 65.5l-3 .5v-.2l3-.3ZM-1.5 53.4v-.7l.2-2.5v3.5h-.1l-.1-.3ZM47.7 23.3l-.1-.1-.1-.7h.2l.1.7h-.1ZM63 53.6V56h-.1v-2.5ZM-.5 70.1l-1 .9.7-.9-.6.2v-.1l.8-.2v.1ZM7 59.8c-.6.6-1.3.6-2 .8l2-.8ZM49.2 10.4l.8-.3h.2l-.1.3-.9.2v-.2ZM44.2 34.1c0-.5-.2-.7-1-1V33c.4.2.7.3 1 .6v.5ZM39.7 65l1.6-.1v.1l-1.6.2V65ZM15.2 20.1l-1.1-.7c-.2-.1-.2-.3-.2-.5l1.4 1.2ZM56 9.8h1l-.4.3-.6-.1v-.2ZM60.4 10.2c0-.7.3-.5.6-.5l.2.2-.8.3ZM66 49.3v-3.5 3.5ZM65.1 61.8l-.5-.8h.4c.3 0 .3.3.1.8ZM58 41.3l.2-.3.3.1.1.6h-.2l-.3-.4ZM69 17.9v.8l-.1.1-.2-.2.3-.8ZM8.7 39h.1v1.3V39ZM-.3 51.5l.2 1.2-.3.3h-.4c.9-.4.4-1.1.5-1.5ZM68.8 7.6 68 8.9l-.2-.2 1-1.1ZM71.9 21.4h2-2ZM31 22l.5-.3.3 1-.7-.7ZM55 36.8v3.1-3.1ZM26.3-3.4v-3 3ZM51.6 14.9l-.3-.7.1-.4.2.3v.8Z"/><path fill="#FF961A" d="M25 33h-.2c0-.3 0-.5.5-.5l.6-.2-.9.7ZM25.8 39.5l-1 .1v-.1l1-.2v.2ZM10.4 43l-.4.2-.3-.3.2-.2c.2 0 .3.1.5.3ZM75.8-6.9v2.2V-7ZM67.2 51.6v-3 3ZM53.5 13.5c-.4 0-.3-.3-.3-.6l.1-.2.2.2v.6ZM3.7 66.1l-1.6 1.6v-.1l1.6-1.5ZM11 12H9.5 11ZM51 10.8v1.1l-.2-1 .2-.1ZM24.3 37v-1.1h.1V37ZM2.3 32.4v2.8-2.8ZM37.3 53.4V55c-.1-.6-.4-1.1 0-1.7ZM-4.4-3.2l.1 1.6h-.1v-1.6ZM72.6 70.6l1.1 1.2-1.1-1.2ZM39 22.2v-.8l.2.1v.7H39ZM68.2 23h-2.7 2.7ZM52.3 13.8l-.4.4s-.2-.1-.1-.2l.3-.4.2.2ZM64.7 56c-.3 0-.6.1-.8-.4l.9.3v.1ZM31-2.2l.4-.3v1.8L31.2-2l-.2-.2ZM15.6 6.7v2.5-2.5ZM11.4 43.4c-.2 0-.2.2-.3.2l-.3-.2.3-.3.3.3ZM55.7 25.4v-2.5 2.5ZM75 13.7c-.3-.3-.3-.6 0-.8v.8ZM69 14v2.4-2.5ZM72 44.7l.5.2v.1c-.2 0-.3.2-.5.1l-.2-.3h.1ZM38.4 61.1l.3-.4.4.8-.7-.4ZM-1.5 53.4l-.3-.4v-1.9 1.7l.3.6ZM51 66h-1.7L51 66ZM16.7 50.8c-.2 0-.3.2-.3.2l-.2-.3.1-.2.4.3ZM36.4 44.8l.3 1.8-.4-1.8h.1ZM8.7 49.3V47v2.2ZM28.7 56.4l.8 1.1-1-1h.2ZM74 61.1v-2 2ZM6.8 58.9v.5l-.5-.2.5-.3ZM52.2 25.2v2.1-2ZM70 14.4v-1.2 1.2ZM46.8 35v2-2ZM64.6 57H64V57l.6-.1v.2ZM43.6 30.6c-.1.3 0 .7-.5.5l.5-.5ZM.7 69l.8-.8h.1l-.7.9-.2-.1ZM16 47.6l-.1-.4.3-.2.2.2-.4.4ZM11 42.5l-.1-.5h.2v.4H11ZM63 31.3v1.9-2ZM35.6 19l.5-.8h.1l-.4.8h-.2ZM75.6-3.1h.1v.7h-.1V-3ZM75.8 31.6v.8l-.1-.8ZM67.4 45.3l.5.5v.1l-.6-.5v-.1ZM37.3 52.9l-.3-1.1h.1l.3 1h-.1ZM74 62.8v-1 1ZM58 41.3l-.9.5c.2-.4.6-.5 1-.5ZM64.8 54.5l-1.2.1v-.1a4247.1 4247.1 0 0 0 1.2 0ZM61-.2l1.1 1-1-1ZM9 41.9l.8.1v.1h-1l.1-.2ZM5.3 10.8l.8 1H6l-.8-.9ZM-2.9 52.4v1.7-1.7ZM75.4 0v-2 2ZM11.8 53l-.3-.3.2-.2.3.2-.2.3ZM57.3-1.6h.6v.2h-.6v-.2ZM-4.4-5.7v.8-.8ZM-3.9-4.6l-.3-.4.1-.1c.3 0 .3.2.2.5ZM47.7-3.7v-1 1ZM4.6 47.9l-.6-.3v-.1l.7.1v.3ZM71.8 46.7v-1.1h.2l-.1.5v.6ZM57.7 8.2l-.5 1L57 9l.5-1h.1ZM-3.9-4.6v1.9-2ZM9 17.8l-.3-.4.2-.1.2.4-.1.1ZM9 32.7l-.2 1v-1h.1ZM21.1 28v1.6V28ZM29.3 60.5l-.6-.9.7.8h-.1ZM68.7 47.8l.2-.5h.2l-.3.6h-.1ZM72 56v.6h-.2V56h.2ZM42.3 60.4h-1v-.1h1ZM52.7 2.2V3l-.1-.8h.1ZM62.9 21.2v-1 1ZM16.2 51.2l.3.3h-.2l-.2-.3ZM28.7 60.9l.3.8c-.2 0-.4-.3-.3-.8ZM12.6 64l.9.8h-.1l-.8-.7ZM72 70h.5l.2.3-.7-.3ZM39.9 11.8h-.5v-.2h.4v.2ZM6.8 30h.5-.5ZM7.3 56.4V55v1.4ZM66 39.8h-1.1v-.1h1v.1ZM39.3 8.2l1.1-.2v.1l-1 .2ZM69 8.6v1.3-1.3ZM56.7 62.2l-1-.3v-.1a1387.7 1387.7 0 0 0 1 .4ZM13.8 40.3v-.8h.1v.8ZM35 33.7l-.2.2-.2-.2.2-.2.3.2ZM-3.4 55.3l-.4.6h-.1l.4-.6h.1ZM71.8 15h1.3-1.3ZM71.9 26.5l.9.1v.2l-.9-.3ZM35.1 37l-.2.2-.2-.2.2-.1.2.1ZM18.3 66c.3.2.7.2 1 .3l-1-.1V66ZM6.6 53.9v.5l-.3-.3.3-.2ZM3-3.5v-1.1h.1v1.1ZM39.3 23.6v-1.2 1.2ZM31.4 62.8l-.6.3v-.2l.6-.2ZM56 62.2l.6.3-.1.1-.6-.3ZM64.3 53.2h.3l-.4.5v-.5ZM7.8 16.2h-.3l-.2-.1.2-.3c0 .1 0 .2.3.4ZM28.1 65.4l.3.2h-.6l.3-.2ZM7.4 40.9v-.3h.1v.3ZM59.5 15.3v-.7.7ZM61.6 2.6l.4-.8h.1l-.4.8ZM69 24.1v.5h-.1v-.5ZM74.2 70.6l.6.5-.7-.5ZM64 52.8v1-1ZM44-2.3v1-1ZM51.5 38v1-1ZM57.1 41.8l-.4.8-.2-.1.7-.7ZM15.3 10l-.7-.2v-.1l.7.2ZM7.7 14.1l-.5-.5.6.5ZM30.7 22.4l.3.7-.4-.7h.1ZM64.5 59.2l-.5-.1V59h.5v.2ZM28.8 22.2v.5h-.2l.2-.5ZM17.8 38.6v-.3l.2.3h-.2ZM24 61.2v-.4.4ZM16 50.1v1-1ZM42.6 28l.6.5-.6-.4ZM58.7 40.2c0 .2-.2.3-.3.4 0-.2 0-.3.2-.4h.1ZM61.7 14.9v.5-.5ZM71 59v-.8.9ZM64 50.2v.9-.9ZM12.3 36.8l.3.3-.1.1-.3-.3.1-.1ZM64 17v.4h-.2V17h.2ZM26.6-.7l.6-.2-.6.3v-.1ZM39.3 24.3v.6-.6ZM60.5 19.7l.6.6v.1c-.3-.2-.5-.4-.6-.7ZM72 70v.2l-.4-.3.4.1ZM49.5 60.6l.7.1h-.8ZM41.4 23.1v-.3l.1.3ZM12.5 15.2v-.4l.2.2-.2.2ZM7.3 57.3h.3l-.3.3v-.3ZM3.7 66l.6-.5-.6.6ZM17.2 41.2l.2-.5-.1.5h-.1ZM38.1 25l.4-.6-.3.6ZM7.3 61.7l-.1-.3.2.3h-.1ZM68.8 25.9v-.4h.1l.1.4h-.2ZM24.6-.1v.3h-.2v-.4h.2ZM5.8 48.5h.4-.4ZM54.8 20v-.3h.2v.3h-.2ZM2.7-3l.3.2v.1l-.3-.1V-3ZM8.4 56.3v-.7.7ZM56.4 19l.4-.3-.3.4-.1-.1ZM51.4 26.3v-.6.6ZM35.7 27h.6l-.5.1ZM63 43.3v.7-.7ZM68.8 7.6c0-.1 0-.2.2-.3v.4l-.2-.1ZM69 32.2v.4h-.1v-.4h.2ZM69-6.7l-.3-.2h.4v.2ZM-4-2.3v.7h-.1v-.7ZM38.6 62l.5-.2-.5.3ZM2.6 38.4l-.3-.1h.4v.1ZM64.8 61.7l-.3-.1v-.2l.3.2v.1ZM74.8 72.9l-.4-.4.4.3ZM75 52.4v.6-.5ZM70 64.7v.6-.6ZM73 44.5v.5-.5ZM63 19.6V19v.6ZM34.5 29.7c0-.2-.2-.3-.3-.4l.4.3ZM52 66.3l-.5.1.6-.1ZM51 61h-.2l.1-.2.1.1v.2ZM51.4 27.5v-.3.3ZM36.6 16.4v.4h-.1v-.4h.1ZM-4.4-4.3v.5-.5ZM50 7l-.4-.4.5.4ZM63.3 1.3H63V1l.5.1v.1ZM74.7 44.9l.1.3-.2-.3h.1ZM70.6 67.6l.3.3-.4-.2ZM64 58v-.2h.1v.3ZM52.4 14.8v.4-.4ZM40.6 14.6v-.3.3ZM16.3 10.9v.4-.4ZM52.2 62.3h-.3.3ZM75.7 2.8v-.5.5ZM11.5 12h.4-.4ZM37 21.2v-.3l.1.3Z"/><path fill="#000" d="M23 28.1v3.4-3.4ZM46.6 43.6v-1.9 1.9Z"/><path fill="#FF961A" d="M25.9 13.9c0-.1-.1-.2 0-.2 0-.8-.4-1-1-.9-.3 0-.5 0-.5-.5l.2-.1 3.3.3v.1l-1.3.4c-.4 0-.6.1-.5.5v.4h-.2ZM26 7.7V10 7.7ZM26.3 5.6v.5h-.1v-.5h.1ZM26 7.7V6.5v1.2ZM24 27.9l-.1-.4.1.4ZM23.4 10.3v.5h-.2l.1-.5ZM23.6 12.2v.4-.4Z"/></g></g></svg>