<svg xmlns="http://www.w3.org/2000/svg" fill="none" viewBox="0 0 70 70"><g style="mix-blend-mode:lighten"><mask id="a" width="70" height="70" x="0" y="0" maskUnits="userSpaceOnUse" style="mask-type:alpha"><path fill="#D9D9D9" d="M0 0v70h70V13.8L55.2 0H0Z"/></mask><g mask="url(#a)"><path fill="#F75049" d="M28 27a3 3 0 0 1 .5-2.1c.4-.7 1.6-1.3 2.8-2a4 4 0 0 0 2-3.7c-.2-1.4-1-4.5-2.8-6.6-1.9-2.2-8.2-6.1-13.2-5.9-5.1.3-3.4.6-6.1 2.6-3.7.3-5.5 6.2-5.8 7.9-.3 1.7.1 3.2 1.2 5C7.8 24 9.3 25.8 9 27.7c-.2 2-1.4 2.3-2.7 2.5C5.1 30.5 5 34 3 36.4 1 38.9.6 40.3.2 42c-.5 1.8-.3 4.8-.6 8-.3 3-1.7 1.6-1.6 2.8.2 1.3 2.2 9.3 2.2 9.3l2 4.3 2 5.5H53.3l16.2-.4s.6-8 1.1-9.4c.5-1.3 8.4-8.6 9-11.8.4-3.1.6-25.7 0-29.7-.8-2.5-1.5-2.5-3-3.2-1.3-.8-7.5-.7-7.5-.7L58.7 16 38.3 19s-2 .1-2.9 1.5c-.4.8-.8 5-1.3 7.8-.1 1.2-.8 3.5-1.2 5.8-.4 3.1-.5 6.4-.8 7.1-1 .2-4.2.2-6 .2-1.7 0-2.6-1.2-3.2-2-.7-.7-1.2-3.5-1.8-3.9-.5-.4-1.4-.7-1.9-1a2 2 0 0 1-.8-.9c-.1-.3-.3-.7 0-.7s.2 0 1.4.7c.9.6 2.4 1.4 3 1.3 1.6-.5 2.8-2.4 3.3-3 .6-.8 1.3-2.2 2.1-2.7.5-.6 0-1.3-.1-2.1Z"/><path fill="#000" d="M4.8 70.1c.5-1.4-.6-3.2-1.1-4.5l-.8-2c-.4-.6-.8-.7-1-1.4l6.5 2c1.4.2 4 1.2 5.3.4-.9-1.2-5-1.3-6.5-1.6-1.7-.3-4.1-.5-5.5-1.7l.8.1c-.2-.4-.6-.7-.7-1.1l-.8-3c-.3-.5-2.5-5.3-2-5.6l4.5 3.6a48 48 0 0 1 3.4 4.2c.8-.7-2.3-4.5-3-5-1.3-1-2.8-2-4-3.2 1.3-.2.8-1 .8-2.3l-.2-4.2c0-2.6.7-5 2.1-7.3l2.2-3c.7-1 .6-2 1-3s.5-.8 1.6-.6c1.6.4 2.7.5 3.7 1 1 .3 1.3.6 1.9 1l3.4 1.2 4.4 1.7c.3.1 2 6 4.3 6.1 2.4.2 4.4 0 5.3 0 1 0 2 .3 2.7-.2.5-.4.3-5.4.4-6.9l.9-4c.6-3.4 1-7 1.8-10.2.3-1.3.7-.8 2-.9l5-.5L54 18l2.8-.4c1.2-.2 3.3-.6 3.3.3 0 1 .5 4 .6 4.2.1.5.2 2.2.6 2.6V22c-.2-1.7-.3-4 0-4.9l4-.2c4.2 0 1.7-.2 6.8-.1l3.7.1c1.2.2 1.6.3 2.1.6 2.3 2 2 13.3 2.2 18.6.2 5.3-.3 12-1.2 14.6-1 2.7-7.3 8.6-8 10.5-.9 2-1 6.5-1 8.8H66c0-1.8.4-3-1.4-3-1.8-.1-6.4-.4-7.7 0-2.2.4-1.7 1.7-1.7 3h-3c0-.7.2-1.6 0-2.3-.4.6-.3 1.6-.3 2.3h-.4c0-.7.3-3.7-.3-4-1.6-1-5-.4-6.4-1-3.7-1.4-7.3-2-11-3.1-1.8-.6-2-1-2.9.6-.9 1.6-1 1.3.8 1.6 1.3.3 2.5 1 3.8 1.3 1.5.5 3.2.9 4.6 1.6 1.3.7 1.7 1.8 2.2 3H4.8Zm37.8-14.7c.6.2 1.4.5 2 .4a3 3 0 0 0-2-.3c-.2-.5-1.4-.8-1.8-.6.5.3 1.2.4 1.8.5Zm-3-12.2v.1c1 .1 2 .2 3 0l-.6.3c1.7.2 4.6 1 6.2.6-1.8-.6-3.9-.6-5.7-.8l-2.8-.2c-.2-.4-1-.4-1.5-.2.4.3.9.2 1.4.2ZM11.8 35c.3.2.7.2 1 .1-.7-.2-2-.6-2.7-.4l.4.3c-.3.3 1.3.5 1.4.5-.5 0-1.2-.3-1.7-.1.8.3 1.8.4 2.6.6v.2c.6 0 1.7.5 2.3.3a1 1 0 0 0-.7-.4l-.7-.3-.7-.2h.7l-2-.6ZM74 25c.4-.8.5-1.7.6-2.5.1-.6.5-1.9.2-2.4-.8 1.3-1.5 3.5-.8 4.9ZM59.5 42.1c-.4.8-.5 1.3-1.4 1.5-1.2.3-2.7-.5-4-.4 2 .4 5 1.4 5.4-1 .3-1.2.7-2.4.7-3.5l-.7 3.4Zm-45.2-2.6c.5 0 1.3.4 1.9.3-.7-.7-4.1-1.4-5-1 .7.5 2.3.5 3 .7-.5-.1-1.2-.3-1.9-.2a7 7 0 0 0 3.4.7c-.4-.3-1-.4-1.4-.5Zm4.4-.4c.9.7 1 2.1 1.8 2.7.2-.7-.7-3.2-1.8-2.7-.1 0-.5.5-.3.5-.5 0-.1-.2-.6-.1.3.4.8 1 1.2 1.1l-.3-1.5Zm28.9 18.2c-.7-.2-1.7-.7-2.4-.6.7.4 1.6.4 2.4.6 1.2.4 2 1 3.3.5.9-.3 2-.8 2.8-1.3-1 0-2 .8-2.8 1-1.2.4-2.2.1-3.3-.2Zm-2.8-27c-1.1 1-1.3 3.4-1.1 5 0 .6.4 1.6.3 2.2-.2.7-1.2.9-1.3 1.6.4-.2 1-1.3 1.4-1.2.2 0 .8 1.2 1 1.3 1.2.9 3 .9 3.8-.2 1-1.3 1-4 1.2-5.4.3-1.8.6-3.8.4-5.6-.4.5-.2 1-.3 1.7-.9-.9-1.7-1.6-3-1.4-1 .2-2.4 1-2.4 2ZM60.6 45v-.3c-.2 0-2.4.4-2.6.3-1.2 0-2.3-.2-3.4-.4l-3.7-.3c-.6-.1-2-.4-2.5 0 3.6.6 7.5.8 11 .9-1 1-3.3.3-4.6.1-1.3-.1-4-1-5.2-.4l5.7.9c2.1.3 3 .5 5-.6-.7.5-1.3 1.1-2.1 1.3-1 .2-2.1-.2-3-.4l-5.9-.9c-3.9-.5-8-.6-11.9-1.7.4-.7.6-1 1.5-1-1-1.1-3.9 1.7-4.7 2.4-1.7 1.4-3.4 2.9-5.2 4.1.8-1 0-1.3-1.2-1.4-.8 0-2.7-.2-3 .5.7.3 1.5 0 2.3.5 1.1.8.6 1.2 2 .4-.6.7-1.5.9-2 1.6.7.3 1.7.2 2.5.3.8.2 1.2.4 2 .1 1.6-.5 3.2-1.4 4.7-2 1.8-1 3.6-2 5.6-2.3 1.2-.1 4.3.5 3.3.8a8 8 0 0 0-5.2-.1c-1.1.4-2.3 1.1-3.4 1.6-.5.3-2.7 1-2.8 1.4.1-.4 2 2.3 2 2.3.7.9 2.2.3 3.2-.1.6-.2 1-.5 1.6-1 .4-.3-.4-.3.4-.5l1.8.5c.1.3-.1.4-.3.7.8.3 1.2-.9.8-1.4-.5-.6-1.6-.6-2-1.3.6-.2 1.7.4 2.4.6.2 0 0 .6.5.4 1.6-.9-2.6-2.2-3-2.3 1.1-.3 2.3-.3 3.4-.6.7-.2 1.6-.7 2.3-.8 1 0 2.4.4 3.5.6l3.3.5c1.4.2 1.2.4.4 1.4-.6.6-1.2 1.9-2 2-1.1.1-2.9-.7-4-.9-1-.2-2.2-.7-3.2-.6.2.7.7.4 1.3.8-.5 0-.9-.2-1.3 0 0 0-1.1 2-1.2 1.8.2.5 3.1.8 3.7 1l3.5.8 4 1c1 .3 2.4.4 3.3 1-.7.1-1.5-.4-2.2-.4 1 .5 3.2 1 .9 1.5-1.5.4-3 .4-4.3.6v.1c.7.3 5.4-.8 5.5-.6.2.4-5 .9-5.6 1-2.1 0-3.6-.1-5.7-.7L40 56.2c-1.3-.4-4-1.6-5.2-1 1 .9 3.1 1.1 4.3 1.4l4.1 1.2c2.6.8 5.4 2 8.2 1.9l4.7-.5c1.2 0 2.8 0 4-.5 1-.5 1.8-1.8 2.5-2.6l2.8-3c1.6-2 4-3.8 4.9-6 1-2.4 1-5.3 1.4-7.8l1.3-8.1c.3-1.4.4-2.1-.3-3.3-.4-.6-1.4-2.5-2.2-2.8-.2 1.6.2 3.6.1 5.3a848.3 848.3 0 0 0-.2 11.1c0 1.2.3 2.8-.8 3.6-1.5 1-3.1.8-4.8.6-.8-.2-2.4-.2-2.8-1-.6-1 0-3.2.1-4.2 0-1 .8-4 0-4.7-.4.5-.1 1.9-.2 2.5V41c-.2 1.8 0 2.9-1.4 4ZM40 26c-.1-.5-2.8-4.7-3-4.6-.5.4.1 1 .4 1.4.2.4.5.3.6.7.1.2-.3.6-.3.8.1.6.8 1.2 1 1.8.2 1-.2 1-.7 1.5-.3.4-1.9 3.4-1.5 3.5-.4-.1-.5-.8-1-.4-.3.1-.3 1.3-.4 1.5 0 .7-.5 1.6-.4 2.3.1.8 0 .3.6.8 1.6 1.5.8 3.8 2 5.4 1.1 1.3 1-.2 1.1-1.3l.5-4L40 26Zm7.6.4c1.3 0 3.7-.5 4.9 0 .8.3.7.6.6 1.5-.2 2.7-.6 5.3-1 8-.1 1.3-.1 3-.6 4.4-.4 1-.7.8-1.8.8-2.6-.1-5.6-1-8.2-.7 2.5.8 5.7 1 8.4 1.2 1.7.2 1.8.1 2-1.5l.7-4c.4-3 .8-6 1-8.9.2-1.5-.3-1.3-1.8-1.3h-4.5c-1.5 0-3 0-4.6.2-1.5.2-1.4.7-1.6 2.1-.4 3-.8 6-1 9 0 .8-.6 3 0 3.5.8.6 3.2.6 4 .7 2.8.4 5.5.5 8.2 1 0-2.3.6-4.8.9-7.1l.8-7c.1-.7.6-2.7 1.3-2.8l2.6-.3c.7 0 2.4-.2 3 .2.8.4.5 1 .7 1.8.3-1.5 0-2.2-1.4-2.2l-6 .2-6.7.2c-1.5 0-4.7-.4-6 .4 2.7.2 5.7-.2 8.5-.3h3.8c.6 0 .2 1.6.1 2.4l-1 8.2-.6 4c-.3 1.6 0 2.1-1.8 1.8l-8.7-1.2c-1.3-.3-1.3-.4-1.3-1.6l.3-4c.2-2.4.2-5.3 1-7.7.3-1 .6-.9 1.7-1h4.1ZM35.3 58.4c-.3 0-2.7 1-2.5 1.4.2.3.1.2.5.4l8.9 3c2.6.8 5.2.5 7.9-.2-2.2-1-4.7-1.6-7-2.3-2.7-.7-5.2-1.7-7.8-2.4Zm32.4-17.6h.1c0-1.1.3-2.7 0-3.8-.2-1.1-.8-.8-2-.8-.7 0-2-.3-2.7 0-.5.3-.4.8-.4 1.4l-.2 3.7c0 .6-.5 2.4-.2 3 .3.6 4.4 1.3 5 .5l.2.5c.7-1 .2-3.3.2-4.5Zm-17.9 20c.2-1-12.7-4.7-14.1-4.6.2 1.4 1.5 1.8 2.7 2.2l4.8 1.5c1 .4 6.6 2.9 6.6.9Zm16.2-26c1.5 0 1.7.2 1.7-1.3 0-1.4.3-2.8.2-4.2 0 1 .3 1.7-.5 2.1-1 .5-3.2-.7-4 0-.5.3-.7 2.2-.5 2.8.3.8 2.2.6 3 .6ZM29.9 44c1.6 0 2.6.5 2.6-1.2h-5.6c-.6 0-3-.6-2.4.8.2.5.9.5 1.5.4l.7-.2c.2 0 .1-.3.5-.3.4.1-.1.4.3.5.7.2 1.7 0 2.4 0ZM43.6 37l-.4-1.6-.3.3c0-1.3.6-2.8 1-4 .3-1.4 1-2.5-.6-3.4-.3 1.7-.3 3.6-.4 5.3l-.3 3c0 .7-.4 1.6-.2 2.2.7-.2 1-1.2 1.2-1.8ZM36.7 21v-.7c-.6 1-.6 2.4-.8 3.4l-.6 3.7-.6 3.7c-.3 1.3-.8 2.7-.6 4 1-2 1-5 1.4-7l1.2-7.1ZM18 37c-1.1.3 0 1 .5 1.3.6.3 1.3.2 1.9.6.6.3.9.8 1.4 1.2-.3-1.8-2.9-3.8-4.7-3.6.3.4.4.5 1 .6Zm42.5 22.5c1.1.5 4.8-4.5 5.4-5.3l2.7-3c.6-.8 1.9-1.8 2-2.7-1 .6-2 2.1-2.7 3l-2.9 3.2c-1.3 1.4-3 4.5-5 4.8h.5Zm13.4-30.2v.2c1-1.2 1-4 1.3-5.5l.6-3.3c.1-.6.6-1.8.3-2.3l-.3.1c-.2.2-.2.9-.2 1l-.5 3.1a704 704 0 0 1-1.2 6.7Zm-5-8.4c.7 0 1-.1 1.5-.6-1-.5-2.4-.2-3.5 0-1 0-3.3-.1-4 .5.6.5 2 .2 2.8.2l3.2-.1ZM11 33l-.8.2c2.1.4 3.7.7 5.6 1.8 1 .6 2.2 1 3.2 1.5.8.3 1.6 1.2 2.5 1.4-.6-1.3-3.8-2.3-5-3-1.9-.9-3.4-1.5-5.5-1.9Zm62.7-.3c0-.2 0-.4-.2-.5l-1 6.9-.6 3.8c-.1 1-.6 2.2-.4 3.1.5-.7.5-2 .6-2.8l.6-3.3 1-7.2ZM9 36.5h-.4c1.2.6 2.7.9 4 1.3 1 .4 3 .4 3.8 1h-1.2c.5.2 1 .3 1.6.2-.7-.8-2.4-1.3-3.5-1.6-1.4-.4-2.9-.6-4.3-.9Zm25 6.3h-.1l.1 1.4c.4-1.3.3-2.9.4-4.2 0-.9.5-2.8 0-3.6-.5.4-.3 2.1-.3 2.8l-.2 3.6Zm-4.6 3.1c-1.5 0-3.4 0-4.3 1.5 1.3-.4 1.7-1.3 3.3-1.2.3 0 3.1.7 3.3.5.7-.7-2.2-.8-2.3-.8Zm10.8-17.3V28c-.6 2.2-.6 4.7-.9 7-.1 1-1.4 6.3-.5 6.8-.2-2 .4-4.2.6-6.1l.8-7.2Zm9.9-4-6.8.3c-1.4 0-3.2 0-3 1.9.7-2.1 2.3-1.7 4.4-1.8 2.7 0 5.8.2 8.4-.3-1-.2-2 0-3 0ZM17 38c-.8-1.3-2-3.2-3.7-3.4 1.7 1.5 2.7 3 4 4.8.2-.6-.7-.9-.3-1.4Zm6.2 7.3c-.2-1-.3-2.9-.9-3.6h-.3c-.2 0 0-1-.5-1.2-.2.7.5 2 .7 2.7.2.8.3 1.7.9 2.4v-.3ZM29 45c1 0 2.3.2 3.2-.1-1-.4-2.3-.2-3.4-.2-.7 0-2.5-.4-3 .1.4.6 2.5.2 3.2.2Zm36.2-17.1c1.1 0 1.1-1.2 0-1.4-1.2 0-1.2 1.2 0 1.4Zm-13 37c1.5-.2 3.8 0 5-1-1.7-.2-3.7.6-5.5.8l.5.3Zm5.5-22h.3c-.5-.2-1.2 0-1.7-.3h2l-3-.3c-.7 0-1.8-.6-2.4-.3.8.9 3.5.8 4.8 1ZM51.4 44h.9c-1.5-.3-3-.3-4.6-.5-1.7-.2-3.6-.7-5.3-.6 3 .6 6 .8 9 1.1ZM28 51.1h-.6c.2.4.5.5.7.4.4-.1.5 0 .5.3 0 .2 0 .3.2.2.1 0 .2 0 .3-.2l.9.3c.2 0 .7 0 .7-.4 0-.2-2.5-.6-2.7-.6Zm-2.5 7.3c-.5-.1-2 .1-2.4.3-.4.2-.3.3-.6.7.9-.1 2.4-.3 3-1Zm40.8-33h1.5c-.5-.5-3.9-.6-4.5 0h3ZM25.2 55.1 25 55c-.8 0-2.2.7-2.8 1.2 1.1 0 1.9-.7 2.9-1.1Zm32.7-30.6v-.1h2.9c-.9-.3-2-.1-3 0-.8 0-1.8-.2-2.6 0 .8.3 1.9 0 2.7 0Zm-9.4 20.3h.5c-1-.4-3-.7-4-.4 1 .4 2.4.3 3.5.4ZM23 47c-.6-.1-2 .8-2.4 1.2.7 0 1.9-.7 2.4-1.2Zm-1.2-2.9c-.2-.2-.4-1.5-.8-1s.3 1.4.8 1Zm.2 5.6v.1c2.1-1.1.6-.8-.6-.1h.6Zm8 4.8-.5.1 1.4 1c-.2-.6-.4-.7-1-1Zm30.7-23.3c-2.2.2-.4 1 .2.1h-.2ZM25 50c-.5 0-.7 0-1 .4.5.1 1.1 0 1.7-.2-.2-.2-.5-.2-.7-.2Zm15.4-6h.5c-.8-.2-2.2-.6-3-.4.5.4 1.9.3 2.5.4Zm0-14.6.1.4.5-3.5c-.4.8-.4 2.1-.5 3ZM24 47.8c-.6.4-1.4.7-2 1.2.5.1 1.9-.9 2-1.2Zm-2 5.2c-.5 0-1.8.2-2 .6.3.1 1.8-.4 2-.6Zm37-29 1.8-.1c-1-.2-2.6-.2-3.6 0h1.8ZM44.1 44.3h.3c-.8-.2-1.8-.5-2.6-.4.6.3 1.6.3 2.3.4Zm-13 2.7c-.3-.3-1.1.6-1 1a3 3 0 0 0 1-1ZM11 38.5l.7-.1c-.7-.2-1.9-.4-2.5-.3l1.8.4Zm59.9 9.4c0 .3 0 .4.2.7l.4-1.8c-.3.2-.4.7-.6 1Zm-12.1-6.6c0-.5-.5-.2-.7 0-.2.5.7.5.7 0ZM30 43l1.5-.1c-.8-.2-2.2-.2-3 0H30Zm30-13c.3-.1.4-.3.5-.4-.8-.3-1 0-.4.5Zm-5-1.4.4-.4c-.7-.4-.7 0-.3.4ZM27 49c-.2 1 1.2 1.6 0 0Zm28.7-15.2h.2c.6-1-.6-.8-.2 0Zm3.5 5.5V39c-1-.5-.8.6 0 .2Zm0-12v-.1c-.8-.4-.9.7 0 .1Zm-1.6-.5c0 .2-.2.3-.3.4l.3.3.4-.4-.4-.3Zm-1.8 5.9.4-.4c-.5-.5-.7-.1-.4.4Zm.2-1 .4-.4c-.4-.3-.4-.3-.8 0l.4.4Zm.7 7.2c0-.5-.6-.6-.7-.3 0 .5.3.5.7.3Zm-2-8.3.5-.4c-.4-.2-.3-.2-.8 0l.4.4ZM10 40.4h-.5c.7.1 1.7.5 2.4.3l-1.9-.3ZM59.5 37c0-.7-.5-.3-.7 0 .3.1.4.2.7 0Zm-.6-5.3v-.2c-1-.3-.9.6 0 .2Zm-.2-1.5-.5.4c.5.5.8.1.5-.4ZM19 52.2c-.3 0-1.2.3-1.4.5.3 0 1.2-.3 1.4-.5Zm35.6-21.4-.3.4c.3.3.3.2.6 0l-.3-.4ZM56 30c-.4.5-.2.7.4.4l-.4-.4ZM54 36l-.4.4c.6.2.5.2.8-.1l-.4-.3Zm3.9.1.4-.5c-.7-.3-.8 0-.4.5Zm-.4-2.6c-.5-.2-.4-.3-.9 0 .4.3.4.2.9 0ZM54 39.3v-.1c-1-.2-.9.6 0 .1Zm2.2-11.5c-.3.5-.2 1 .4.5l-.4-.5Zm1.6 1.7v-.2c-1-.2-.9.6 0 .2Zm-2.9 12v-.2c-.7-.4-.9.3 0 .1Zm3-5.2-.5.5c.6.4.7 0 .4-.5Zm-1.4 0c-.3.4-.2.7.3.3l-.3-.4Zm-.9 23.6-1 .1c.3.1 1.3.2 1.7 0-.2-.2-.4-.1-.7-.1Zm3-30.7-.4.3c.5.5.8.1.4-.3Zm-3.5-2.4-.4.3c.5.4.8.1.4-.3ZM23 53c-.4-.1-1.5.2-1.7.5.4.1 1.4-.3 1.7-.5Zm34.9-22.5v-.2c-.5-.2-.5-.2-.7.1.2.3.4.3.7 0Zm1.3-2v-.2c-.8-.5-.9.5 0 .1ZM55 39.8l.3-.4c-.6-.4-.7 0-.3.4Zm3.2-6c.2 0 .3-.2.4-.3-.5-.4-.7 0-.4.4ZM56.5 38l.3-.4c-.5-.3-.7 0-.3.4Zm-.3-9c-.3.4-.2.7.3.4 0-.2-.1-.3-.3-.5Zm-2.6 11-.4.2c.3.3.3.3.7 0l-.3-.2Zm3-.2v-.2c-.6 0-.5-.1-.7.2.2.2.4.2.7 0Zm-48.8-.1c.4.2 1.4.5 1.9.4-.5-.3-1.4-.5-2-.4ZM57.2 31c-.2.5-.1.9.4.5l-.4-.5Zm-2.8 3.1-.4.4c.3.2.2.2.8 0l-.4-.4Zm-6.3 22.6c-.3-.3-1-.2-1.2-.3.2.1 1 .6 1.2.3Z"/><path fill="#000" d="M28 24.4c-1.1-.1-2 1.1-2 2-.7-.1-.7-1.1-.8-1.7.2 0 2-.2 1.9-.5l-.2-.1c.1-.4 0-.7-.5-.8.6-.7 1.4-.3 2.1 0 .4-1.3-1.2-1.1-2.1-1.1-1 0-2.1 0-3 .2-1.1.3-1.3.8-1.9 1.5-1 1.5-1 .4-1.5-.5l-1.4-2c-.6-.8-1.4-.7-2.2 0-1.6 1.6-.6 4.5 1.4 5-.5 2-2.3-1.9-2.5-2.2-.5 1.7-1.7 4-3.6 4-1.4-1.9-2.2.6-2.5 1.3-.5-.4.8-2.8.7-3.4-.2-.8-.7-1.6-1-2.3-.8-1.6-2.4-3.2-2.6-5.2 0-1.5.5-2.8 1-4.4.6-1.7 1.5-3 2.8-3.8.9-.5 2-.6 2.7-1 .9-.6 1.7-1.4 3-1.6a14.3 14.3 0 0 1 12.1 4.5c1.6 1.6 4.4 4 4.4 6.5 0 1.2-.3 3.2-1.5 3.7-.7.4-1.1.2-1.7.6-.5.4-.5 1-1.1 1.3ZM22.4 34.3c-1.4-.5-2.5-1.4-3.8-1.9-1.1-.4-1 0-.6.8-.6 0-1.4-.7-2-1-1-.4-1.9-.8-2.9-1-1.8-.5-3.6-.4-5.4-.7.6 0 1-.2 1.5-.7.2.6 2 .6 2.6.7l3 .9c.6.2 1.4.8 1.9.6.1-.1 0-.7.3-.9.4-.2.8 0 1.1.2 1.5.7 2.6 3 4.7 2.6.8-.1 1-.7 1.4-1.3.4-.4 1.2-.8 1.3-1.3l-1.3-.7c.9.1 1.7.1 2.2-.4l.7-1c.5-.5.8-.5 1-.6 0 .5-.5.5-.9 1-.4.6-.8 1.2-1.4 1.7-1 1-1.9 2.8-3.4 3Z"/><path fill="#000" d="M18.6 22.4c0 .8-.5.5-1 .8l-1 1c-.5-1 1.3-1.1 1.3-1.8 0-1-1 0-1.4 0 0-1.4 2-1.4 2.1 0ZM17 24.2c.3-.5.8-.5 1.3-.7 0 .4 0 1.6-.4 1.7-.2 0-.9-.8-1-1ZM28 24.4c-.5 1.3-.3 2.5 0 4-1.1-1-1-3.4 0-4ZM67.5 47.7c-.4.7-1.5 1.3-1.8 2 .2.1.3.3.3.5s-.2.5-.5.6c-.3.5-1 1-1.4 1.4-1.3 1.1-1.8.6-3.4.2-.8-.2-3.5-.2-4-.8-.6-.5-.2-.5.5-1.1l3-2.7c1.1-1.2 1.3-1.3 3-1 1.3.2 3.2.2 4.3.9Zm-3.2-.2V47c-.6.2-1.3 1-1.6 1.5l1.5-1-1.4 1.3-.3.1c-.6 0-2.1-.7-2.7-.4l-.5.7-1 .7a1 1 0 0 0-.6.5c.5.2 1 .4 1.3 0-.2-.2-.7-.2-.7-.5 1.1.2.9 0 1.7-.4.2-.1.7-.7 1-.2.2.6-2.1 2-2.5 2.3 1.4.4 3-2.8 4-2 .6.5-.8.8-1.1 1-.2 0-1.4 1.4-1.4 1.4 1.4.2 1.4-.5 2.1-1.3h.5l.5-.7h1c-.5.9-1.6 1.6-2.4 2.3.7.2 1 .4 1.6 0 .5-.1 1.5-1 1.7-1.6-.9.3-1.3 1.4-2.2 1.7.3-.6 2-3 2.4-1.7 1.2-1.3-1.6-1.4-2.6-1.7.8 0 2.1.5 2.9.2.5-.2 1.6-1.3 1.3-1.6-.5-.7-1.5.4-1.9.7-.6.6-1.2.8-2 .4 1 .2 1.7-.6 2.3-1.4-.3-.2-.7 0-1 0ZM63 47c-.3.6-1.1 1-1.4 1.6.5-.1 1.8-1.2 1.4-1.6-.4-.2-3.4.4-3 1.3.5 1 2.8-1 3-1.3Zm-5.4 4.6.7-.5c.2 0-1.3.1-1.6.3l1 .2h-.1ZM55.5 52.5l2.2.4 1.1.2c.1 0 .2 0 .2-.2.7 0 2 .2 2 1.3 0 .3-.7 1.6-1 1.7-.6.3-1.2 0-1.8-.2-1.5-.4-3.3-.7-4.7-1.5.6-.7 1.2-1.2 2-1.7ZM54 54h-.2c.9.8 2.8 1 4 1.2.8.2 3 1 2.7-.9-.4.2-.4.8-.9 1l-1.3-.3c-1.4-.3-2.9-.5-4.3-1ZM32.6 47.3c-.2-.6 2.9-3 3.5-3 0 .6-.7 1-1 1.3-.8.6-1.8 1-2.5 1.7ZM41.5 46.2c-1.4-.3-3.9-.2-5-1 .4-.5 4.6.5 5.3.9h-.3ZM34.4 49.5c-.9 0-2.6 0-3.3-.5.5-.2 3.2.2 3.5.5h-.2ZM36.5 47.7c-.7-.1-1.6-.1-2.2-.5.7 0 1.6.2 2.3.5 0 0-.2 0 0 0ZM39 46.6c-.6 0-1.5-.2-2-.4.5-.1 1.5.2 2 .4ZM36.9 48.4c-.4.2-1.7 0-2-.3a5 5 0 0 1 2 .3ZM37.1 32.7c0 .9-.5 1.6-1.4 1.7 0-.3.4-1.8.7-2 .3-.3.7-.4.7.3ZM63.2 42l.3 1.3c-1.6-1.1.4-3.9 2.1-2.5.8.5 1 1.5.4 2.2-.3.5-2 .8-1.9.6.2-.4 1.3-.2 1.7-1 .1-.4-.1-1.8-.9-1.5.3.3.1 1.6-.6 1.2-1-.5.2-1.4.7-1.6-1-.2-1.7.5-1.8 1.4ZM66.6 37.8c.8 2.1-2.6 3-3 .8-.5-2 2.3-2.7 3-.8-.5-.5-1.2-1.3-2-.8-.7.3-.7 1-.6 1.6.5 2 2.7.8 2.6-.8ZM44.8 30.2c.3.5.5 1.3 1.1 1.4 0-1-1-1.2-.4-2 .5-.7 1.6-1 2.3-.9 2.6.2 2.3 2.3 2 4.2-.1 1.6 0 5-1.3 6.2-1.4 1-4.2.1-4.2-1.8.9.2 1.4 1 2.3 1.2-.4-.5-1-.7-1.5-1.2-.6-.6-.9-1.5-1-2.3-.4-1.7.3-3.2.7-4.8Zm4.8 3.6c0-1.7-1.4-2.9-3.2-2.2-1.9.7-2 2.8-1.5 4.5 0-1.6-.2-3.7 1.8-4.3 1.3-.4 2.5.5 2.7 1.8.2 1.3-.6 2.9-2.2 2.8-2-.2-1-2-1.4-3.1-.6.7-.1 1.3-.2 2.1 0 .7-.2.9-.6 1.4.5 0 .6-.4 1.2-.5.6 0 1 .6 1.7.4 1.5-.3 1.6-1.7 1.7-2.9Zm-1.7.8v-.1c.6 0 .8 0 1.1-.3-.6-.2-2.3-.4-2.9 0 .5.3 1.3.3 1.8.4Z"/></g></g></svg>