<svg xmlns="http://www.w3.org/2000/svg" fill="none" viewBox="0 0 53 57"><path fill="#F75049" d="M48.1 56.3c-1.6 0-3-.5-4.3-1.6l1-1.3c1 .8 2 1.3 3.3 1.3 1.2 0 1.9-.5 1.9-1.3 0-.7-.4-1.1-2.4-1.6-2.2-.5-3.4-1.2-3.4-3v-.1c0-1.8 1.5-3 3.5-3 1.5 0 2.7.5 3.8 1.3l-1 1.4c-1-.7-1.9-1-2.8-1-1 0-1.7.5-1.7 1.1 0 .9.5 1.2 2.5 1.7 2.2.5 3.3 1.3 3.3 3 0 2-1.5 3.1-3.7 3.1ZM30.3 56.2V45.8h4.6c1.2 0 2.1.4 2.7 1 .5.4.7 1 .7 1.7 0 1.2-.7 2-1.5 2.3 1.2.4 2 1.1 2 2.5 0 2-1.4 2.9-3.8 2.9h-4.7Zm6.2-7.4c0-.8-.7-1.3-1.8-1.3H32v2.7h2.5c1.2 0 2-.5 2-1.4Zm.6 4.3c0-.8-.7-1.4-2.2-1.4H32v2.9h3c1.3 0 2-.5 2-1.4ZM14.1 56.2l4.6-10.4h1.7l4.5 10.4H23l-1-2.5h-5l-1 2.5h-1.9Zm3.6-4.1h3.6l-1.8-4.2-1.8 4.2ZM2.3 56.2V45.8h1.8v8.7h5.5v1.7H2.3Z"/><path fill="#F75049" fill-rule="evenodd" d="M49.1 3.2A10.3 10.3 0 0 0 41.5 0H10.9c-3 0-5.6 1-7.7 3.2A10.4 10.4 0 0 0 0 11v20c0 3 1 5.6 3.2 7.7 2.1 2.2 4.7 3.2 7.7 3.2h41.5V31.5H13c-1.5 0-2.3-.1-2.5-.3-.2-.2-.3-1-.3-2.5v-2.6h42V11c0-3-1-5.6-3.2-7.7Zm1.3 21V10.8c0-2.5-.9-4.5-2.6-6.3A8.3 8.3 0 0 0 41.4 2H10.9c-2.5 0-4.6.8-6.4 2.6A8.5 8.5 0 0 0 2 11v20a8.7 8.7 0 0 0 9 9h39.4v-6.5H13.1a21.5 21.5 0 0 1-2.7-.1l-1-.5-.2-.2-.2-.2-.5-1v-.8l-.1-1.9v-4.6h42Zm-42-5.4V13a20.8 20.8 0 0 1 .1-2.7c0-.1.2-.7.7-1.1.4-.5.9-.6 1-.7l1-.1 1.9-.1h26.2a16 16 0 0 1 2.8.2 2.5 2.5 0 0 1 1.6 1.7l.2.8.1 2v5.7H8.4Zm33.3-8.2c-.1-.2-1-.3-2.4-.3H13c-1.5 0-2.3.1-2.5.3-.2.2-.3 1-.3 2.5v3.7H42v-3.7c0-1.5 0-2.3-.3-2.5Z" clip-rule="evenodd"/></svg>