<svg xmlns="http://www.w3.org/2000/svg" fill="none" viewBox="0 0 70 70"><g style="mix-blend-mode:lighten"><mask id="a" width="70" height="70" x="0" y="0" maskUnits="userSpaceOnUse" style="mask-type:alpha"><path fill="#D9D9D9" d="M0 0v70h70V13.8L55.2 0H0Z"/></mask><g mask="url(#a)"><path fill="#000" d="m16.9 18.6-.2.1c-.8.8-1.7.8-2.5.8-1.3 0-1.3 0-1.3-1.7V16c0-.4 0-.6.4-.6s.8-.2 1.2-.4l-1 .2-.1-.1a1648.2 1648.2 0 0 0 .4-.6l1.3-1.8 1.8-2.7.6-1L19 7l.2.1v4.7c0 .3-.2.5-.3.6l-.4.6.6-.4V16l-.4.7-1 1.1-.4.4-.5.4Zm.7-3.7.1.2.4-.5H18l-.4.3Zm.8-.8v.1c.2 0 .2-.2.3-.3l-.3.2Z"/><path fill="#F75049" d="m-18.2 43.2.4-12.5c0-.3 0-.6.2-.9l.6.6.2.9-.2 8.1-.3 16.3v.1c0 .4.1.9-.3.9-.5 0-.8-.4-.8-1l.2-9.3v-3.2ZM-12.2 37v-.8l.2-9v-4.7c0-.4 0-.5-.3-.6H-14v.1l.4.2 1.2.5c.2 0 .4.3.3.7l-2.1-.9c-.4-.1-.4-.6-.4-1v-5.6c0-.6 0-1-.3-1.5-.4-.5-.8-1-.8-1.8l-.1 1c0 .5-.2.6-.5.6-.4 0-.4-.3-.4-.6v-1c0-.7.1-.8.6-.7.3 0 .4-.1.4-.5V9.2l.1-.6h.2v3.6c0 .6 0 1 .4 1.4.7.7.8 1.6.7 2.7v4.4c0 .7 0 .7.5.7h1.8c.5 0 .5 0 .5.7 0 4.7-.2 9.4-.3 14v1h-.3ZM61 48.4V33c0-.3-.2-.8.2-.9l.2.8v3.4l.1 5.2V55l.2 1c0 .3 0 .7-.2 1-.1.2-.3 0-.4-.2v-8.3ZM2.7 15.8l.3-1c1-2.7 2-5.5 3.2-8.2a42.6 42.6 0 0 1 20.1-20.7c3.2-1.6-2 6.1 1.4 5.6l1.1.1c-.5 0-1 .2-1.4.3-4.6.6-.2-6.5-4.4-4A42.2 42.2 0 0 0 5 9.7l-2.2 6.1Z"/><path fill="#F75049" d="m-15.4 14.4.1 1-.1 9.6-.2 13.7-.2 8.5c0 .2 0 .3-.2.5 0-11.1.3-22.2.5-33.3h.1ZM61.6 10.7c0-.9.3-1.3 1-1.2l2.7.2c.4 0 .6.2.6.7 0 .8 0 .9-.4 1l-.3.5c-.3.4-.6 1-1.1.8-.2 0-.5-.2-.6-.4 0-.4.3-.5.5-.6.2 0 .4-.1.5-.3.2-.6 0-1-.6-.9-.3.1-.5.4-.8.7l-1 1c-.3.2-.4 0-.4-.4l-.1-1.1ZM-11.6 39.4l-.2-.1c-.5-.4-.6-.4-.6.4v3.6c0 .8-.1 1.5-.3 2.3v-1.3c0-.4.1-.8-.3-1v-.4c.4-.1.4-.4.4-.6l.1-14.3v-2.7c0-.4 0-.7-.4-.9l-1.2-.8v2.3l-.2.7c-.3 0-.1-.4-.2-.7l-.2-.4c-.4-.4-.4-1.3 0-1.7l.4-.8c.7.2 1.3.5 2 1v14c0 .3 0 .6.3.7.2 0 .4.2.4.7ZM61 23.3V31l-.2.4-.3-.5v-.2L60.4 16v-.5l.3-.4.2.5v7.6h.1ZM60.3 5.7l-3-3.3A38 38 0 0 0 35.3-8.3c-.4 0-.8 0-1.2-.2h.3c5 .2 9.8 1.6 14.3 4.1 3.4 1.8 6.5 4.1 9.3 7l2.3 2.6s.4.2 0 .5ZM67 56.6l-.2-1.6c0-.3 0-.5-.2-.7V54c.4-.3.3-.8.2-1.2l-.2-16v-1.1c.2.1.3.3.3.4v1c0 .4 0 .5.4.5H70l.3.3-.3.4h-.7l-2.2-.1c-.3 0-.3.2-.3.5v2.5L67 53V56.6H67ZM71.4 15.9c.3.1.4.5.4.9V21l.1 11.7c0 .7.1 1.4.8 1.8.2 0 .3.5.4.7v5.4h-.2v-2.3c0-.5-.2-.6-.5-.7h-.2c-.5.3-.6.2-1-.4.4-.1.8-.4 1.3 0 .2.3.4 0 .4-.3v-1.5c-.1-.3-.3-.6-.5-.7-.4-.4-.6-.8-.6-1.5l-.1-9.3-.1-6.7-.2-1.4ZM1.5 35v-2.5l.2-.4.1.4-.1 6.2-.1.2-.3-.3c-.1.4-.3 0-.5 0-.3.2-.3 0-.3-.4v-1.6l.2-4.4c0-.3-.1-.6.2-.6.4 0 .5.2.5.6V35h.1ZM1 32.8v2.5-2.5Zm0 4v.6-.5ZM60.6 37.4V40l.1 1v4l-.1 2 .2 4v.3l-.3.3-.2-.3v-.2l-.1-10.5v-3.9l.2-.4.2.4v.6ZM-9.3 61.6l-2-.6-8.4-2.5h-.1l-.4-.4c0-.4.3-.2.5-.2l8.8 2.6 1.6.5.3.4-.3.2ZM5.8 14.6c-.5.3-.5.8-.5 1.3 0 1.5-.2 3 0 4.5l-.1 2-.3 10.9c0 .4 0 .8-.4 1-.5.3-.6.7-.6 1.3v1-1c-.1-.7 0-1.3.5-1.7.4-.2.3-.6.3-1L5 24l.1-8.6c0-.7.2-.8.8-1ZM-7.5 46.8h2.6c.6 0 .6 0 .7-.8v-5.5L-4 32v-.7h.3v.6l-.2 9.8-.1 4.7c0 .5-.1.7-.6.8-.3 0-.5.2-.9 0-.1-.2-.4-.1-.6-.1h-1.4v-.2Z"/><path fill="#F75049" d="m-.4 35-.5-.8.2-1.1c.1-.5 0-.8-.4-.8l-.3-.2.2-.3.4-.1c.1 0 .3-.2.3-.4s0-.5-.3-.5h-1.8l-.1-.4.2-.2h.4c.4 0 .8 0 .7-.7l.2-.1.1.2c0 .2 0 .7.4.6.2 0 .5-.1.6-.3.5-.3.4-.3.5-1l.1-.7.1-.3.1.6v1.2c0 .4.2.5.5.5.4 0 .6.3.7.9-.6-.3-1.1-.9-1.5 0l-.5-.4-.2.6v2.8l-.1 1ZM65.5 14.5l-3.2-.3c-.3 0-.5 0-.4-.6 0-.4 0-.7.5-.6l3 .1c.2 0 .4.2.5.3v1h-.4ZM10.6 50.1l.1-.8V49l-.1-.5c.2-.1.4-.2.6-.1l.2.4-.1 1.8-.3.3-3.5-.1c-.2 0-.3-.2-.4-.3.1-.2.2-.5.4-.5 1 0 2-.1 3 .1ZM60.8 10.3c0 .1 0 .4-.2.5l-1.7 3c-.2.1-.2.5-.3.7v3.2l-.3.3-.2-.4V15c-.1-.8.1-1.5.5-2l1.8-2.5c0-.2.2-.2.3-.3h.1ZM24.8-7.7ZM60.3 55.8v-3.4l.3-.3.2.3-.1 1.9c0 .1-.1.3 0 .4.3.7 0 1.3 0 2v2l-.2.9c-.3-.2-.2-.6-.2-.8v-3ZM64.5 16.5l-2.4-.2a1 1 0 0 1-.4-.1l-.1-.3.1-.2h.3l4.4.3h.2l.3.4-.3.2-2-.1ZM67.7 65.8c-.3-3-.3-6.1-.1-9.2.2.4.3 8.2 0 9.2ZM67.2 13v1.2c0 .3-.1.4-.3.4-.2 0-.5 0-.5-.4v-2.5c0-.3.1-.4.3-.4.3 0 .5 0 .5.3V13ZM7.3 24h1l.2.4-.3.2H6l-.3-.4c0-.2.1-.6.3-.7h1.5l.2.2-.3.3ZM23.5-10.1l-.5.5A43 43 0 0 0 13.8-2L15-3.3c2.5-2.6 5.3-4.8 8.2-6.6l.4-.2ZM59.6 60.2v-.4l-.2-7 .1-.6.2.7v7.3h-.1ZM7 21.8h1l.4.2-.3.6H6c-.2 0-.3-.5-.4-.7l.5-.2h.8ZM58.2 20l.2-.8c0-.1-.3-.3-.3-.5l.4-.5 1.1-1.7.3-.3c-.2 1-.8 1.8-1.3 2.5v.2l.5-.5.5-.5c-.1.2-.1.5-.3.7-.2.4-.3.7.1.9v.5h-.2c-.3-.7-.5-.4-.7 0H58.2ZM8 20.2H5.9l-.3-.3c0-.3.2-.5.4-.5H8c.3 0 .5 0 .5.5 0 .2-.3.3-.5.4ZM5.7 43.6h2.5l.4.1.2.4-.2.3H5.9c-.4 0-.4-.2-.2-.8Z"/><path fill="#F75049" d="m60.2 12.8.1.9v.5l-1.1 2c-.3-1.3 0-2.7 1-3.4ZM69.6 35.7l-2.1-.2-.4-.2.3-.4h.4l2.3.1c.2 0 .4 0 .3.4l-.3.3h-.5ZM6.8 31.2h-1l-.3-.3.3-.4H8l.2.5-.3.3H7ZM8.7 29.7l-.9.3h-2c-.1-.1-.4-.3-.4-.5 0-.3.2-.3.4-.3h1.9l1 .3v.2ZM64.6 40.2h-2.5l-.2-.4.2-.2h3.6c0 .2.2.2.3.3l-.3.3h-1ZM10.5 62.6v-2.2l.1-.4h.5l.1.4c-.1.3 0 .5 0 .8v1.6c0 .1-.2.3-.4.3s-.4-.2-.3-.5ZM-1.9 40.1h-1c-.2 0-.3 0-.3-.4 0-.3.1-.4.3-.4H-1l.4.1.2.4-.3.3h-1ZM68 33l2.3.3c.2 0 .2.2.3.3l-.2.2-2.9-.2-.3-.3.4-.2h.5ZM60 34v-1.6l.1-.4c.1.1.3.2.3.4v3.1c0 .2-.2.4-.3.5l-.2-.5V34ZM7.5 25.3c0 .2-.4.3 0 .6.2.1 0 .3-.1.3H5.7l-.2-.2.3-.3h.8l-1-.2v-.2c.7-.2 1.3-.2 2 0ZM3.7 40.6c.1.6.2 1-.4 1.3l-.2.7v3.5h-.2l-.1-.6v-3.4c0-.2.2-.5.3-.5.4-.2.6-.5.6-1ZM53.4 19.1l4.6 6.2-.1.1c-1.6-2-3.2-4-4.6-6.2h.1ZM69 52.4l-1.3-.1-.3-.3.4-.2h.8c.2 0 .5 0 .5-.4l.2-.2.2.2c-.1.5.2.4.4.5l.3.2-.3.3h-1ZM2.5 33c.2.2.4.3.3.7L2.7 39v.7l-.2.3-.2-.4c.4-1.7.1-3.4.2-5V33ZM65 20.1l-1.2-.1-.3-.3.3-.3H66l.3.5-.4.2h-1ZM68.8 42.5h-.6c-.4 0-.6 0-.6-.5 0-.2-.2-.3-.3-.5v-.3h.2c.4 1 1 .5 1.5.7l.6.1.2.4-.2.2h-.8ZM64.8 30.5h1c.1 0 .3.2.3.4 0 .3-.1.4-.3.3h-1.9l-.4-.4.4-.3h1ZM64.9 32.4h-1c-.2 0-.2-.2-.3-.3l.2-.4 2.1.1.2.4-.2.2h-1ZM64.8 27.4h-1l-.3-.3.3-.3h2l.3.4-.3.3h-1ZM-19.9 34.3v4.8l-.1.4-.2-.4v-4.5l.2-.3h.1ZM64.9 29.3h.9l.3.4-.3.3c-.7 0-1.4 0-2-.2l-.3-.3.3-.2h1ZM-.7 54.3h-1l-.3-.4.4-.2H0l.4.3-.4.3h-.8ZM-2 48.4h3l.5.2-.3.2-.2-.1-.6.1c-.4.3-.6.2-.9 0-.1-.1-.5.4-.8.2l-.6-.6ZM68.9 46.3h1l.4.3-.4.3h-2.1l-.3-.4.3-.3h1ZM10.6 52.3v-.8c0-.4.2-.4.4-.4s.3.1.3.5V53c0 .4 0 .6-.3.6s-.5-.1-.4-.5v-.8ZM63 20.8c.9-.2 1.8-.1 2.7 0l.3.3-.3.3c-1 0-1.9.1-2.8-.6ZM7.3 46.5h1.3l.4.3-.4.2H6l-.4-.3.4-.2h1.3ZM64.9 37l1 .1.3.4-.3.3h-1.7c-.2-.1-.4 0-.4-.5 0-.4.3-.2.5-.3h.6ZM7 36.1h1l.2.4-.3.2H6.3c-.2 0-.3-.2-.4-.3.1-.1.2-.3.4-.3H7ZM64.7 23.2h1.1l.3.3-.3.3h-2l-.2-.3.2-.3h1ZM64.9 22.6h-1c-.2 0-.3-.2-.4-.3.1-.1.2-.3.4-.3h1.8c.1 0 .4.2.4.4 0 .4-.3.3-.5.3H65v-.1ZM64.9 25h-1l-.3-.4.3-.3 1.8.1.3.3c0 .1-.2.3-.4.3H65ZM65 25.6h.9l.2.4-.2.2h-2l-.3-.4c.1-.1.2-.3.4-.3h1ZM64.8 28.7l-1-.1-.2-.3.2-.3 2 .1s0 .2.2.3l-.3.3h-1ZM70 14.3c-.6-.3-.9-.9-.9-1.7v-1.8c0-.8-.2-1.3-.7-1.7l-.4-.4c.8.2 1.3 1 1.3 1.9v1.5c0 .8.3 1.5.7 2.2ZM64.2 7.7l-.4.1-1.6-.2s-.3 0-.4.2c0 .6-.5.8-.8 1.2l-.7.8v-.1l.4-.8c.4-.4.8-.8 1-1.4 0-.2.4-.3.5-.2.7 0 1.4.2 2 .3v.1ZM62.6 61.8H62c-.7 0-.7.1-.7 1v1.8l-.1.1-.2-.2V62c0-.2.2-.4.3-.5h1.3v.2ZM68.7 53.3h-1l-.3-.3.3-.2h2l.3.4-.4.2h-.9ZM65 35.7h.8l.3.4-.3.3-1.7-.1-.2-.3.3-.3h.8ZM7.5 41.6H6.3c-.1 0-.2 0-.3-.2l.3-.2h2.4l.2.2-.2.2H7.5ZM64.9 38.4h1l.2.3-.2.2h-2l-.1-.3.2-.3h.9ZM5.8 10.6l.2-.3c.3-1 1-.5 1.4-.6l-.4.5.7.2.6.1-2.5.2v-.1ZM65 35.2H64l-.2-.4s.1-.3.3-.3h1.5l.3.4-.3.3h-.8ZM65 45.5l-.8-.1-.2-.3.2-.3h1.6l.2.4-.2.2H65ZM55.6 2Z"/><path fill="#F75049" d="M7.6 25.3c0-.4.2-.5.5-.4l1.7.1.3.2-.3.3-2.3-.2ZM-1.6 56.8l.3-.2H1l.4.2-.4.2h-2.1l-.4-.2ZM10.8 9.2h-1L8 9.7h-.3l.2-.4 2.6-.3.2.1v.2ZM65 44.2h-.8l-.2-.3.3-.3h1.4l.3.3-.3.3H65ZM65 43h-.8l-.2-.4.2-.2h1.5l.2.3c0 .1 0 .3-.2.3H65ZM69.7 25.9h-.4c-.5 0-1 0-1.6-.2l-.3-.3.4-.2 1.3.3.6.2v.2ZM-11 57.1l-.1-.1c.1-.9-.4-1-.8-1.3-.3-.1-.7-.2-.9-.7l1 .5c.7.3.8.3.8-.6v-.2c0 .8.2 1.6 0 2.4ZM68.6 29.3l-1-.1-.2-.3c.1-.1.2-.3.3-.2l1.6.1.3.3-.3.2h-.7ZM-13.2 51.1h-.3c-.3 0-.6-.3-1-.4-.2-.1-.5-.4-.5.2l-.2.1c-.3-.2 0-.5 0-.7l.2-.3 1.6.7.3.2v.2ZM59.7 22l-.3.8-.8 1c0 .2-.2.2-.3.2v-.5l1.2-1.7.2.1ZM7 29H6l-.3-.3.3-.2H8l.3.3-.3.2h-1ZM7 34.1h1.5l.3.2-.3.2H6.1l-.3-.2.3-.2h.8ZM69.7 45.9l-1.6-.2-.2-.2.2-.2h2l.2.3-.2.3h-.4ZM65.1 54.9l-.7-.1-.2-.3.3-.3 1.2.1.3.4-.3.2H65ZM7.8 13.3l-.7-.4c0-.5.4-.4.7-.5h.5l.3.3c0 .2-.2.4-.3.5h-.5v.1ZM59.7 23.5c0 .2-.1.6-.3.8l-.8.8h-.3v-.5l1.3-1.3.1.2ZM2.3 42.7V40.3l.2.1V44.8l-.2-.3v-1.8ZM-12.6 48.2V52h-.2v-4l.1-.5c.2 0 .3.1.4.3l.4.7-.7-.3ZM8.5 38.2H9l.2.3-.2.3a8 8 0 0 1-1.2 0l-.2-.3.3-.3h.6ZM69.1 40h-.8l-.2-.3.2-.2h1.5l.3.4-.4.2h-.6ZM69.3 48.2h.7l.3.3-.3.3h-1.4l-.3-.4.4-.2h.6ZM65 46l.7.1.2.3-.2.3h-1.4l-.2-.4.2-.2h.6ZM62.3 18.8h-.7l-.2-.3.2-.3H63s0 .3.2.4l-.3.2h-.6ZM59 10.6l-.4-.3-3.3-4-.2-.2.4.3 3.4 4v.2ZM70.3 36.8l-1.5-.2-.3-.2.3-.2h1.4l.3.3-.2.3ZM65.1 58.1h.8l.2.3-.2.2h-1.4l-.2-.3.2-.2h.6ZM-13.3 54.8v-.4c0-1 0-1.1-.8-1.4l-1.7-.6-.5-.2V52l2.8 1c.2 0 .3.2.3.4v1.3ZM67.3 23.5l.4-.3.7.1c.2 0 .2.3.4.4-.2 0-.3.3-.4.3h-.7l-.4-.5ZM16.9 10 15 12.7l-1.3 1.8.2-.6 2.6-3.7.3-.2ZM-13.4 47.8l-.8-.5c0-.2-.3-.4-.3-.5 0-.3.3-.2.5-.2l.7.5.3.5-.4.2ZM10.2 21.3h.6l.2.3-.2.3H9.6l-.2-.3.2-.2h.6ZM8.3 27.4H7.2l-1 .2-.4-.2.3-.3h2.2v.3ZM62.7 37.7h-.6l-.3-.4.3-.2h1.2l.2.3-.2.2h-.6ZM60.8 11.2v1.2c0 .5 0 .8.5.8l.2.1c-.5.4-.9.3-1-.4v-1.7h.3ZM-2.5 38.3c0 .2-.2.3-.4.5s-.4.1-.4-.2v-.8l.3-1v.9l.5.6ZM-11.4 46.4c-.8-.2-.4.7-.5 1-.6-.4-.8-.7-.6-1 .4-.6.5-.6 1.1 0ZM7.9 33.8H5.8c.2-.4 1.5-.5 2 0ZM65.2 17.3l-3.1-.2v-.2l3 .2.1.2ZM65 47.9h-.6l-.2-.3.2-.2h1.3l.2.2-.2.3H65ZM58.5 29.6l.6-.7.5-.6V29l-1 1.2c0 .1 0 .2-.2.3v-.8ZM58.3 31.5v-.3l1.2-1.4h.3v.2l-1.4 1.6ZM8.4 33.2H6l-.2-.2.1-.2h2.5l.1.2v.2ZM10 13.5h.2c.2 0 .2.2.3.4l-.3.2h-.6l-.3-.3.3-.3h.4ZM11.3 57.2c0 .3-.2.4-.4.4-.3 0-.4-.1-.4-.5 0-.3.1-.5.4-.5.3 0 .4.2.4.6ZM10.2 23.6l-.8-.1-.1-.3.1-.1h1.4l.2.3-.2.1h-.6ZM65 56.7h.8l.2.3-.2.2h-1.2l-.3-.3.3-.2h.5ZM8.7 25.8h2c-.4.4-1.6.4-2 0ZM8 14.2h-.3l-.2-.3.2-.4h.5c.2 0 .2.2.4.3l-.4.4H8ZM11 20.1H9.8l-.3-.3.3-.2h1c.3 0 .5.1.3.5ZM7.9 16.5h-.4l-.3-.3.3-.3h.9l.2.3-.3.2H8ZM11.4 46.4c-.8.4-1.5.2-2.2 0 .4-.3 1.4-.3 2.2 0ZM11 58.9c-.3-.3-.7-.4-.7-.6 0-.3.2-.4.5-.4.2 0 .5 0 .5.4 0 .2-.2.3-.4.5ZM65.3 62l-.5-.2-.1-.2.2-.2h.7l.4.2-.3.3h-.4ZM53.9 16.6l2.5 3.2c-1-1-1.8-2-2.5-3.3ZM8 11.9l-.7-.2-.1-.3.2-.1c.3 0 .5-.1.8 0l.4.3-.4.2H8ZM3.8 46.8V45l.2-.3.2.3-.3 1.9h-.1ZM70.8 56.5l-1.7-.2c.4-.3 1.3-.3 1.7 0v.2ZM14.8 57.7c-.5 0-.9-.8-1.3 0 0-1 .1-1.1.7-.7l.6.5v.2ZM11.4 31.4v-.8l.1-.3.2.3v1.6l-.2.2-.1-.2v-.8ZM58.2 42l-.5-.5.3-.4c.2-.1.4-.6.5-.3.1.2-.1.7-.2 1l-.1.1ZM65.3 52.5l-.7-.1-.3-.2.3-.2h1l.3.3-.3.2h-.3ZM67.6 8.2l-1.2-.8-1.2-.7c1 0 1.6 1 2.4 1.4v.1ZM-1.3 36.4h-.1c-.2 0-.5 0-.5-.4l.5-.2h.4l.3.2c0 .2-.2.3-.3.4h-.3ZM63 29.7l-1.2.1s-.2 0-.2-.2l.2-.3c.4 0 .8-.2 1.2.2v.2ZM59.4 44.2c-.4.7-1 1.1-1.6 1.7.4-.8 1-1.3 1.5-2l.1.3ZM65.1 55.6h.6l.2.2-.2.2h-1.2l-.1-.2s0-.2.2-.2h.5ZM57.7 44.5c.2-.6.8-1.3 1.6-2-.2.5-1 1.6-1.6 2ZM8.2 48.8H8l-.2-.4.2-.2h.8l.2.2-.2.3h-.5ZM10 14.5l.6.4c0 .5-.4.3-.6.3l-.6-.3.6-.4ZM6.4 16.5l-.5-.3c0-.5.3-.4.5-.4h.1c.2 0 .5 0 .5.4s-.3.2-.5.2h-.1v.1ZM10.2 19h-.7l-.2-.2.2-.2 1.3.2.1.2-.1.1h-.6ZM52.4 17c.4-.3.7-.3.8.2l.2.5v.2l-1-1ZM59.9 30.7c-.3.6-.8 1.1-1.2 1.6h-.2V32l1.2-1.4.2.1ZM5.7 32.2c.8-.4 1.5 0 2.3 0-.8 0-1.5.3-2.3 0ZM10 30.2l-.6-.4.6-.3h.2l.3.3-.3.3H10ZM-11.5 54.4c-.4-.2-.9-.3-1.2-.6l-.1-1c0 1.2 1 .9 1.3 1.4v.2ZM7 13.6c-.2.6-.5.6-.8.5 0 0 0-.4-.2-.5l.4-.1.6.1ZM69 34.1l.6.1.3.2-.3.2a3 3 0 0 1-.7 0l-.3-.3.3-.1h.2ZM10 16.5c-.3 0-.7-.2-.7-.3 0-.4.4-.3.6-.3.2 0 .5-.2.6.3l-.5.3ZM10.9 59.9l-.4-.6c.1-.1.2-.3.4-.3l.4.3-.4.6ZM6.7 39l-.3-.6c0-.4.3-.4.5-.3l.4.3-.6.5ZM6.3 40.5l-.6-.3.6-.2.7.2-.7.3ZM59 10.6c.2 0 .4-.3.6-.7.2.5.2.8-.3 1.4l-.3-.7ZM58 49l1.3-1.6.1.2-1.3 1.6-.1-.2ZM58.2 39.3l1.2-1.5v.1c-.2.6-.7 1-1.1 1.6l-.1-.2ZM5.7 62.1v.3c0 .2-.2.3-.3.5l-.1-.6v-.2l.3-.5.1.5ZM63.3 49.2H62V49h1.4v.2ZM-2.9 33.8V36l-.2-.1v-2l.1-.3.2.3ZM-.2 36.5v-.6l.3-.2.2.3v.4L0 37l-.2-.5ZM73.5 44.6c0-.4-.8-.4-.5-1.2.4.4.6.8.5 1.2ZM68.3 49.4h1l.2.1-.2.2h-1v-.3ZM60.3 5.7l.5.7.1.5c-.1 0-.3 0-.4-.2l-.4-.6c-.2-.3 0-.4.2-.4ZM-.3 39h-.4c-.4.1-.3-.3-.3-.5v-.3c.3-.1.5 0 .5.3l.2.5ZM0 43.5c-.2 0-.3-.2-.5-.3L0 43l.6.2-.7.3ZM8 14.7h.2l.3.3-.3.2a1 1 0 0 1-.5 0l-.3-.2.3-.3H8ZM61.1 67.8V66h.1v2ZM4 51.6c.5 0 1-.1 1.6.2H4v-.2ZM6.6 20.9c.3 0 .6.3.6.3 0 .5-.4.2-.6.2l-.5-.2.5-.3ZM11.3 55.3c-.1.1-.3.3-.4.2l-.3-.3.3-.3.4.2v.2ZM11 53.7l.3.5c-.1.1-.2.4-.3.3-.2 0-.3-.2-.4-.3 0-.2.2-.3.4-.5ZM63.2 53.1c-.4.1-.8.2-1.2-.1v-.2h1.2v.3ZM-13 46l-1.5-1c.5 0 1.3.5 1.5 1ZM-19 26.5l1.1 1.5-.4-.4c-.2-.1-.3-.4-.5-.4-.3-.1-.2-.3-.2-.7ZM1.5 50.4c-.5.2-1 0-1.6 0v-.2l1.5-.1v.3ZM-10.9 53.7v-3 3ZM2.3 54.2c0 .5.4.8.8 1v.1c-.3 0-.6 0-.8-.2l-.1-.9h.1ZM66 50c-.5.3-.7.3-1.5 0H66ZM63.3 38.6H62v-.3h1.3v.3ZM-16 29.5l-.4.5-.2-.4.3-.6c0 .2.2.3.3.5ZM10.9 55.6l.4.5-.4.3-.4-.4.4-.4ZM-10.7 45v3.6V45ZM65.4 48.5l.5.5-.4.2-.5-.3c.2 0 .3-.2.4-.4ZM58.3 38l1-1.2v.1l-.8 1.3-.2-.2ZM9.4 12.6h.9c-.3.4-.6.3-.9.2v-.2ZM71.9 53.3l-1-.7.2-.2 1 .7-.2.2ZM64.3 60.3c.3-.4.5-.4 1-.2v.2h-1ZM67.7 34.6l-.4-.3c.1-.1.2-.3.4-.3l.4.3-.4.3ZM59.1 20.5l-.5.7-.2-.4.5-.6.2.3ZM68.6 54h-1l-.2-.2.2-.2 1 .3v.1ZM59.4 40.5l.1.5-.2.7H59l.1-.8.2-.4ZM71.5 40.6c.4 0 .7.3 1 .6l-.1.2-1-.6v-.2ZM.7 51.3h.8l.2.1-.2.2H.7v-.3ZM-10.8 48.9l-.4.3-.3-.3.2-.4.5.4ZM-6.9 50.4l.3.4v.6h-.2A3 3 0 0 1-7 51v-.5ZM59.3 39.2c.2.6-.1.8-.3 1 0 .1-.1.1-.2 0V40l.5-.8ZM58 47.5l1-1.1c0 .4-.6.7-1 1.1ZM-15.5 50.3l-.3.2-.3-.5.2-.2.4.5ZM-10.9 44l-.4.4-.2-.5.2-.3.4.3ZM11.2 63.8c-.1 0-.3.2-.4.1l-.4-.3.3-.2.5.3v.1ZM8 20.9l.4.3-.5.2s-.2 0-.3-.2l.3-.3ZM73.2 56.5v1.2c-.4-.3-.4-.6 0-1.2ZM-.7 50.4c-.3.3-.6.2-.9-.2h.8v.2ZM64.4 62h-1v-.2h1v.3ZM61.9 23.1l1.2.2v.2l-1.2-.2v-.2ZM64.9 49l-.4.2-.4-.4.3-.2.5.2v.2ZM58.2 35c0-.2-.3-.3-.2-.4 0-.3.2-.6.3-.8h.1v.3l-.2.9ZM70.3 15.8l.7.4v.4h-.3l-.4-.7ZM-13.4 47.8s.2 0 .2.2l.2.4s-.2.1-.2 0l-.5-.5.3-.1ZM11.5 35.7v.2l-.1.3-.2-.3v-.2l.2-.6.2.5h-.1ZM-.1 47.8l1.3-.2v.2H-.1ZM8 54l-.2-.5.3-.2.2.2c0 .2-.1.3-.3.4ZM1 62.7l-1-.2h1v.2ZM-8.9 49.8l1 .2v.2l-1-.1v-.3ZM58.4 22.6c-.3-.4-.3-.6-.1-.9h.3l-.2 1ZM7 12.2H6c.4-.4.7-.2 1-.2v.2ZM5.7 64l-.3.2a2 2 0 0 1-.3-.4l.2-.2.4.4ZM58.3 64.6l-.1-.4.4-.4.1.1-.4.7ZM-11.4 47.8l-.2-.5.1-.3.3.5-.1.3h-.1ZM58.3 28.7l.7-1 .2.3-.8.9-.1-.2ZM-1 51.3H.1v.1h-1ZM-13.9 49.8l.2-.2.6.2v.3l-.8-.3ZM63.5 34v.1H62h1.5ZM-6.7 48.5l-.2-.4s0-.3.1-.2l.3.2-.2.4ZM63.2 40.9h-.9v-.1h.8ZM72.3 42.2l-1-.5.2-.2.9.5v.2ZM-11.3 41l-.1 1.4V41ZM65.2 65.9v-.2h.8v.2h-.8ZM2.9 49.1l-.3-.6.3-.3v1ZM58.6 37v-.3c0-.2.2-.4.4-.6 0 .3-.2.6-.4.9ZM-13.2 41.8l.2.3-.4.2-.1-.1c0-.2.2-.3.3-.4ZM5.8 60.6l-.3.4-.2-.3.2-.4.3.3ZM-6.8 49.3l.8.8-1-.6.2-.2ZM5.5 59.8l-.3-.4.3-.2.2.2-.2.4ZM6.6 57.6H7v.3h-.6v-.3ZM11.7 33.3l-.2.4-.2-.4.1-.4.3.4ZM58.2 35.3l-.3.7-.2-.1c0-.3 0-.8.5-.6ZM8.7 57.2l.1-.3h.5v.3h-.6ZM68.4 30.1l-.3.4-.1-.2.2-.4.2.2ZM9.3 21.9 9 22l-.3-.2c0-.2.2-.4.3-.4l.3.4ZM63 25.7h-.7v-.2h.7v.2ZM58.4 27.6c0-.5.2-.6.6-.5l-.5.6-.1-.1ZM74 37.2l-.6.3-.1-.2.7-.4v.3ZM58.2 35.3V35l.6-.7v.1c-.1.4-.3.7-.6.9ZM59.6 26l.1.4-.3.3-.1-.1.3-.6ZM68.7 12.4h-.1l-.6-.3.1-.2.7.3-.1.2ZM58.4 42.6l.3-.7.2.2-.5.5ZM8.2 61.4l-.3.1-.2-.2.3-.2.2.3ZM11 64.4v.2l-.5-.2v-.2l.6.2ZM5.7 43.6c-.2 0-.4 0-.4-.4l.3-.2c.3.1.2.3 0 .6ZM59.4 20.5l.2.4-.3.4-.1-.2.2-.6ZM11.6 40.6l-.3.2-.1-.3.1-.2.3.3ZM68.2 40.8l.3.3-.2.3-.2-.3.1-.3ZM11.3 43.6l-.2-.4.3-.2v.3l-.1.3ZM69.8 66.1h.6v.1h-.6ZM11.3 39l.2.4-.2.3-.2-.3.2-.3ZM8.3 52.3l-.3.1-.2-.2.3-.2.2.3ZM58.8 49l.4-.5.2.1-.4.6-.2-.1ZM73.6 53.2ZM8.7 40.6l-.3-.3.3-.2.3.2-.3.3ZM68.1 36.2l-.2.1a3 3 0 0 1-.4.1v-.1l.4-.2h.2ZM7.3 46.1l-.2-.3.2-.3.1.3-.1.3ZM8 54.9l.2.3-.2.1-.2-.2.2-.2ZM56.8 33.3h.5v.1l-.4.1v-.2ZM66.6 35.3l-.2-.4.3-.2.1.3s0 .2-.2.3ZM66.9 19l-.4-.4v-.2c.3 0 .5.1.4.6ZM-6.4 59.8h.5v.1h-.5ZM69 47.4h.4v.2H69v-.2ZM1 58.8l-.2-.3.2-.1.2.2-.2.2ZM-13.2 40.5c-.2 0-.3.2-.4.1l-.2-.2.3-.2.3.3ZM8.2 57.2l-.2.2-.2-.2.2-.2.2.2ZM10 55.7l.1.3-.1.2-.2-.2.1-.3ZM11.4 34l.2.4v.2c-.2 0-.3 0-.3-.2l.1-.4ZM63 22.3h-.5V22h.6v.3ZM68.3 55.7l.3.5-.1.1-.3-.4.1-.2ZM66.9 10v.1h-.6v-.2h.6v.2ZM63.3 28.1l-.4.2-.2-.2.3-.1.3.1ZM72.5 47.3l.3.2-.2.1-.2-.2.1-.1ZM-15 46.2l.3.4-.2.2a.6.6 0 0 1-.3-.3l.1-.3ZM73.5 52v-.5l.1.6ZM70.2 44.7l-.2.2-.3-.2.2-.2c.1 0 .2 0 .3.2ZM71.3 57.2v-.6.6ZM73.5 47v-1V47ZM68.5 47.6h-.3l.3-.2v.2ZM11.4 38.5l-.1-.3.1-.2.1.2-.1.3ZM14.2 52.4c0 .1-.1.3-.2.2l-.3-.2.1-.2.4.2ZM-14 47.8h-.3l-.2-.2.3-.1.2.3ZM-8.2 55.6l-.3.2-.2-.3.2-.1c.1 0 .2 0 .3.2ZM71.4 15.9l-.7-.5v-.2l.7.7ZM58 36.4c.2-.1.2-.3.3-.5h.2l-.3.6h-.1ZM-15.2 43.4h.5v.1h-.5v-.1ZM-14.6 49.5l-.5-.4V49c.3 0 .5.1.5.5ZM65.6 53.3l.1.2-.2.2-.2-.2c.1 0 .2 0 .3-.2ZM11.3 47.1l-.2.2-.2-.1.1-.2.3.1ZM58 42.6l-.3.3v-.3l.1-.2h.2v.2ZM71.7 64.4l.3.3-.2.2-.1-.2v-.3ZM3.9 47.6v.5h-.1v-.5h.1ZM10 24.4h-.4v-.2h.4v.2ZM11.6 44.3l-.3.2-.1-.2.1-.2.3.2ZM68.7 44.9h-.4v-.3h.4v.3ZM58.4 42.6l-.3.7-.2-.2.5-.5ZM62.2 42v-.1h.8-.8ZM11.5 42.1l-.2.2-.1-.2.1-.1.2.1ZM54.8 33.1l-.3.2s-.1-.2 0-.2l.1-.2.2.2ZM-3 32.6V32h.2v.5H-3ZM54.6 40.8l.5.5v.1l-.6-.5.1-.1ZM7 56.2l-.2.1h-.1V56H7ZM61.1 2.5v-.8.8ZM26.1-8.6c.2 0 .3-.2.5-.3v.1l-.5.3ZM4 49.3l-.3.2v-.4l.3.2ZM69.3 44h-.4v-.2h.4v.2ZM61.7 20.1l.2.3-.1.1-.2-.1.1-.3ZM65.8 17.5v-.2h.4v.2h-.4ZM10.7 67.1h-.3v-.2h.3v.2ZM60.8 14v.5-.6ZM-14.6 49.5l.5-.1v.2h-.5ZM-7 51.9l.2.4v.1l-.2-.2V52ZM13.8 54.8l.1.2s0 .1 0 0h-.2l.1-.2ZM0 59v-.3l.2-.1h.1l-.2.4ZM11.3 45.2V45.5l-.1-.1v-.2ZM1.2 53.6l.1.2-.1.1-.2-.1.2-.2ZM5.6 37.3l.1.2h-.2c0 .1 0 0-.1 0 0 0 0-.2.2-.2ZM53.6 46.5l-.1-.2v-.1h.1v.3ZM2.1 39.5l-.1.2-.2-.2.1-.2.2.2ZM-14 40.4c-.2 0-.2.1-.3.2l-.1-.2.1-.3.2.3ZM71 33.3l.1.2v.2l-.2-.2v-.2ZM65.2 51.2h-.3l.1-.2.2.2ZM-8.5 52.5h-.2v-.2h.2v.2ZM71.8 63l.2.3-.3-.2.1-.1ZM-.7 64.2-1 64v-.2l.4.3h-.1ZM11.4 36.7l.1.2-.1.2-.1-.2v-.2ZM10.7 65.7l-.3-.2h.3v.2ZM-10 52.4c0-.1-.1-.2 0-.2h.1l-.1.2ZM4 55.8s-.1.1-.2 0v-.1H4ZM4.2 62.7H4v-.2.2ZM-3.3 30.3v.2l-.1.2v-.4ZM65.6 69.7l-.2-.1.2-.1v.2ZM4.3 60.2l.1.4h-.2l.1-.4ZM-13.4 52.3l-.3-.2V52l.4.1v.2ZM62.8 47.4v.1c0 .1-.1 0-.1 0ZM66.8 31.2l-.2.2-.1-.2.1-.1.2.1ZM4.3 59.3v-.4l.2.1-.2.3ZM5.5 14V13.8l.1.2v.2ZM68.6 43.3h-.2v-.1H68.7v.1ZM67.6 42.8l.1.4h-.1v-.4ZM7.9 58.7v.2l-.1-.1v-.1ZM6.8 59.4h-.1v-.2l.2.2h-.1ZM4.7 38.3l-.3.3V38.3h.3ZM1.4 61.3h-.2l.1-.1v.1ZM6.9 61.3l.1.1v.1h-.2v-.2ZM-.4 63.7h-.1l-.1-.1h.2ZM69.1 17.3l.2.2H69l.1-.2ZM11.3 12l-.2.1-.2-.2h.2l.2.1ZM.3 64.3l-.1.1v-.2l.1.1ZM-2.2 54.3v.2h-.1v-.2ZM58.5 26l-.1.3-.2-.1.2-.3.1.1ZM8.4 23.6l-.2.2v-.2h.2ZM-8.5 51.6v.1h-.2l.1-.1h.1ZM23.6-10.1l.5-.4v.2l-.6.2ZM-1 26.3h-.3V26h.1l.2.2ZM67.6 21.6l-.1.1-.1-.1v-.1h.2ZM2.4 46.5h-.1s0-.1 0 0h.1ZM7.9 49.3h-.1ZM70 54.4h.1v.1H70v-.1ZM9.8 63.2h-.1V63h.1ZM14.7 9.4v.2h-.1l.1-.2ZM6.5 45.9l-.1-.2h.2l-.1.2ZM70.8 71.7v.1Z"/><path fill="#F75049" d="M11 20.1v.1l.1.3V20ZM-8.6 57.9h.1v.1h-.1v-.1ZM70.6 49.8l-.1.1-.1-.1v-.1l.2.1ZM66.7 33.1h-.1.1ZM71 13.8v.2h-.1v-.2ZM-1 48v-.1h.2l-.1.1ZM9 43l-.1.1V43l.1.1ZM4 43v-.2l.2.1-.1.1h-.2ZM62.3 24.3c0-.1 0-.1 0 0ZM-7.1 53.8h-.1v-.1ZM-.8 45.5v-.1h.1ZM7.6 64.9v-.1.1ZM68.6 62.6v.2-.2ZM65.6 63ZM4.3 61.4h-.1ZM-13.1 44.3V44v.3ZM5.5 12.7l-.1-.1v-.2h.1v.3ZM62 34.7h-.2v-.1h.2v.1ZM57.8 37.6h.1v.1ZM62.4 46.2v.1ZM-8.6 56.6v-.1h.1v.1ZM69.2 58.3ZM20.2 64.6l-.1.1v-.1ZM8.7 18.4l-.1-.1v-.1l.1.2ZM9 51.3s0-.1 0 0ZM66.8 28.9h-.1v-.2l.1.2ZM67.7 48.3h.2v.1h-.2ZM13.2 10.5l-.3.3v-.1l.3-.2ZM66.9 17.4v.2-.2ZM-14.2 51.6v.2-.1ZM8.8 36.4H9v.2l-.1-.1v-.1ZM59.1 6.7h.1l-.1.2v-.1c-.1 0 0 0 0-.1ZM61 6l.1.1v.1l-.2-.1.1-.1ZM-2 59.7v.1ZM69.4 43.3h.1-.1ZM62.6 27v-.1ZM-.5 26.4h-.1v-.1.1ZM3 47v.1h-.1ZM13.2 10.5l.2-.1-.2.1ZM7.6 59.4v.1ZM2.6 30.2ZM.9 45.3v.2-.2ZM72.4 53.6v-.1ZM68.4 27.6ZM1.3 60l.1.1v.1h-.1V60ZM.4 33.1ZM72.2 52.7h.1ZM66.8 25.8h-.1ZM-16.7 10.2h.1v.1-.1ZM72 47.1ZM70 71.7ZM67.4 31.4ZM58.5 29.6v-.3.3ZM-13.6 7V7.4l-.1-.1.1-.1ZM-7.1 56v.1-.1ZM10.2 18.4v-.2l.1.1Z"/><path fill="#000" d="M24.6 22c-.2.2-.2.5-.2.9V27h-.2v-5.5L24 21c-.3 0-.5.1-.5.5v.1c.3 1 0 1.8 0 2.7V27.5h-.2V14.4l.1-10V4l-.2-.5-.3.5v6.2l.2 1v.3l-.3 6v.4c0 .6-.1 1-.6 1.1-.3 0-.4.3-.4.6v8l-.1.2-.2.5-.1-.5v-8.1c0-.2 0-.5-.1-.4-.2 0-.4 0-.4.2-.1.3-.2.4-.4.1l-.1-.2-1.4.3-.1.5v2.1c0 .6-.2 1-.5 1.3L17 25.3l-.4.7h.1l1.9-2.3v2.7l-.3.6c-.3.4-.5.9-.5 1.5l-.1 1.7v2.7c0 .3-.2.5-.3.7l-1.2 1c-.4.2-.6.6-.6 1.1 0 .5-.1.7-.5.7l-1.5.1-.8-1.2c-.2-.3-.3-.6-.3-1l.2-10.5v-3c0-.7 0-.7.7-.7h2.4l.4-.2c0-.1 0-.3-.2-.4l.8-.9.4-.4.4-.4.6-.4.5-.3.1.7v1c0 .5.1.5.4.5l1.7-.5c.3 0 .4-.2.4-.6V17c0-.7.2-1.1.7-1.3.4-.2.5-.5.5-1l.1-2.3-.1-.5-.2.4v1.3c0 .5-.7 1-1.1.9l-.1-.4v-.5h-.5c-.4.2-.6 0-.6-.6l-.1-.3-.2-.5-.2-1c-.3-.1-.3-.5-.2-.8l.7-1.5c.2-.4 0-.5-.2-.8l-.2.9h-.1l-.1-.4V4.2c0-.3.1-.6.3-.8A51 51 0 0 1 22.3.7c.5-.2.8 0 .8.7l.1.7h.2l.5-1 1.5-2.5c.8-1.3-6.8 6.6-5.7 5.8a21.5 21.5 0 0 1 20.6-2.2c.1 0 .3 0 .4.2l.2.5h-.3c-1.6-.4-3.1-1-4.7-1.3a20 20 0 0 0-14.8 2.6c-2.1 1.3 4.7-5.7 3.4-3l-.3.4 1.8-2c2.6-2.4-3.1 4.6 0 3.8 5.4-1.3 10.7-.8 15.8 1.6.9.4 1.8.7 2.4 1.6.6.8 1.2 1.5 1.4 2.6 0 .3.3.6.5.8l1.4 1.7c.5.6.8 1.2.8 2l-.1.5-.2-.4v-.6c-.3.1-.2.4-.2.7v1.5h-.2v-2.3c0-.5-.2-.8-.5-1.1l-1.4-1.6a2 2 0 0 1-.4-.8c-.1-.6-.4-1-.6-1.6a6 6 0 0 0-3-2.4 22 22 0 0 0-13.6-2c-3.6.6 1.7-6.5-1.4-3.8-.7.5-1.2 1.2-1.8 1.9a1 1 0 0 0-.3.5V11.8l.1.6.6-.5V11l.2-9.2.1-.7.2.7-.1 8.9v.8c.5-.3-7.7 8-7.2 7.7v.2s0 .2-.2.3l7.8-8.1c-.3.1-.4.4-.4.8l-.1 3.7c0 .4 0 .7.4.5l-.2.2c-.4.2-.5.1-.5-.4v-4.2l-.6.5c-.2.1-.3 0-.4-.2V2.2c-.3.2-.4.6-.5 1v1.9l-.2 14.6v.7l.1.5.5-.4v-6l.1-1h.2v7.8l.1.6ZM22.5 3.4c-.3.1-.4.4-.4.8a53.8 53.8 0 0 1-.3 3.4c-.3.2-.3.5-.3.9 0 .6-.1 1-.6 1.4l-.4.6 1.5-.3c.2-.1.4-.3.4-.7V3.5Zm-7.4 27h1.2l.3-.3c0-.3 0-.5-.3-.5H14c-.3 0-.4.1-.4.5 0 .3.2.3.4.3h1Zm7.4-14.4c-.4.1-.6.4-.6.8v1.2l.2.5c.2 0 .4-.2.4-.5v-2Zm-2-3.6.9-.7v-.5h-.3c-.3.3-.6.7-.6 1.2Zm2.5-11-.6-.3-.3.3.4.5.5-.5Zm-.8 10.2.5-.5-.3-.3-.4.4.2.4ZM18 20.4s-.1-.1-.2 0h-.1l.1.2.2-.2Zm2.8-17.1L21 3h-.1v.3Zm1-1.5-.2.2h.2v-.2Zm-6 22.3V23.8 24Zm5.5-21.5.1.1v-.2ZM48.2 36.6l-1-1 2.8.3.4-.3c0-.3 0-.5-.3-.5H47.3c-.4 0-.2.3-.1.5l-1-.8.2-.4v-.8l-.6.3c-.2.1-.3.4-.6.2a1 1 0 0 1-.5-.9v-1.8l.1-6 .6-.3.6-.7c.4-.4.8-.8 1.4-.7.8.2 1.7.2 2.5.3.7.1.7.1.7 1.1H50c0 .7.3 1 .7.7v17.4c0 1 0 2-.2 3.1v.4h-.2l-.1-1 .1-1.4c.2-.6.1-1.2 0-1.8l-1-3-.3-.6c.4 0 .6.2.9.1l.4-.3-.3-.4-.9-.3h.9l.3-.3v-.4c-.3-.4-1.4-.4-1.7 0l-.4-.7c.7.1 1.3.4 2 0-.5-.2-1-.3-1.5-.2l-.5.2Zm-.9-6-.2.5c0 .2.1.4.3.4l2.3.2c.2 0 .4 0 .4-.3s-.1-.5-.4-.5h-.5c-.2 0-.4 0-.4-.4l-.3-.4-1.2-.1c-.3 0-.4.3-.2.5l.2.2Zm2 3h.7l.3-.2-.3-.2-2.5-.3-.4.3c0 .3.3.3.4.3l1.9.1Zm-1.2-7.1 1-.1.3-.3c-.1-.1-.2-.3-.4-.3l-1.8-.2-.3.2.2.4 1 .3Zm-.6-1.7h-.2l-.3.2.3.4h1.8l.3-.1-.3-.3-1.6-.2ZM48 32h-.6c-.1 0-.4 0-.3.3 0 .2.2.4.3.4h1.3l.3-.3-.3-.3-.7-.1Zm1.6-3.5h.4l.3-.4-.2-.2a.8.8 0 0 0-.4-.2H49l-.2.4.2.3h.7Zm-2.3-.1c.2-.2.6.2.6-.4 0-.3-.2-.4-.7-.4-.2 0-.4 0-.4.4 0 .3.2.4.5.4Zm-1.6 2.9.6-.4v-.6H46l-.5.5v.4h.2Zm1.9 3.2.3-.3-.3-.3-.3.2.3.4Zm-2.1-1.8c.3 0 .6 0 .8-.3V32l-.8.4v.2Zm0-3.2.7-.5v-.2s-.1-.2-.2-.1c-.3 0-.5.3-.6.8Zm4.2 4.2-.4.4.2.2c.1 0 .3 0 .3-.2l-.1-.4ZM49 29v.2l.6-.1V29H49Zm-1.3-.2v.3l.5-.1v-.2h-.5Zm-.8-.4-.1.3.1.4.2-.3-.2-.4Zm-.6-2.3-.3.3.2.2.2-.3-.1-.2Zm3.6 4-.2-.2-.2.2v.2l.4-.2Z"/><path fill="#000" d="M46.4 20.1v-.4c.2-1 .5-1.3 1.3-1.3l1.7.2v-.4c0-1.2 0-1.2-.8-1.3l-.8-.1c-.5 0-.8.2-1 .7v-1c.1 0 .4-.2.5-.1l2 .2c.3 0 .3.1.4.4l.5 1c.7.7 1.1 1.7 1.5 2.7v.2c-.7.1-.7.1-.3.8l1 1.7c.2.1.1.4.1.5l.2.7.4-.3v9.4l-.1-.4v-7c0-.4-.2-.8-.5-1.1-.6-.6-1.1-1.3-1.9-1.6a6 6 0 0 0-1.2-.3c-.7-.1-1.5-.1-2.2-.3-.7-.1-1 .5-1.5.7l-.6.7c-.3.3-.3.6-.3 1-.3-.2-.3 0-.3.3V31.4 27l-.2-2.9.1-.5 1.4-1.3-.1.6c.1 0 .3 0 .4-.2h.1c.3-.6.7-.6 1.2-.5l2.4.3 1 .3c0-.6 0-.7-.5-.8l-2.8-.5c-.7-.1-1.3 0-1.7.9l.6-2.2V20.9l.5-.4c0-.3-.3-.4-.5-.4Zm2-.2h.7l.3-.2-.2-.2a38 38 0 0 0-2-.3l-.3.2.3.3 1.3.2Zm2.3-.7-.7.3v.4c.4 0 .4.5.5.9l.3.2.1-.3v-.9c.2-.3.1-.5-.2-.6Zm-3 .7h-.3c-.2 0-.4.1-.3.5l.3.2 1.1.1.3-.2-.2-.4-1-.2Zm1.8 1 .2-.4-.3-.3-.3.3.4.4ZM18.1 58.9V49.6l.2-4.4V38l-.2-.2-.1.2v.5l-.2 3.4c0 .3 0 .7-.3.8l-.2.4c.3.5-.1.9-.1 1.3l-.2.3c-.5.1-1.1-.5-1.2-1v-.2l.1-7.5c0-.5.2-1 .5-1.2l.9-.7c.6-.4 1.4.2 1.3 1a1649.3 1649.3 0 0 1-.2 15v8.7H18Zm-1.7-14.7h.3v-8.5h-.2c-.2 2.8 0 5.6 0 8.5Zm1-3.5-.1 1.2.1.3.2-.4-.1-1.1Zm.3-1.2-.2-.5-.2.5.1.5.3-.5Zm.8-2.4-.2-.2-.4.2.2.2.4-.2Zm-.7-2.4-.2.3s.1.1.1 0l.2-.1-.1-.2Z"/><path fill="#000" d="m52 38-.5-.4c-.2 0-.4-.2-.4-.5v-4l1.4 1 .2.8a398.5 398.5 0 0 1 0 15.5v.6l-.4-1.4a1 1 0 0 0-.6-.7l-.5-.3-.1-.3.1-2.7v-6.5c0-1.1-.1-1.1.8-1Zm0 10.3.2-.3c-.1-.1-.2-.3-.4-.3l-.1.2.4.4Zm0-2.5-.2-.2-.1.1v.2h.3ZM51.1 18.1H51c-.4-.3-.9-.5-1-1.2v-3.7l-.3-.7c-.3 0-.3.4-.3.7v2c0 .3 0 .7-.3.7-.4 0-.3-.4-.3-.7l-.2-3.7c0-.7-.3-1.4-.7-2a15.5 15.5 0 0 0-6-6c-.3-.1-.7-.2-.6-.6.2-.4.5 0 .7 0 2.4 1.3 4.5 3.2 6 6l.8 1.1c.2.5.5.7 1 .5.4-.1.6 0 .9.3l1 1.4c.2.2.4.6.4 1a165.3 165.3 0 0 1-.2 5.3c-.3.2-.5 0-.5-.5v-5.5H51V18Zm-.6-5.5c.4-.5.5-.6 0-1v1Zm-.2-1.7H50v.6h.1V11ZM43.5 31.7l-1.2-.5-.1-.1c.5.2.6-.1.6-.5v-5.2c0-.7-.2-1.1-.7-1.2V24c.2 0 .5.3.6-.2 0-.5 0-.9-.5-1l-2.5-.8-.1-.2 2.2.6c.9.3.9.3.9-.9v-2.8c0-.8 0-.9-.7-1.1l-3.8-1.2c-.3 0-.5-.2-.7-.3l4.6 1.3c.5.1.5.1.5-.4v-2.5c0-.4-.1-.7-.5-.8l-.8-.3v-.2l.8.3c.3.1.5 0 .5-.4V7.9c0-.4-.3-.6-.6-.7-1.9-.9-3.8-1.4-5.8-1.8h-.3c0-.2-.2-.3-.3-.4l.4-.1c2.4.4 4.8 1.1 7 2.3.7.3.7.3.7 1.3v8.6c0 .7.3 1.1.8 1.3l.6.2.5.2v.2l-1.2-.5c-.5-.2-.6-.1-.6.5v10.1c0 .6-.1 1.1 0 1.6 0 1 0 1 .6 1.2v.2l-1-.4.2-.6v-6.4c0-.6.2-1.2-.4-1.6.3 0 .4 0 .4-.4v-4c0-.5-.2-.6-.5-.6s-.2.3-.2.6V22c0 .5 0 .8.4 1-.3 0-.4.1-.4.4-.1.8.3 1 .7 1.2-.7-.1-.7-.1-.7.8v5c0 .5.1 1 .6 1.2ZM43.2 14c-.1.2-.3.3-.3.5v2.8c0 .4.2.6.5.5l.1-.5V8.4c0-.3-.1-.7-.4-.6-.4 0-.2.3-.2.6v4.8c0 .4 0 .7.3.8ZM51.1 24.4c.4.4.9.7 1.2 1.2a612.9 612.9 0 0 1 .3 7.5c0 .5 0 .6-.4.3-.8-.5-1.2-1.4-1.2-2.5v-6.4l.1-.1Zm.5 4.9-.2.2.6.6.1-.2-.5-.6Zm0-2.6-.1-.2v.1c-.1 0 0 .1 0 .1h.1ZM53.3 60.9l.2 1.2v8.2l-.1.4c-.2 0-.3 0-.4-.2l-.5-1.3c-.1-.6-.4-1-.9-1.3-.3-.2-.4-.5-.4-1v-1.5c-.1-.4 0-.5.3-.6.3-.1.2.1.3.3.1.2.4.2.6.2.2 0 .4 0 .4-.4l-.1-1.5v-1l.5-1.5h.1Zm-.6 6.5v-.2c-.2 0-.3-.2-.4-.1-.2 0-.3.2-.4.4l.4.2.4-.3ZM13.7 36.5l-.1 1.4V44l-.1.8c0 .3-.1.6-.3.7-.2.2-.6-.4-.7-.7v-.2l.1-8.5.1-.5.4.3.6.6ZM37.3-2.5l-1.6-.4-2.3-.4c-.3 0-.5 0-.5.5v.5c0 .4-.1.5-.4.5h-2.2c-.3 0-.4 0-.4-.4l-.1-1h-.9c-1.9.4-3.8 1-5.6 2a3 3 0 0 1-.6.3C24.9-3.5 34-4.6 37.3-2.6v.1Zm-6 .4h1c.2 0 .3-.3.3-.6 0-.4 0-.7-.4-.7h-1.6c-.2 0-.3.2-.4.5 0 .7 0 .8.6.8h.6ZM22.2 28.5l.2-1V20c0-.3 0-.5.2-.7.1 5.3.1 10.6-.2 15.9l-.1-.7.2-3.6v-2c0-.4-.1-.4-.3-.4ZM11.8 14.6c.5.6.9 1.3.8 2.3l-.1 2c0 .3 0 .6-.3.6-.4 0-.3-.4-.3-.6v-1.1c0-.3.1-.5-.2-.6v-2.5h.1Z"/><path fill="#F75049" d="M45.8 22.3c.4-.8 1-1 1.7-.9l2.8.5c.5.1.5.2.4.8l-1-.3-2.3-.3c-.5 0-.9 0-1.2.4l-.1.1-.4.2v-.6Z"/><path fill="#000" d="M18.5 28.8c-.5-.5-.4-1 .2-1.6v6.5c-.4 0-.5-.3-.5-.6v-3.6l.3-.7Z"/><path fill="#F75049" d="M47.2 35.6c0-.2-.3-.5 0-.5H50.2c.2 0 .3.2.3.5l-.4.3-2.7-.2-.1-.1Z"/><path fill="#000" d="M27.3-4.4c3-.8 6-.8 9 .2-1.6-.2-3-.5-4.5-.5l-4.5.3ZM19.3 2.4c.9-.8 1.8-1.5 2.9-2v.2l-2.9 2v-.2ZM21.5 31.4v3.8a11 11 0 0 1 0-3.8ZM34.7 11.8l3.5.5v.3l-3.5-.7v-.1ZM22.7 57l-1-1.7c-.1-.3.1-.1.2-.1.4.5.8 1 .8 1.8ZM18 61.3v-1c0-.1 0-.3.2-.3l.1.2c.1.4.3.8-.3 1.1ZM57 61.3c-.2.2-.3.5-.4.4l-.3-.4c0-.2.2-.3.3-.5l.4.5ZM19.5 11.7l.3-.6c.3 0 .1.5.2.7l-.2.6-.2-.5v-.1ZM46.3 16 44 15v-.3l2.2 1.2v.2ZM19 62.4v-2 2Z"/><path fill="#F75049" d="M46.4 20.1c.2 0 .5 0 .5.4l-.5.4V20.1Z"/><path fill="#000" d="M23.4 28.2v1-1ZM20.8 29.5l-.9.8V30l.8-.7v.1ZM48.2 15.6v-1c.2.4.2.5 0 1ZM20.7 25.4v-1.6 1.6ZM22.8 24.6l1.2-.4v.2l-1.2.2ZM18.3 12.1l.1-.7h.2v.8h-.3ZM19.5 58.6l-.5.2v-.2l.4-.2v.2ZM18.2 61.9v.6H18v-.6h.1ZM22.2 28.5l-.9.7v-.1c.2-.3.5-.5.9-.6ZM25.3 21.7l1.1-.7-1.1.7ZM25.2 18l-.8.1V18l.8-.2v.1ZM19.1 28.3l-.5.2.5-.4v.2Z"/><path fill="#000" d="m26.4 21-8 8.1.1.2c-.2.3 8.2-8.3 8-8.3ZM57 55.5l.4-.3.1.1-.3.4-.1-.2ZM36.6 32.8l-.8.2v-.2h.8ZM51.6 63.6l-.4.7v-.1l.5-.4v-.2ZM35.2 14.5l.7.8-.7-.8ZM30.5 26.8h.5-.5ZM26.2 20.3l-.5.4v-.1l.5-.3ZM50.5 47.5l-.1-.3h.1s.1 0 0 .1v.2ZM35.2 14.5l-.6-.6.6.6ZM21.6 29.5l-.2.3v-.1l.2-.3v.1ZM43 32v.5h-.1v-.4ZM52.2 21.8l-.1.2-.1-.2v-.1l.2.1ZM22.5 27.2v.3-.3ZM35.9 15.3l.3.7-.3-.7ZM26.2 20.3l.4-.3v.2h-.4ZM24.6 22l.7-.3-.7.2ZM22.5 57.6v.1-.1ZM46.4 36l.3.4c-.2 0-.3-.2-.3-.5ZM46 18.3ZM19.1 24.4ZM26 23.9h-.1ZM17.8 44.7v-.1ZM48.4 68.2V68ZM24 25.7ZM37.5 16l-.4.1h.4ZM19.7 17.2s-.1 0 0 0V17v.2Z"/><path fill="#F75049" d="M52 52.6c.4.3.2.7 0 1-.2.7-.1 1.2.2 1.7.4.5.4 1 .1 1.7v.9c.3.5.3 1 .3 1.5v.8c0 1-.3 1.8-1 2.3l-.4.4.2-.4c.1-.5.4-.9.1-1.5l.2-1.2c0-.4.3-.7.3-1l.1-1.4c-.4.4-.5.8-.4 1.2 0 .4-.1.8-.5 1l-.2-.3.5-2.5.4-.7c.3-.4.3-.7 0-1-.3-.3-.7-.6-1-.6H48.2c.3-.5.7-.8 1.1-.8.7-.1 1.4 0 2-.6l.7-.5ZM48.8 48.7c.6-.7.6-.7 1 0 .3.2.4.4.8.4.5 0 .7.3.7 1v.3c0 .3.2.7-.1.8-.4.1-.8-.2-1-.6-.1-.7-.5-1-.9-1.5l-.5-.4ZM49.4 45l-.3-.7c-.1-.5-.3-.5-.6-.3a1 1 0 0 1-.4.2l1.3-1.6.3.1v1l-.3 1.4ZM40 30.4h.6v.2l-.6-.2ZM17.6 15l.4-.5v.1c0 .2-.2.3-.3.5v-.2ZM18.4 14.1l.3-.2-.2.3Z"/><path fill="#000" d="M1 32.7v2.5-2.5ZM1 36.8v.5-.6Z"/><path fill="#F75049" d="m22.5 3.5-.1 5.2v1c0 .3-.2.5-.4.6l-1.5.3.4-.6c.5-.3.6-.8.6-1.4 0-.4 0-.7.3-1L22 7V4.3c0-.4.2-.7.5-.8ZM15 30.5h-1c-.2 0-.4 0-.4-.3 0-.4.1-.5.4-.5h2.3c.2 0 .3.2.3.5l-.3.3H15ZM22.5 16v2.1c0 .3-.2.5-.4.5l-.2-.5v-1.2c0-.4.2-.7.6-.8ZM20.5 12.5c0-.5.3-.9.6-1.1 0-.1.2 0 .4 0l-.1.4-1 .7ZM23 1.5l-.5.5-.4-.5.3-.3.6.3ZM22.2 11.7l-.2-.4.4-.4.3.3-.5.5ZM18 20.4l-.2.2-.1-.1.1-.2.2.1ZM20.8 3.3v-.4l.1.1v.3ZM21.7 1.8V2h-.1l.1-.2ZM15.8 24.1V23.8 24ZM21.3 2.6l.1-.1v.2-.1ZM47.3 30.7l-.2-.2c-.2-.2 0-.5.2-.5h1.2l.3.5c0 .4.2.4.4.4h.5c.3 0 .4.2.4.5s-.2.3-.4.3l-2.3-.2c-.2 0-.3-.2-.3-.4l.2-.4ZM49.4 33.6l-1.9-.1c-.1 0-.4 0-.4-.3l.4-.3c.9 0 1.7.2 2.5.3l.3.2-.3.2h-.6ZM48 26.5l-.9-.3-.2-.4.3-.2 1.8.2c.2 0 .3.2.4.3l-.3.3h-1ZM47.5 24.8c.6 0 1.1 0 1.6.2l.3.3-.3.2-1.8-.1-.3-.4.3-.2h.2ZM48 32h.7l.3.4-.3.3h-1.3c-.1 0-.3-.2-.3-.4 0-.3.2-.3.3-.3h.6ZM49.6 28.5l-.7-.1-.2-.3.2-.4h.8l.4.2.2.2-.3.3c-.1.1-.3 0-.4 0ZM47.3 28.4c-.3 0-.5-.1-.5-.4 0-.4.2-.4.4-.4.5 0 .8 0 .7.4 0 .6-.4.2-.6.4ZM45.7 31.3l-.2-.1v-.3l.5-.6h.4l-.1.6-.6.4ZM48.2 36.6l.5-.2c.5 0 1 0 1.5.2-.7.4-1.3.1-2 0ZM47.6 34.5l-.3-.4.3-.2.3.3-.3.3ZM45.5 32.7v-.2l.8-.4v.3c-.2.3-.5.4-.8.3ZM45.4 29.5c.1-.5.3-.7.6-.8h.2v.3l-.8.5ZM49.7 33.7l.1.4-.2.2-.3-.2.4-.4ZM49 29h.7v.2H49v-.1ZM47.8 28.9h.5v.2h-.5V29ZM47 28.5l.2.4-.2.3-.1-.4.1-.3ZM46.4 26.2l.1.2-.2.3-.2-.2.3-.3ZM50 30.2l-.3.2-.1-.2.2-.2.2.2ZM48.5 19.9l-1.3-.2-.3-.3.3-.2c.7 0 1.3.2 2 .3l.2.2s-.1.2-.3.2h-.6ZM50.7 19.2c.3 0 .4.3.3.6-.1.3-.2.5 0 .9l-.2.3-.3-.2c0-.4-.1-.8-.5-1v-.3l.7-.3ZM47.7 20l.9.1.2.4-.3.2h-1c-.2 0-.4-.2-.4-.3 0-.4.1-.5.3-.5h.3ZM49.5 21l-.4-.5.3-.3.3.3-.2.4ZM16.4 44.2l.1-8.5h.2v8.5h-.3ZM17.5 40.7l.1 1.1-.2.4-.1-.3v-1.3h.2ZM17.7 39.5c0 .2-.2.3-.3.5l-.1-.5.2-.5.2.5ZM18.5 37l-.4.3-.2-.2.4-.2.2.2ZM17.8 34.7l.1.2-.2.2V35l.1-.3ZM52 48.3c0-.2-.2-.3-.3-.4l.1-.2c.2 0 .3.2.4.3l-.1.3ZM52 45.8H51.7l.1-.2.2.2ZM50.5 12.6v-1c.5.4.4.5 0 1ZM50.3 10.9v.6H50v-.6h.3ZM43.2 14c-.3 0-.4-.4-.4-.8V8.4c0-.3 0-.6.3-.6s.3.3.3.6l.1 5.5a166.7 166.7 0 0 1-.1 3.9c-.3 0-.5-.1-.5-.5v-2.9l.3-.4ZM43.5 31.7c-.5-.2-.6-.6-.6-1.2v-5c0-.9 0-1 .7-.8v6.4c0 .2 0 .4-.2.6ZM43.3 23.1c-.3-.2-.4-.5-.4-1v-3.4c0-.3-.1-.6.2-.6.3 0 .5.2.5.5v4c0 .4-.1.5-.4.5Z"/><path fill="#F75049" d="M43.2 23.1c.6.4.4 1 .4 1.6-.4-.2-.8-.4-.7-1.2 0-.3.1-.4.4-.4ZM51.6 29.3l.5.6v.2l-.7-.6.2-.2ZM51.6 26.7h-.1s-.1 0 0 0v-.2l.1.2ZM52.7 67.4l-.4.3-.4-.2c.1-.2.2-.4.4-.4l.4.1v.2Z"/><path fill="#000" d="m46.5 39.3-.2-1.5c0-.3 0-.6.2-1v2.5ZM23.2 34h-.6.6ZM36.1 45.7ZM36.7 39.5V39h.2l-.2.3Z"/><path fill="#F75049" d="M18.5 84.5h13.7l.6-2.2h1l1 2.2 15.7-.1v-5.5l-.2-1.2c-.2-.8-.6-2.7-.3-3 .3-.1.7-1.4.7-2 .1-.5-.2-2.9-.2-2.9l-.6-5.5-.5-2.2 1.7-1.2c.5-.4.7-1 1.3-1.6.6-.6 1.3-.7 2-1.5.2-.4 1-.9 1.2-1.2l1.3-1.9c.5-.8.7-1 .7-2l.2-2v-2.3c0-.8.5-2.4 0-3-.7-.9-.6-2.2-1.1-3.2-.4-.7-1.2-1-1.1-1.5 0-.5.5-1.8.3-2.3-.2-1-1-3.3-1.7-4.1-.5-.5-1.1-2-1.6-2.4-1.1-.8-3-1.3-4.3-2-1.2-.8-1.8-1.6-2.7-2.8-.5-.6-1.4-1-2.2-1.2L40 24.8l.2-1.5s.5-.1.8-.5c.4-.4.3-1 .4-1.4l.2-1.3c.2-.6 0-1.3-.6-1.4 0 0-.7-.3-1.3 0 0-.3.3-.8.3-1.5 0-.6 0-2.3-.4-2.8s-.9-1.3-1.4-1.6c-.4-.3-2.4-1-4-1-1.5 0-2.7.7-3.7 1.8-.4.4-.6 1.2-1 2-.3.9-.3 2.4-.3 2.6 0 .2-.7 0-.9.3-.2.3-.2.6-.3 1V21l.4 1.5.8 1.1c.3.3.7.5 0 .8-.9.4-2.5 1-3.2 1.5L23.9 27c-.6.4-1.2 1.2-2 1.8l-2.5 1.5c-.5.2-1.5 0-2.5 2-1 1.9-2.2 4.7-2.2 5.7s-1 2-1.2 2.6c-.1.6-1.7 4.3-2 5-.1.7.1.7-.3 1.7s-.9.7-1 1.6c-.3.8-.2.6 0 1.4 0 .9-.3 1.2.3 2.3l1.4 2.3 1.7 1.9 1.6 1.2c1 .7 2 1.3 2.5 1.8.4.5 1 .7 1.3 1 .4.2.8.8.8.8s-.7 1-.4 1.3c.3.3 0 1.3 0 1.3l-.6 2.1-.2 4 .2 1.2v1.8l-.3 2v9Z"/><path fill="#0E0E17" d="m43.2 27.3-.5-.2-2.6-1a926.6 926.6 0 0 0 1.6.2h.1L38.5 25l-1.4-.2c1.2 0 1.2-.2 1.2-.5 0-.6.2-1.2.2-2.6.1-1.5.5-2.7.6-2.5 0 .4.2 2 1 1.4l.3-.5v1l-.2.9h.2c0-.5.3-1 .3-1.6 0-.5 0-1-.8-1.2.7-.2.7-.2.8.3.3.9.4 1.8-.1 2.6l-.2.3c0 .4-.1.6-.5.5-.4 0-.4.1-.4.4l-.2 1.8 2.6.7c.8.2 1.6.5 2.1 1.1l1 1.4c0 .3.2.5.4.6.1.2.4.2.4.4.1.3.4.3.7.4l3.8 1.9.1.1-.4.2-1.2-.8c-.6-.5-1.5-.7-2.3-1H46c-.3 0-.5.2-.7.3-.5.2-1 .3-.7.9v.2l-1 1.5c-.2.4-.4.8 0 1.2V35.1l.4-.4L45 36v-.7h.2l.5.8 1.4 2.3.5.3.1-.7v-.4c-.4-.9-.8-1.8-1-2.7l-.3-2.4.1-.3.3.1c.2.4.5.8.5 1.2 0 .5.1 1 .5 1.3l.6.9h.2l-.3-2.5c1 .6 1.4 1.5 1.4 2.5l.4-1c0 .3 0 .7.2 1l.7-1 .2.1-.1.7-.6 2v.7c.7-.6 1-1.4 1.6-2.2l.6.8c0-.2.1-.3 0-.4 0-1.1-.4-2-1-3l-.1-.1c-.3.1-.3-.1-.4-.3l-.3-.3-.6-.4h.4c.4 0 .7.1 1 .4l.6 1.3 1.2 2.8c.4.8.5 1.7.3 2.5a4 4 0 0 0 .4 2.8c-.6-.3-.7-.7-.7-1.1l-.3-1.5.3-1.1v-.8l-.2-.1-1.5 1.3.4-.1c.3-.2.6-.2.7.2l.3.6c-.3.5 0 1 0 1.3 0 .8.5 1.3 1.2 1.6.7.3 1 .7 1.1 1.5 0 .4.4.9.6 1.3.3.4.5.8.3 1.4l.1 1c.2.6.5 1.2.1 1.8-.2.3 0 .6.1 1 .5 1 .3 2.2-.3 3.2-.3.5-1 1-1.4 1.4h-.4l-.1-.1s-.1.2 0 .2c.2.3 0 .5-.2.7l-.7.4-2.1 2 .1.2 3-2.7h.2l-.7.7a164.5 164.5 0 0 1-2.8 2.4c-.6.2-1 .5-1.3 1-.2.2-.4.3-.7 0H49l.3.3c-.4 0-.8.3-1-.3l-.5-.2c0 .2.2.3.3.5l-.5-.1v.4l.7 4.2.3 1.5.2 2.6-.1.3-.2.5-.1.3c-.5.3-.4.7-.4 1 .1 1 0 2 .5 2.9v5.3H35.5l-.7-1.6-.3-.3a6 6 0 0 0-1.2 0l-.3.4-.4 1.6h-10l1-1.1v-.1L22.3 79h-2.6c-.4-.9 0-1.8 0-2.7l.2-2c0-.4 0-.6.3-.7.3 0 .4-.3.4-.6v-2.8c.1-.4 0-.6-.3-.9-.4-.2-.7-.5-.6-1.1v-2.3c.4-1.2.5-2.5.6-3.8l.3-1.3c0-.3 0-.5-.3-.6-.5 0-.7-.3-.6-.7 0-.3-.3-.4-.5-.4l-1.1-.3c-.3 0-.5-.2-.6-.6l-.5-.4-1.6-1-.3-.4.3-.1h.3V56l-1.5-1c-.1-.2-.3-.3-.4-.3-.7-.2-1.2-.6-1.6-1.2-.7-.9-.7-2-1.3-2.8v-1.1c.2-.8.6-1.5 1.2-2 .2-.2.3-.5.2-.8-.3-1 0-1.7.8-2.4.1-.1.3-.3.3-.5.2-1.5 1-2.9 1.7-4.2V39c0-.8.2-1.5.5-2.2l.8-2.2c0-.2.2-.3.3-.5l1-1.9.7-.6c1.2-.9 2.7-1.4 4-2l1-.2c.3-.2.5-.3.4-.7 0-.2.4-.5.6-.7 0-.2.3-.2.5-.2-.2 0-.3.2-.5.3v.1h.5l3.3-.8 3.3-.4c-.3.5-.6.6-1 .6l-2 .5h-.5c-.8 0-1.5 0-2.2.2l-1.3.3 6.3 2.3c.2-.8-.4-1.8.4-2.5.1.1 0 .4.3.4h5c.3 0 .6-.1.3-.7.8.8.8 1.6 1 2.5l1.6-1.4c1 0 2 0 3-.2L44 29c-1-.5-2-1-3.2-1-1.1 0-2.3-.3-3.4-.4-.3 0-.4-.2-.3-.4l.3-1.2 5.8 1.4.6.2v-.1h-.6Zm2.1 17.8v.6h.1V45l-.1-.5h-.1l.1.5Zm-.4-2.7-.1.4v-1l-.2-.3-.5-2.8a3.3 3.3 0 0 0-2.7-2.7l-.3-.1-1.2-.4c-1-.2-1-.2-1.2 0l1.2.2c-.3.6-.3.6-.8.3l-.6-.2c.4.5 1.4.4 1.2 1.4.3-.7.5-1.3 1.4-1.3l.7.4c1 .3 1.6.9 1.9 1.8l.7 2.7c0 .3.2.7.4 1l-.2.8.3-.2Zm-13.1 1.1-.3-.6-.2.1.4.5c.1.3.4.5.7.5l-.6-.5Zm-2.4-7c.1-.8.7-.6 1.2-.7v-.2l-1.2.2.7-.4c.4-.2.5-.3.3-.7l-.9-1.5c-.4-.8-1.1-1.2-2-1.6h-.3c0 .3.2.5.3.7l1.5 3.2.4.3-.4.4v.6s.4.1.5-.2h.3l-.4-.2Zm-1 12.7a7801.4 7801.4 0 0 0 3.5-1.6l-2 .8-1.5.8-.4.2h.1l.3-.2Zm14.1-10.8-.2-.7c-.2-.5-.4-.7-1-.6l.6.8.5 1.3c0 .3.3.4.5.7l-.2-1-.2-.5Zm-3-3.6v.3h-.4.5c.1.4.6.3 1 .4.2 0 .3 0 .5-.3l3-4.6 1-1.2c-.4-.4-.7-.3-1.3 0l-2.7 3c-.5.5-.9 1.2-1.6 1.4-.3.1-.4.5-.5.8 0 .1.3.3.6.2Zm0 3.6h-.4.4l.4.2c1.5.5 2.4 1.5 2.7 3 .1.2.4.6-.2.7v1.9l.1.4.3-1c.4-1 .3-1.8 0-2.6a10 10 0 0 0-1.1-2.2c-.6-.9-1.6-1.2-2.6-1.5-.8-.2-1.6 0-2.4 0l-3.5-.2H30c-.1-.3-.3-.1-.4 0H29c-1 .1-1.6.6-2 1.3-.7.8-.9 1.7-1.3 2.5l-.5 1.3-.1.5h.1v-.5l.5-.9c.7-1.4 1.7-2.5 3.3-2.8l1.8-.3 1.3-.2v-.2h-1.5l2.4-.3h2.5c1.4-.2 2.8 0 4 .6l1 .4h-1.1Zm-1.2.4c-.8-.2-1-.2-1.6.4l-.9.9c-.2.1-.4.3-.7.3H33a.9.9 0 0 1-.5-.2l-1-1c-.2-.3-.4-.5-.8-.3-.5 0-.6.4-.8.6-.4.4 0 .6.1.9-1.4.2-2 1.3-3 2.2l-.3-.7v-1.3c-.8.7-.7 1.7-.8 2.6l.3-.7c.7.5.3 1.2.2 1.8l.3-.5c.8-1.6 2.2-2.5 4-2.7 2-.3 4.1-.3 6.2-.2 1.4.1 2.7.4 3.9 1.2l.3.1-1-1.8c-.2-.6-.5-.9-1.1-.9-.4 0-.4 0-.3-.4v-.3h-.3Zm-13-2.2-.2-.2.5-1.4c.5-.8.5-1.5.4-2.3 0-.3-.1-.5 0-.8 0-.5-.5-1.4-1-1.7-.2-.8-.4-.9-1.2-.6l-.6.2-.7.3c-1.3.4-2.5.7-3.4 1.8H19c-.3 0-.3 0-.2.2l.3 1 .3 2.9.2.7c.2-.6.2-1.4 1.2-1.6l-.5 3.2 1.6-4.6c.4 1.7-.1 3.2-.8 4.7.8-1 1.2-1.8 1.3-2.9l.3-1.6c.1-.4.2-1 .5-1.3.4-.4.6-1 .8-1.5l.3-.4c.1.9 0 1.4-.2 2l-.4 1.2-1.2 4-.4 1.5h.2c.5-.5.8-1.3 1.2-2l1.5-2h.1c0 .8-.7 1.4-.7 2l1-.8 3-1.4a6 6 0 0 0-3.1 1.4Zm-9 3.2c-.2 0-.3-.2-.4-.3-.2-.1-.3-.2-.4 0l-.6 1.2c-.6 1.1-1 2.4-1.1 3.7v.6c1-.7 1.1-.7 2-.7h.6c.3 0 .4-.2.2-.3-.5-.5-.8-1.2-1.5-1.6l-.2-.2.4-1.6c0 .5.3.7.7.8l1.5.5.9.3c-.6-1.2-1.8-2-2.1-3.3h.1l2.3 1.4c-.1-.3-.3-.6-.6-.8l-1-.7-.3-.6h.9l-.8-.7c-.4-.3-.4-.6-.3-1 .1-.4.3-.5.6-.2l1 1c0 .2.2.4.4.6h.1L18 36l-.4-1 .2-.3c.3-.3.5-.1.7.2l.4 1.3a7 7 0 0 0-.3-4.3l-.6.6c-.5.9-1 1.7-1.3 2.7l-1 2.5v.7c.3.4.4.9.6 1.3Zm10.5 9.5.1-.2 1-1.7a3.6 3.6 0 0 1 3-1.8 245.7 245.7 0 0 1 7.6 0c1.3.3 2.1 1 2.7 2l.4.9c0-.8-.5-1.3-.8-2a3.3 3.3 0 0 0-3-1.8h-6.1c-1.5 0-2.7.6-3.6 1.6a6 6 0 0 0-1.3 2.9v.1Zm29.3-3.6-.7.4c-.7.4-1.4.4-2.2.4-.5 0-.8.3-1.1.7H55c.3 0 .7.2 1 .4.3.3.3.6 0 1l-.4.5-.6 2 .3.3c.4-.1.5-.4.4-.8 0-.4 0-.7.5-1v1.2l-.4.8c-.1.3-.3.8-.2 1 .3.5 0 .8-.1 1.2l-.3.4.5-.4c.8-.4 1-1.1 1-1.9v-.6c.1-.5 0-.9-.2-1.3 0-.2-.1-.6 0-.8.3-.5.2-1-.2-1.4-.3-.4-.4-.8-.1-1.3.2-.2.3-.6 0-.8Zm-8 8.9c.2-.5.5-1 .2-1.5v-.3l.6-.7c.2-.2.2-.4 0-.7-.1-.5-.2-.9 0-1.3v-.5l-1-1.6c0-.1 0-.3-.2-.4h-.1v.5l-.1 3.3v1.8c0 .3.1.5.5.2v1.2Zm-.8 10c.2.6.7 1 .2 1.5v.3c.4.5.4 1 .5 1.5l.3.3.1-.3-.7-4.6-.2-1c-.3.7.1 1.3-.3 1.8a4 4 0 0 1-.2-1l-.1-1.3-.2-.3-.2.3.1 3.8c0 .3.2.5.3.7h.1l.3-1.7Zm-20.6-5c-.4 0-.2.5-.3.5 0 .7-.1 3.2.1 4 .1.3.5.5.9.6l2.1.3a421.2 421.2 0 0 0 11.8 0c1-.2 1.3-.6 1.3-1.4v-4c-.2 0-.5 0-.5.2v3.5c0 1-.1 1-1.1 1h-1l-9.6.2c-.8 0-1.5 0-2.3-.2-1-.2-1.2-.3-1.2-1.3l.2-3s0-.3-.4-.3Zm-5.2 14.9 3.3.6V75l-2.9-.7 1.7-.8-.2.6.8-.2-2.3-2.1-.5 2.4h-.2l-.2-1c-.2.5-.4 1 0 1.5.5.4 1 1 1.8 1-.5-.4-1-.6-1.3-1.2Zm-6.3-25.1v-.1l-1.4-1.8-.2-.4.5-.2 1.5.5h.5l-.3-.3c-.5 0-1-.2-1.4-.3-.8-.2-1-.6-1-1.4v-.8c-.6.4-.8.9-1 1.4v.4c.4.6.6 1.3 1.1 1.8.5.6 1 1 1.7 1.2Zm6.5 4s0-.2-.2-.3c-.4-.4-.4-1-.2-1.5v-.5c.2-.9.2-1.8.2-2.7l-1 .8c-.1 0-.2.3-.1.4.4.4.2.8 0 1.2l-.2.3c.3.4 0 .5 0 .8l-.2.3c.5 0 .4.5.7.8.3.2.5.6 1 .5Zm10-21v.2l.5-.6c.5-.4 1.1-.7 1.8-.7h1.5c.4 0 .7.2 1 .6l.6.8c0-.6-.5-.8-.7-1.3.2 0 .4 0 .5-.2l.7-.8-.1-.4h-.4l-.6.5c-.6.6-1.3.7-2 .7-1 0-2 0-2.6-.7l-.1-.2c-.3 0-.6-.4-.7-.1-.2.2.1.6.2 1l.4.1.5.3-.6.8Zm21 10 .5.4c.5.3.9.6 1 1.2.2.4.7.6 1 .5.4-.1.2-.5.2-.7v-.3c0-.5-.3-.8-.8-.8-.4 0-.6-.1-.8-.3-.5-.5-.5-.5-1.1 0Zm-19.2.7c0-.6-.4-1.2-1-1.2-.4 0-.9.4-.9.8 0 .5.7 1.1 1.2 1.1.4 0 .7-.4.7-.7Zm-22.2 7.6 1.2 2.6c.2.4.6.6 1.2.6-.5-.6-1.2-1-1.5-1.8l1.2.1h.2l-.1-.3c-.6 0-.8-.4-1-.8-.3-.3-.6-.5-1.2-.4Zm2.4-.8c-.2-.3-.5-.5-.6-.8-.4-.4-.8-.9-.4-1.5-.4.2-.6.4-.6.8l-.1.4c-.3.4 0 1.3.4 1.3l1.3-.2ZM47.3 71c0 .2 0 .6-.2.9-.2.4-.2.7.1 1 .5.5.5 1 .2 1.6l-.4 1.2.4-.4.5-1.3c.2-.3.1-.6 0-.9l-.6-2ZM36 43c.8 0 1 0 1.2-.6.1-.3 0-.4-.3-.4h-1l-.6.1c-.2.3-.2.6-.1.9h.8Zm-.3 3-.5-.2h-4c-.9 0-1.7.4-2.4 1l-.2.4c.9-.6 1.7-1 2.7-1.1l3.5-.1h.9ZM22.5 69.4c0 .4.1.7.6.7l2.3.1h1v-.1l-4-.7Zm14.4-32.7h-5c.7.3 4 .4 5 0ZM22 78.5c.2-.5.7-.4 1-.6.3-.3.7-.4 1.2-.7l-1.3.2-.3-.6c-.4.5-.6 1-.7 1.7Zm12.6-34.8v-.1l1.7-.1h.9l.2-.3-.2-.1c-.6.2-1.2.1-1.7 0l-.8.2c-.4 0-.3.3-.3.5 0 .3.2.3.4.2h.4v-.2h-.6Zm-8 27.2-3.6-.6c.4.5 2.3.8 3.6.6Zm2-34.6c-2.8.2-4 1.6-3.6 4.2v-.7c0-1.7.6-2.5 2.3-3l1.3-.5Zm19 33.4-1 .2c-.3 0-.4 0-.4.3v.5c1.6-.6 1.5-.5 1.4-1Zm-1.3-7.5H46c-.6.8-1.1 1.7-1.6 2.7h.1a10 10 0 0 0 1.7-2.7ZM17.9 44.1c-.3-.7-.7-1.4-1.7-1.6.4.8 1 1.2 1.7 1.6Zm29.3 33.3H47.5c.5-.2.6-.1.5.3l-.1.6h.2V76h-.2l-.7 1.5ZM26.6 53.7l-.3.2-.2 1.7.2.2.1-.3.2-.5V55c-.2-.3-.1-.5.2-.7V54l-.2-.2Zm9.6-15.6c-1-.4-2.8-.5-3.4-.1l3.4.1ZM24.4 50h.2c-.2-1.1.4-2.2 0-3.3l-.2 3.3ZM42.6 55h-.5v3.3h.5v-3.3ZM25.2 43.3H25l-.4.8c-.2.4-.2.4.1.8l.5-1.6Zm1.6 13.5c0-.4 0-.6-.4-.6-.2 0-.4.2-.4.4 0 .5.2.8.5.8.4 0 .3-.4.3-.6Zm19.5.4c.5-.3.4-.8.4-1.4-.6.4-.4 1-.4 1.4Zm-25 21.2.9-1.6c-.6.3-1 1-.8 1.6Zm24.2-31.8V50v-3.4ZM35 42.4l-.3-.3c-.4 0-.3.3-.3.5s0 .5.2.4c.2 0 .2-.4.4-.6ZM24.4 52v2l.1-.1-.1-1.9Zm20.9.2H45l-.4 1.5h.2l.4-1.5Zm-20 3.9H25c0 .2-.2.3-.3.5l.2.3.2-.2v-.6ZM36 43.8v.1l1 .1.2-.2-.2-.1h-1Zm-8.8 12.5.1-1.7h-.1v1.7Zm-5.8 14.4-.4-.3-.2.3.3.3.3-.3Zm.7-15.2.6.1-.4-.5-.2.4Zm-1.8 22.2-.1.2.7.6v-.1l-.6-.7Zm6-24.7-.1.2.4.3.2-.2-.4-.3Zm-10 3.9v.1l.6.2V57l-.6-.1Zm2.2 1.8v-.2h-.5l.5.2ZM43.3 63h.2l.3-.6h-.2l-.3.6Zm-3.8-26.3v-.1a134.6 134.6 0 0 0-.7.1h.7ZM23.5 59l.1-.1-.4-.2c0 .2.2.3.3.3Zm1.6-17v-.8h-.2l.2.8Zm20.8 14.6h-.2v.6h.2v-.6Zm-14.4-4.6-.3-.4c0 .2 0 .4.3.4Zm-8.9 5v.2l.2.2.1-.1-.3-.2ZM46.2 58l-.2.2v.2l.2-.4Zm-21.5-7.9v.1c.2 0 .3 0 .4-.2H25l-.3.1Zm20.6 1.3V51v.5Zm-25.1 8.2v-.4.4Zm3.3-3.7h-.3v.1H23.4Zm-2.7 13.3v-.3h-.1v.3ZM24 45.7h-.1l-.2.3h.1l.2-.3Zm2.8 7v.2h.4v-.2h-.4Zm16.3 22.1v.1l.4-.2-.4.1Zm2.5-14.6v.1Zm-22.4-5.1.1.1V55l-.1.1Zm22 .8v-.3.3Z"/><path fill="#0E0E17" d="M29.1 19.7c0 .8.3 1.8.8 2.4.7 0 .6-2 .5-3 .5.2.8 1.6 1 2.6 0 .5-.2 1.2 0 1.8.5.7.5.8 1 1-2.3.2-5 1.7-6.6 3l-.1-.2.1-.2a16 16 0 0 1 3.8-2.3c.8-.3.8-.3.8-1.1v-.5c0-.1 0-.3-.3-.2-.4 0-.5-.2-.6-.4l-.4-1.1a2 2 0 0 1 0-1.8ZM35.4 26.6l-1.7-1v-.2H35c.7-.2 1.2.1 1.8.4.1 0 .3.3.3.5 0 1-.4 1.3-1.4 1-.4 0-.7-.1-1-.3l-.2-.2.2-.2h.7ZM32.6 26.6l-5.9.6.2-.1c1-.5 2-1 3-1.3.3-.2.6-.2.9-.2 1 0 1.1 0 1.8 1Z"/><path fill="#0E0E17" d="M34.9 14.5c-1.7 0-3.8.8-4.4 2.3 0 .7-.4 1.3-.1 2 0 .3-.3.7-.6.6-.4-.2-.5 0-.7.3.1-.3 0-.8.7-.6l.2-.4V17c.5-3.5 2.8-4.3 4.9-4.3 2.1 0 4 1.4 4.4 3.5l.2 2.1-.2.7-.6-2.4c-.4-1.2-2.1-2.2-3.8-2.2ZM15.2 56.4l-1-1.3c-.2-.3 0-.2.1-.2.4.5 1 .9.9 1.5ZM32.4 27.2l-.5.5v-.1l.3-.6.2.2ZM39.5 29.3l-.9.2v-.2h1ZM55.7 54.8l-.5.5.6-.4-.1-.1ZM50 31.9l.4.4c-.2 0-.3-.2-.3-.4ZM52.3 58.5ZM45.6 60.2v.1-.1ZM25 30.2h-.6.6ZM38.3 38.8l-.9.7v-.7h.9ZM39 40h-.1ZM28 38h.7l-1 .5h-.2l.5-.5ZM28 38c0-.1.1-.3.4-.5l-.4.5ZM39.6 34.8v-.3h.2l-.2.3ZM32.9 43.4l.2-.5h.2a223.2 223.2 0 0 0-.4.5ZM42.5 38.4v.5-.5Z"/></g></g></svg>