<svg xmlns="http://www.w3.org/2000/svg" fill="none" viewBox="0 0 70 70"><g style="mix-blend-mode:lighten"><mask id="a" width="70" height="70" x="0" y="0" maskUnits="userSpaceOnUse" style="mask-type:alpha"><path fill="#D9D9D9" d="M0 0v70h70V13.8L55.2 0H0Z"/></mask><g mask="url(#a)"><path fill="#F75049" d="M17.7 11.3c-.9.3-6 .5-7.4 1-3 3.2-2.7 10.2-1.3 12.6.7 1.2 3 2.6 3.7 3.2.5.7.4 5.6.9 8.4.4 2.8.1 3.3 1.4 5.2.9 1.4 1.5 2 2.7 2.3 1.3.4 2.8 1.8 3.3 3 .4 1.4 0 5.4-1.4 6.8-2.8 1.4-13.2 8-14.5 8.6-1.4.6-2 6-2.1 6.5-.1.6.1 3.2 1 3.6.7.4 29 .6 31.2.4 2.3-.2 39.8-1 40.6-3.4.7-2.5-2.1-5.2-2.7-6.3-.6-1-2.4-3.3-3.6-3.8-1.3-.5-8.8-3-10.2-3.2a62.3 62.3 0 0 1-10.6-5.6c-.6-.8-1-2.3-1.4-3.3-.4-1-1.8-2.6-2.8-2.8-1-.3-1.3-6.2.5-8.4 1.7-2.2 3.2-6.4 3.2-7.5 0-1.1 1.3-4.6 1.4-6 .1-1.5-.3-8.3-5-11.8A42.4 42.4 0 0 0 33 6.2c-3.8-.8-6 .2-8.3 1-2.3.7-6 3.8-7 4.1Z"/><path fill="#0E0E17" d="M2 73.8V68v1H2c0-1 .3-.8.7-1.4.3-.6.3-1.3.4-1.9.2-.8.9-3.7 2-3.6 1 .2-.5 3.6-.7 4.2-.1.5-2.4 5.8-1.3 3.7.2 2 2.5.1 2.8.2.2-1.4.3-5.7 1.2-6.9 1 1.5-1.2 5.8.8 6.7.9.4 2.6-.6 3.1-1.5.6-.8.3-2.2 1-3-.1.8-1 2.6-.5 3.2.2.4 1 .5 1.3.6.8.2 1.6.5 2.3.9.7.3 2.7 1.7 3 1.4.7-.5.8-3.3-.3-3.1-.7-.7.5-8.1 0-8.1.2-1.5 1.1-3 1.8-4.4l-.1-.1c-2 1.2-3.6 3.1-5.7 4.3l-.2-.2 3.7-3.2h-.1l-1 .5v-.1l1.7-1.4-1.4.5c1-1 2-1.4 3.3-2 1.4-.6 1.4-1.5 1.8-2.8.4-1.4.2-3 .1-4.4 0-1.4-.6-1.8-1.9-2.4-1.2-.6-2.7-1.1-3.8-2-2.1-1.8-2.8-10.8-2.3-13.1 1.4.8.8 2.2.8 3.5 0 .8 0 1.7.7 2.3.5.4.6.5.6-.4 0-.8-.1-1.2.1-2 .2-.7.7-1.3.7-2 0-1.3-2-3.1-3.1-3.7-1-.5-2.8-1-3.8-2.2a5.4 5.4 0 0 1-1.3-3c-.2-2.2.3-7.2 2.1-8.7.6-.5 1.7-.4 2.4-.5l4.4-.5c2.3-.3 3-1.8 4.9-3C24 8.2 26 7.5 28 7.2a15 15 0 0 1 6.6.2c2.2.6 4.1 1.5 6 2.5 3.7 1.8 6.1 4.2 7.4 8 .5 1.6.6 3.2 1.3 4.7.5 1 .3 1.7 0 2.7 0 .3-.1.7-.3 1 0 .3-.1.5-.3.8h-.5c-.6.7-.4 2-.6 2.8a15 15 0 0 1-1 2.7c-1 2.2-2.5 4.2-2.9 6.6v2.9c.1.8 0 2.4.6 3.1.6.7 1.5.8 2 1.5.6.8.7 1.7 1 2.5 1.2 4.2 6.2 5.2 9.8 6.7l2.5 1 2.7.8 4 1.4 1.3.4.8.3c.2 0 .3 0 .4-.2.8.2 1.6.9 2.5 1.3 1 .4 1.9.8 2.7 1.4 2.2 1.7 4 4.4 5.8 6.6v4.7c0 .3 0 .4-.3.3H2Zm27.3-36.4 1.2.3.8.4h.5l.2-.4c.8.2 1.3-.6 2-1.2.5.7 1.8-.9 2-1.3V34c0-.4.3-1.4.2-1.8-.5-1.5-3.6.5-5 0-.7-.3-2-1.4-1.8-2.3.3-.9 2.4-1 3.2-1 2-.4 5.3-1.3 5.8-3.6.1-.7.7-2.8 0-3.4-1-.7-1.4.6-1.8 1.1a9.4 9.4 0 0 1-6.3 4c-1.3.2-2.9.2-4.2-.1-.7-.2-2.4-1.4-2.9-.6-.5.9 1.3 2 0 3-.9.5-2.3-.2-3.3-.2 0 .8.2 2.1-1 2.4.4-1 .5-2-.7-1.2-.8.7-1.4 2-2 3h.2c.9-.7 1-.9 2-1 1 0 1.6-.4 2.5-.1.8.2 1.6.7 2.4 1 .6.2 1.8 0 2.2.6.5.7-.2.6-.7.5-1.2-.2-2.2-.6-3.4-.7-1.7-.3-4 0-5 1.5 1.5.4 3.3-.2 4.8 0 1.2.1 2.6.9.8 1.7-1.2.6-2.6-.2-4 .4-1 .4-3 1.7-2.1 3 .3-.5.5-1 1.1-.8.2 0 .2.6.6.7.4.1.7-.1 1-.2.3 0 .2.4.4.4s.4-.3.6-.4c.4.7.5.5 1.2.3.4.5.8.9 1 0l1 .3.1-.4.2.4c.3 0 .2-.4.5-.5.5 0 .6.6.9.5l1-1c.2 0 .4.3.6.4l.1-.1-.2-.5c.6.4 1 .5 1.2 0 .8.8.7-.1.8-.8l.6.7v-.5l.2.5.6-1.8Zm25.2 21.5v.1c1.3 1.4 2.8 2.7 4.3 4 .2.2 1.5 1 1.4 1.5-.3.7-1.1 0-1.3-.3-2.8-2.5-5.4-5.3-8.2-8-1.5 4.5-3 9-4 13.8 1-.1 1.3.8 2 .3.8-.4 1.3-.2 2 0 .8.2 2.6 0 3.4-.1 1-.2 1.9.2 2.8 0 1.6-.4 1.6.2 3.3 0 .5 0 2.1.2 2.7 0 .7-.3.1-5.1.9-5.4.1 1 1.4 4.3 1.9 5.2.5-.7 2-6.1 1.5-6.8l-1-.2a.5.5 0 0 0-.5 0c-.2 0-.4 0-.4.3-.7 0-1.3-.6-1.9-1l-6-3.4c-1.8-1-3.3-2.7-5.1-3.3-.1 1.5.6 2.1 1.8 2.8l4.4 2.4-.1.2-3.9-2Zm-9-12.3h-.2c2.3 2.4-5.7 6.8-7.3 7.7-1.8 1-3.7 2.2-5.7 2.9-1.9.7-4.3-.4-6 .5 1.5.5 2.5-.2 3.6 1.3a62 62 0 0 1 3.2 4.4c.4.6 1.7 3.7 2.2 3.6.5 0 1.4-1.4 1.7-1.7l1.7-1.8c2.5-2.7 5-5.3 7.3-8 1.4-1.7 2-2.3 1.3-4.4-.5-1.5-.9-3.2-1.8-4.5Zm.6 18.7c.3-2.1 1.3-4.1 2-6 .2-.8 1.8-4.6.3-4.2-.5.2-1.4 1.8-1.8 2.3l-2 2a24.1 24.1 0 0 0-3 4.4l-3 5.4c-.4.5-.7 1.1-.3 1.7.5.6 1 .4 1.4 0 .6-.7 1-1.9 1.4-2.7l1.7-3 2.8-5.4c-.1 1.4-.1 2.6-.6 3.9-.5 1.2-1.2 2.4-1.8 3.5-.3.6-1.7 2.3-1.2 3.1.5.8 3.1.5 4 .5l.7-3.6c.2-1 .8-2 1-3.1 1-2.8 1.8-5.6 2.6-8.4H50l-4 9.6Zm-4.4-28c.3-1-.7-1-1-.5-.5.4-.7 1.9-1 2.5-.6 1.5-1.5 2.9-2 4.5-.3 1.3-4.3 9.3-3.3 9.9 1.3.6 3-1.4 3.9-2a49.8 49.8 0 0 1 1-.2c.7-.4.9-1.6 1-2.2 1.2-4 1.4-8 1.4-12ZM20.6 11.8v.1c4 0 7.5.1 11.4.6 1.4.3 2.7.7 3.8 1.7.6.6 2.4 2.3 2.2.3 0-.8-.6-1.3-1.2-1.9-.6-.5-1-1.2-1.5-1.7-1.1-1.2-3.2-1.5-4.7-1.8-4-.7-6.8.4-10 2.7Zm52.3 50.6c-2.8-2-6.8-2.9-10-3.8-3.7-1-7.1-2.7-10.6-4.2l-.1.2c2 1.4 3.8 3.1 6 4.2a94.5 94.5 0 0 0 6.7 3l-.8-.1v.1c1.5.6 3.2.8 4.6 1.5.8.4 1 .7 1.8.4.9-.3 1.6-.9 2.4-1.3ZM20.8 57h-.2c-.4 1.5-.2 3-.2 4.5 0 1.6 0 3.3.6 4.9.3.7 1.5 2.4 2.2 1.2.5-.9-.1-3-.1-4-.9.6-1 2-1.9 2.5-.5-1 .6-2.5 1-3.4l2.2-4c1-1.8.5-1.7-.7-3l-1.9-2.9c.3 3.3-.1 6.4-.8 9.5h-.2v-5.3Zm8.5 8.8-.2-.2c.9-1 1.6-1.6 2-2.8-.9-.2-1.6-.1-2.4-.2-.7 0-2.2-.3-2.8 0-.6.3-.4 1-.5 1.6-.1.9-.5 1.8-.7 2.6-.2.5-.5 1 0 1.2.4.2 2.2-.6 2.6-.8 1.6-.5 3.7-.8 3.3-3L29.3 66Zm42.3-1.7.1.1c-.7 1.1-.7 1.6.5 2.3l-.2.2.3-1.3c.6.7 1.9.7 2.7.8 1.5.1 1.3-.3.5-1.3-.9-1.1-1.2-2.3-2.7-1.7-1 .4-2.2 1.4-3.4 1-.7-.2-.8-.6-1.5-.2-.4.2.2 1.8 0 2.1-.4.7-1 3.3 0 3.8 1 .6 2.6-5.2 3.7-5.8Zm-28-36 .1.2c1.1.4 2.5 1 2 2.4-.5 1.3-3.2 1.6-4.1 1-.5 1-.9 2.7.8 3 1.6.2 3.4-2 3.9-3.3-.6.5-1.2 1.3-2 1.2.2-.8 1.4-1 1.8-1.8.3-.6 0-1.4-.1-2-.2-.7-.6-2.5-1.5-2.3-1 .4.5 1.4-.9 1.7ZM19 24.4c-1 0-3.4 1.6-1.9 2.6.6.3 1.2-.3 1.8-.2.7 0 1.6.5 2.2.8.4.2 1.5.9 1.8.5.4-.4-.2-1.2-.5-1.5-.8-1-2-2.2-3.4-2.2ZM40.6 64l-.2-.2c-1.5 1-2.8 2.8-4 4.2-.5.8-2.8 3-1 3.6 1.5.5 2-1.8 2.6-2.8.8-1.6 1.6-3.2 2.6-4.8Zm0-31.4h.2c.7-1.4 1.5-2.6 2-4.1.1-.7.3-1.5.8-2 .3-.5 1-.8 1.2-1.3-1-.5-2.5.5-3 1.4-.4.9-.5 2.2-.7 3.2-.2.9-.5 1.8-.5 2.8ZM31.2 72c1-.5 1.8-.6 2.6-1.5.4-.5 1.3-1.6.6-2.2-.4-.3-2 .7-2.4 1-.6.7-.6 1.8-.8 2.7Zm-4-21.7c.3 0 1.7-1.3 1.7-1.6 0-.2-1.3-.5-1.6-.5-1.6 0-1.6 2.2-.1 2.1Zm2-34c.7-.5 3.4-1.3 2-2.3-.4-.3-1.2-.5-1.5-.1-.4.3-.4 1.8-.6 2.4Zm2.5 46.8L31 66c2-1.1 1.9-.8.7-2.6h-.1ZM24.2 62H24l-.2 3.7c.5-1.2 1-2.4.4-3.7Zm8.9-47.2c.2 1.9-.1 3.7-.4 5.6.7-1.8.8-3.7.4-5.6Zm11.5 6.8.1.2c.6-.3 1-2.6.7-3-.6.5-.6 2-.8 2.8ZM22.9 71.8v.3c.6.3.7 0 1.3.1.3 0 .4.6.8.4.3-.1.2-.5 0-.6-.3-.4-1.6-.2-2.1-.2Zm7.6-1.6-2.2.9c1 .3 1.7 0 2.2-.9Zm4.8-51.5h.2l.2-3-.2-.1-.2 3.1Z"/><path fill="#0E0E17" d="M6.5 62.1c-.1 1.1-.5 2.1-1 3h-.2l1-3h.2ZM30.8 58c.8.6 1.4 1.5 2 2.3l-.3.2-1.8-2.4.1-.1Z"/></g></g></svg>