<svg xmlns="http://www.w3.org/2000/svg" fill="none" viewBox="0 0 24 24"><path fill="#F75049" fill-rule="evenodd" d="M12 0C5.4 0 0 5.5 0 12.3c0 5.4 3.4 10 8.2 11.7.6.1.8-.3.8-.6V21c-3.3.7-4-1.5-4-1.5-.6-1.4-1.4-1.8-1.4-1.8-1-.7.1-.7.1-.7 1.2 0 1.9 1.3 1.9 1.3 1 1.8 2.8 1.3 3.5 1 0-.8.4-1.4.7-1.7-2.6-.3-5.4-1.3-5.4-6 0-1.4.4-2.5 1.2-3.3C5.5 8 5 6.8 5.7 5c0 0 1-.3 3.3 1.3a11.4 11.4 0 0 1 6 0C17.3 4.8 18.3 5 18.3 5c.7 1.7.3 3 .1 3.3.8.8 1.3 2 1.3 3.3 0 4.7-2.8 5.7-5.5 6 .4.4.8 1.1.8 2.3v3.4c0 .3.2.7.8.6 4.8-1.7 8.2-6.3 8.2-11.7C24 5.5 18.6 0 12 0Z" clip-rule="evenodd"/></svg>