<svg xmlns="http://www.w3.org/2000/svg" fill="none" viewBox="0 0 29 35"><path fill="#F75049" d="M8.7 2s9.6-2.6 16 4.5a.7.7 0 0 0 1 0c.3-.2.3-.7 0-1-7-7.8-17-5-17.4-5-.4.1-.6.5-.5 1 0 .3.5.5.9.4ZM28.9 16.1A21.1 21.1 0 0 0 16.2 5.3c-7.4-2-13.7 1.9-14 2-.3.2-.4.7-.2 1 .2.4.6.5 1 .3 0 0 6-3.7 12.9-1.9 4.6 1.3 8.6 4.7 11.8 10.1a.7.7 0 0 0 1 .3c.3-.2.4-.7.2-1Z"/><path fill="#F75049" d="M18.1 11.3C8 5.8.3 14.5.1 14.6c-.2.3-.2.8.1 1 .3.3.8.3 1 0 .1-.1 7-8 16.3-3 .4.2 8.3 3.4 7 15.1a.7.7 0 0 0 .7.8c.4 0 .7-.2.7-.6 1.4-12.4-7-16.3-7.8-16.6Z"/><path fill="#F75049" d="M13.8 14.7c-.2 0-4.4-1-8 1.3-2.3 1.5-3.8 4-4.4 7.3-.1.4.1.8.5 1 .4 0 .8-.3.9-.7.5-3 1.8-5 3.7-6.3 3.1-2 6.9-1.2 7-1.2 2.4.6 4.2 2 5.3 4 2.6 4.8.5 12.1.4 12.2a.7.7 0 0 0 .7 1c.3 0 .6-.3.7-.6.1-.3 2.4-8-.6-13.3a9.5 9.5 0 0 0-6.2-4.7Z"/><path fill="#F75049" d="M14.3 20.7c-2-1.6-3.7-1.4-4.9-.9-1.8.8-3 2.6-3.2 4.7-.2 3-1.2 5.1-1.2 5.1-.2.4 0 .8.3 1 .3.2.8 0 1-.3 0-.1 1.1-2.4 1.3-5.7a4 4 0 0 1 2.4-3.4c1.1-.5 2.3-.3 3.4.7 1.4 1 2.2 2.9 2.1 4.8 0 1.7-.4 4.4-1.9 7.2-.1.4 0 .8.3 1l.4.1c.2 0 .5-.1.6-.4 1.6-3 2-6 2-7.9 0-2.3-.9-4.6-2.6-6Z"/><path fill="#F75049" d="M11.5 24.4c-.4 0-.7.4-.7.8 0 3.7-.7 6.5-1.9 7.5-.3.3-.3.7 0 1a.7.7 0 0 0 1 .1c2-1.8 2.3-6.2 2.3-8.6 0-.4-.3-.8-.7-.8Z"/></svg>