<svg xmlns="http://www.w3.org/2000/svg" fill="none" viewBox="0 0 30 30"><path fill="#F75049" d="m29.5 1.2-.3-.4-.3-.2C26.4-1 17.4.5 11.3 6.6L9.9 8 0 13.6l5.6 2.7-.2.4-2.8 2.8 1.7 1.6-.6.5c-1.8 1.8-2 4.7-1.4 5.7l.1.2h.1l.1.1c.5.3 1 .4 1.6.4a6 6 0 0 0 4.7-2.3l1.6 1.7 2.8-2.8.4-.2 2.7 5.6 5.5-9.9 1.5-1.4c6-6 7.5-15 6-17.5ZM3 13.5 8 10.8c-.8 1.3-1.4 2.7-2 4.1l-2.9-1.4Zm4.2 11.8a4.5 4.5 0 0 1-3.8 1.2c-.2-.5 0-2.5 1.2-3.8l.6-.5 2.5 2.5a4 4 0 0 1-.5.6Zm3.2 0-5.8-5.8L6 18.2l5.8 5.8-1.3 1.3Zm6 1.5L15 24c1.4-.6 2.8-1.2 4-2l-2.6 4.8Zm5.9-9.1A22 22 0 0 1 13 23L7 17c1-3.6 2.9-6.8 5.4-9.4C18.2 1.7 26.5.8 28.1 1.8V2c1 1.6.3 9.8-5.7 15.8Z"/><path fill="#F75049" d="M16.4 7.7a4.2 4.2 0 1 0 6 5.9 4.2 4.2 0 0 0-6-6Zm4.9 4.9a2.7 2.7 0 1 1-3.9-3.9 2.7 2.7 0 0 1 3.9 3.9Z"/></svg>