<svg width="100%" height="100%" viewBox="0 -1 735 919" fill="none" xmlns="http://www.w3.org/2000/svg">
<path fill-rule="evenodd" clip-rule="evenodd" d="M668.642 222.356C641.091 194.119 607.687 180 568.428 180H167.572C128.313 180 94.5643 194.119 66.3253 222.356C38.7751 249.904 25 283.307 25 322.564V584.964C25 624.221 38.7751 657.968 66.3253 686.205C94.5643 713.753 128.313 726.528 167.572 726.528H711V592.195H196.5C177.215 592.195 166.195 591.162 163.44 589.096C161.373 586.341 160.34 575.322 160.34 556.038V520.946H711V322.564C711 283.307 696.881 249.904 668.642 222.356ZM571.527 319.465C569.461 316.71 558.785 315.332 539.5 315.332H196.5C177.215 315.332 166.195 316.71 163.44 319.465C161.373 321.531 160.34 332.206 160.34 351.49V400.044H575.66V351.49C575.66 332.206 574.282 321.531 571.527 319.465Z" fill="#F75049"/>
</svg>
