<svg width="686" height="735" viewBox="0 0 686 735" fill="none" xmlns="http://www.w3.org/2000/svg">
<path d="M630.054 735C609.327 735 589.762 727.862 573.49 713.394L587.825 696.417C600.804 707.606 613.976 713.972 630.636 713.972C645.358 713.972 654.656 707.028 654.656 696.996V696.61C654.656 686.965 649.232 681.756 624.049 675.969C595.186 669.024 578.914 660.535 578.914 635.65V635.264C578.914 612.114 598.286 596.102 625.212 596.102C644.97 596.102 660.661 602.083 674.415 613.079L661.63 631.02C649.426 621.953 637.222 617.13 624.824 617.13C610.877 617.13 602.741 624.268 602.741 633.142V633.528C602.741 643.945 608.94 648.575 635.091 654.748C663.76 661.693 678.483 671.917 678.483 694.295V694.681C678.483 719.953 658.53 735 630.054 735Z" fill="#F75049"/>
<path d="M396.306 733.071V598.032H457.131C472.628 598.032 484.832 602.276 492.581 609.992C498.586 615.973 501.685 623.303 501.685 632.37V632.756C501.685 648.961 492.387 657.642 482.314 662.85C498.198 668.252 509.24 677.319 509.24 695.646V696.032C509.24 720.146 489.288 733.071 459.069 733.071H396.306ZM477.859 636.614V636.228C477.859 625.618 469.335 619.059 454.032 619.059H419.745V654.941H452.289C467.592 654.941 477.859 648.961 477.859 636.614ZM485.413 693.138C485.413 681.756 476.309 675.004 457.519 675.004H419.745V712.043H459.262C475.534 712.043 485.413 705.677 485.413 693.524V693.138Z" fill="#F75049"/>
<path d="M185.152 733.071L244.815 597.067H266.898L326.562 733.071H301.379L287.625 700.469H223.507L209.559 733.071H185.152ZM232.224 679.441H278.908L255.469 625.425L232.224 679.441Z" fill="#F75049"/>
<path d="M30.3483 733.071V598.032H54.1749V711.465H125.461V733.071H30.3483Z" fill="#F75049"/>
<path fill-rule="evenodd" clip-rule="evenodd" d="M643.642 42.1837C616.091 14.0612 582.687 0 543.428 0H142.572C103.313 0 69.5643 14.0612 41.3253 42.1837C13.7751 69.6203 0 102.887 0 141.984V403.318C0 442.415 13.7751 476.025 41.3253 504.147C69.5643 531.584 103.313 545.302 142.572 545.302H686V410.52H171.5C152.215 410.52 141.195 409.491 138.44 407.433C136.373 404.689 135.34 393.715 135.34 374.509V340.556H686V141.984C686 102.887 671.881 69.6203 643.642 42.1837ZM546.527 138.898C544.461 136.154 533.785 134.782 514.5 134.782H171.5C152.215 134.782 141.195 136.154 138.44 138.898C136.373 140.955 135.34 151.587 135.34 170.793V219.15H550.66V170.793C550.66 151.587 549.282 140.955 546.527 138.898Z" fill="#F75049"/>
</svg>
