<svg width="56" height="56" viewBox="0 0 56 56" fill="none" xmlns="http://www.w3.org/2000/svg">
<g filter="url(#filter0_dd_999_660)">
<path d="M47.8408 55C46.2998 55 44.8453 54.4756 43.6356 53.4126L44.7013 52.1654C45.6662 52.9874 46.6455 53.4551 47.884 53.4551C48.9785 53.4551 49.6698 52.9449 49.6698 52.2079V52.1795C49.6698 51.4709 49.2665 51.0882 47.3943 50.663C45.2485 50.1528 44.0388 49.5291 44.0388 47.7008V47.6724C44.0388 45.9717 45.479 44.7953 47.4808 44.7953C48.9497 44.7953 50.1162 45.2346 51.1387 46.0425L50.1882 47.3606C49.2809 46.6945 48.3736 46.3402 47.4519 46.3402C46.415 46.3402 45.8102 46.8646 45.8102 47.5165V47.5449C45.8102 48.3102 46.271 48.6504 48.2152 49.1039C50.3466 49.6142 51.4411 50.3654 51.4411 52.0095V52.0378C51.4411 53.8945 49.9578 55 47.8408 55Z" fill="#53F6FF"/>
<path d="M30.463 54.8583V44.937H34.985C36.1371 44.937 37.0444 45.2488 37.6204 45.8158C38.0669 46.2551 38.2973 46.7937 38.2973 47.4599V47.4882C38.2973 48.6787 37.606 49.3165 36.8572 49.6992C38.0381 50.0961 38.859 50.7622 38.859 52.1087V52.137C38.859 53.9087 37.3756 54.8583 35.129 54.8583H30.463ZM36.5259 47.7717V47.7433C36.5259 46.9638 35.8923 46.4819 34.7546 46.4819H32.2055V49.1181H34.625C35.7627 49.1181 36.5259 48.6787 36.5259 47.7717ZM37.0876 51.9244C37.0876 51.0882 36.4107 50.5921 35.0138 50.5921H32.2055V53.3134H35.1434C36.3531 53.3134 37.0876 52.8457 37.0876 51.9528V51.9244Z" fill="#53F6FF"/>
<path d="M14.7649 54.8583L19.2005 44.8661H20.8423L25.2779 54.8583H23.4057L22.3832 52.463H17.6164L16.5795 54.8583H14.7649ZM18.2644 50.9181H21.7352L19.9926 46.9496L18.2644 50.9181Z" fill="#53F6FF"/>
<path d="M3.25621 54.8583V44.937H5.02758V53.2709H10.3273V54.8583H3.25621Z" fill="#53F6FF"/>
<path fill-rule="evenodd" clip-rule="evenodd" d="M48.8509 4.09921C46.8027 2.03307 44.3193 1 41.4006 1H11.5994C8.68072 1 6.17169 2.03307 4.07229 4.09921C2.0241 6.11496 1 8.55906 1 11.4315V30.6315C1 33.5039 2.0241 35.9732 4.07229 38.0394C6.17169 40.0551 8.68072 41.063 11.5994 41.063H52V31.1606H13.75C12.3163 31.1606 11.497 31.085 11.2922 30.9339C11.1386 30.7323 11.0617 29.926 11.0617 28.515V26.0205H52V11.4315C52 8.55906 50.9503 6.11496 48.8509 4.09921ZM50.0798 24.1307V11.4315C50.0798 9.07116 49.241 7.11395 47.51 5.45187L47.493 5.43558L47.4765 5.41888C45.7876 3.71525 43.7989 2.88976 41.4006 2.88976H11.5994C9.19976 2.88976 7.17632 3.71688 5.43006 5.43548C3.74505 7.0938 2.92018 9.05595 2.92018 11.4315V30.6315C2.92018 33.0004 3.74116 34.9917 5.43025 36.7031C7.16915 38.3653 9.1924 39.1732 11.5994 39.1732H50.0798V33.0504H31.9149H13.75C13.0101 33.0504 12.3782 33.0313 11.881 32.9855C11.6348 32.9627 11.3789 32.9298 11.1395 32.8767C10.9671 32.8386 10.5359 32.7378 10.1401 32.4457L9.92061 32.2837L9.75602 32.0677C9.45917 31.6782 9.3568 31.2538 9.31801 31.0841C9.26415 30.8485 9.23063 30.5966 9.20755 30.3543C9.16095 29.8651 9.14157 29.2431 9.14157 28.515V24.1307H50.0798ZM9.14157 18.9906V13.548C9.14157 12.8214 9.16083 12.2026 9.2081 11.7219C9.23131 11.4859 9.26611 11.2302 9.32558 10.9896L9.32794 10.98C9.36359 10.8349 9.49473 10.3012 9.9344 9.86846C10.3291 9.48002 10.7938 9.32597 11.0092 9.26237C11.2791 9.18269 11.5616 9.13482 11.8221 9.10278C12.3476 9.03813 13.0023 9.0126 13.75 9.0126H39.25C39.9957 9.0126 40.6482 9.03793 41.1663 9.10373C41.4208 9.13605 41.7101 9.1861 41.9882 9.27485C42.1567 9.32865 42.605 9.47898 42.99 9.86736C43.3846 10.2463 43.5373 10.6874 43.5919 10.8532C43.6821 11.1269 43.733 11.4116 43.7658 11.6621C43.8327 12.172 43.8584 12.8142 43.8584 13.548V18.9906H9.14157ZM41.631 11.2047C41.4774 11.0031 40.6837 10.9024 39.25 10.9024H13.75C12.3163 10.9024 11.497 11.0031 11.2922 11.2047C11.1386 11.3559 11.0617 12.137 11.0617 13.548V17.1008H41.9383V13.548C41.9383 12.137 41.8358 11.3559 41.631 11.2047Z" fill="#53F6FF"/>
</g>
<defs>
<filter id="filter0_dd_999_660" x="1" y="1" width="55" height="54" filterUnits="userSpaceOnUse" color-interpolation-filters="sRGB">
<feFlood flood-opacity="0" result="BackgroundImageFix"/>
<feColorMatrix in="SourceAlpha" type="matrix" values="0 0 0 0 0 0 0 0 0 0 0 0 0 0 0 0 0 0 127 0" result="hardAlpha"/>
<feOffset dx="4"/>
<feComposite in2="hardAlpha" operator="out"/>
<feColorMatrix type="matrix" values="0 0 0 0 0.32549 0 0 0 0 0.964706 0 0 0 0 1 0 0 0 0.1 0"/>
<feBlend mode="normal" in2="BackgroundImageFix" result="effect1_dropShadow_999_660"/>
<feColorMatrix in="SourceAlpha" type="matrix" values="0 0 0 0 0 0 0 0 0 0 0 0 0 0 0 0 0 0 127 0" result="hardAlpha"/>
<feOffset dx="2"/>
<feComposite in2="hardAlpha" operator="out"/>
<feColorMatrix type="matrix" values="0 0 0 0 0.32549 0 0 0 0 0.964706 0 0 0 0 1 0 0 0 0.2 0"/>
<feBlend mode="normal" in2="effect1_dropShadow_999_660" result="effect2_dropShadow_999_660"/>
<feBlend mode="normal" in="SourceGraphic" in2="effect2_dropShadow_999_660" result="shape"/>
</filter>
</defs>
</svg>
