<svg xmlns="http://www.w3.org/2000/svg" fill="none" viewBox="0 0 110 89"><path fill="#F75049" d="M39.7 26.3V6.7c0-.7-.5-1.4-.8-2 0-.2-.4-.3-.7-.3l-4-.4c-.3 0-.8-.2-1-.5-.5-.3-.5-.8-.4-1.3.2-.5.6-.8 1-.8H40L51 1.2c1.3 0 2 .9 1.6 2a1 1 0 0 1-.9.7c-1.8.3-1.9.4-2.2 2.2v16.4l-.3 15.9v5c-.2 6.4-3 11.3-8.6 14.5-1.8 1.1-3.7 2.1-5.9 2.2a21.5 21.5 0 0 1-11.5-3 11.9 11.9 0 0 1-5.7-10c-.2-2.8.7-5.4 2.1-7.8a7 7 0 0 1 3.4-2.7l.6-.3a9 9 0 0 1 6.5-1.2c3.2.5 5.3 2.6 6.2 6.1l.4 3c.2 2-1.6 5-3.7 5.6-1.9.4-3.6.3-5.1-1.1-.8-.8-1-2-.4-3 .3-.5.8-.7 1.4-.7.6 0 1.1.3 1.3.8l.3 1.5c0 .3 0 .4.4.5 1.4.2 2.5-.4 3-1.7.9-2.2.2-5.3-1.4-7-1.8-1.6-4.1-1.6-6 .1a7.6 7.6 0 0 0-2.5 5.8c0 2.7.4 5.3 2.2 7.5a17 17 0 0 0 2.7 2.3c1 .7 2 .7 3.2.3 3.1-1 4.8-3.4 5.9-6.3 1-2.7 1.4-5.6 1.4-8.5v-14h.2Z"/><path fill="#F75049" d="M27 24.3c-1.5 1-3 2-4 3.5-2.1 2.4-3.7 5.1-5 8l-7 14.6-1 1.6c-1.8 2.5-4.4 3.2-7.2 1.7C.8 52.7.1 51 0 49c0-.9 0-1.7.5-2.6L.6 48l.2.8c.6 2.7 2.4 4.1 5.3 4.1.6 0 1.1-.4 1.5-.8 2-2 3.3-4.2 3.8-7l2.7-13.7c.7-3.4 2-6.6 3.1-9.8l1.6-4.4c1.1-3 2.6-5.8 4.7-8.2.3-.3.4-.7.3-1.1l-.5-2.5c0-.5-.3-.8-.8-.9-1.3 0-1.5-1-1.3-2.3.1-.4.5-.7 1-.8l1-.1h7.4c1.4 0 1.8.7 1.4 2.2 0 .2-.4.4-.7.5-.4.3-.6.4-.5 1 .8 6.2 2.3 12.2 3.6 18.3l1.2 5.4c.2.6.5 1 1 1.3 1.2.5 1.7 1.9 1.2 3-.3.6-.7.8-1.2.8a1611.6 1611.6 0 0 1-8.8.1c-1.2-.2-1.6-.8-1.3-2 .2-.7.6-1.3 1.2-1.6.4-.2.5-.5.4-.8l-.8-4.7-.2-.5Zm-4.9-.9h.2l3.8-2.4.3-.6-.7-3.5h-.2c-1.4 2-2.6 4.1-3.4 6.5ZM65.8 16h4.6c1.8.3 3.4-.4 4.7-1.6 1.6-1.3 3-2.8 4.5-4.2l.2-.3h.2v15.6l-.6-.8c-1.3-2-3-3.5-5.1-4.5-.7-.4-1.5-.6-2.3-.6h-6.3v.6l.2 8.4c0 .8.3 1.1 1 1.3h.5a2 2 0 0 1 1.7 2.7c-.2.4-.6.8-1.3.8H55.6c-1 0-1.5-.4-1.7-1.3-.2-.8 0-1.5.8-2l.7-.1c.8-.2 1.1-.5 1.2-1.4.3-4 .3-8 .1-12l-.4-10.7c0-.4-.2-.8-.5-1-.3-.2-.8-.3-1.3-.4-.8-.3-1.2-.8-1.2-1.7 0-.8.5-1.3 1.4-1.4h.8L74 1.2c1.8 0 3.6-.3 5.4-.6.8 0 1.5-.5 2.2-.7v9.4l-.6-.3-2-1.5c-2.6-2-5.5-2.7-8.7-2.6l-3 .2c-.6 0-.8.2-.9.7l-.3 3.6-.3 6v.6ZM93 48l1.8 3.6 3 7.2c.5 1.4 1.4 2.6 2.5 3.7.8.7 1.6 1.1 2.6 1.2h3c1-.2 2-.6 2.5-1.8.2.8-.1 1.3-.6 1.7a7.7 7.7 0 0 1-4.4 2.3c-3.4.5-6-.8-8.2-3.2-2-2-3.3-4.2-4.2-6.8-.8-2.1-1-4.3-1.3-6.6l-.1-1.2c-1-.1-2-.3-2.8-1.1v2.2l.3 8.2c0 .5.1 1 .6 1.3.7.5.8 1.1.6 1.7-.2.5-.6.9-1.2.9h-6.5c-.3 0-.7-.2-1-.4-.6-.3-.8-1.2-.3-1.7l1.2-.8c.6-.1.8-.5.8-1l-.1-8.5-.2-7.3v-3.4c0-.8-.3-1-1.1-1.2-.5 0-1-.2-1.1-.7-.5-.8-.1-1.6.8-1.8a5 5 0 0 1 1.2-.1h11c2.2 0 3.8 1 4.9 2.8A10 10 0 0 1 98 43c-.2 2.7-1.9 4.4-4.5 5H93Zm-1.8-3 .2-.3.3-.5A9 9 0 0 0 92 39c-.2-.9-.7-1.4-1.5-1.7a7 7 0 0 0-3.3-.6c-.4 0-.4.3-.4.6v6.1c.2-.1.3-.3.3-.4.7-.8 1-.9 1.9-.3.9.5 1.7 1.2 2.3 2.2ZM89 46.3c.4 0 .6-.1.4-.5 0-.3-.2-.7-.4-1l-.8-.5-.6 1c0 .2.2.6.4.7.3.2.7.2 1 .3ZM55.9 73.1c-.8-.1-1.6-.3-2.2-1.1V81.4c0 .3.2.6.6.7.7.2 1 .9 1 1.6 0 .7-.6 1.2-1.4 1.2h-5.4c-.8 0-1.2-.5-1.3-1.1-.1-.6.1-1.2.7-1.5l.3-.2c.9-.1 1-.8 1-1.5l-.2-8-.1-7.5v-.9c-.1-.6-.5-1-1.2-1.1-.6 0-1-.5-1-1-.1-.6 0-1 .6-1.3a4 4 0 0 1 1.4-.3h8.6c2.6 0 4 1.4 5 3.6a9 9 0 0 1 .6 5.6c-.2 1-.8 1.8-1.6 2.3l-2 1 2.3 6.7c.4 1.2.8 2.5 1.4 3.7a6 6 0 0 0 4.2 3.6c2.4.6 4.5 0 6.1-2h.1l-1 1.5a8 8 0 0 1-10.1 1.3 9.2 9.2 0 0 1-3.9-4.5c-.8-2.2-1.5-4.5-2.1-6.7-.3-1.1-.3-2.3-.4-3.4ZM53.6 69c.8-.6 1.6-.4 2.3 0l1.8 1.5c.9-2.2 1-4.3-.2-6.4l-.4-.5c-1.1-.6-2.3-.5-3.5-.5v6Zm2.3 2.9-.3-1.3c-.1-.2-.5-.4-.7-.4-.2 0-.4.3-.5.5-.2.8.4 1.3 1.5 1.2ZM26.6 62.2v2.2c2.1-1.8 4.3-2 6.7-1 .7.3 1.2.8 1.5 1.5.9 2.1.7 4.3 0 6.4-.4 1.3-1 2.6-1.5 3.8-1.3 2.5-2.8 4.9-4.5 7.2l-.7 1.1 2.9 1 4.4 1.5c2.5.6 5 .5 7.3-.7l4-2.4-.4.5a11 11 0 0 1-9.6 4.6c-1.1 0-2.3-.6-3.4-1-1.6-.5-3.3-1-5-1.1h-1.6l-.9.1.2-.6c2-4.5 3.1-9.2 3.9-14.1.1-1.2 0-2.4-.1-3.6 0-.7-.4-1.4-1.2-1.5-.7-.2-1.2.4-1.6 1-.3.2-.4.7-.4 1l.1 13.3v.5h-6c-.6 0-1-.1-1.3-.6-.4-.7 0-1.4.9-1.6 1-.3 1-.3 1-1.4L21 65.1c0-.4-.2-.5-.6-.6-.7 0-1-.4-1.2-1-.1-.5.1-1 .7-1.1a3 3 0 0 1 .9-.2h5.8Z"/><path fill="#F75049" d="m63.4 75.8 1 2c.5 1.2 1.3 2.1 2.2 3 1 .8 2.2 1 3.4 1 .8-.2 1.5-.6 2-1.3 1.8-2.2 2-5.1.5-7.5l-1-1.2-4.2-3.2c-3.1-2.2-3.7-5.3-2.6-8.6.7-2.4 2.6-3.7 5-4 2-.5 4-.5 6-.3h.2c1.2.3 1.4.5 1.3 1.7l-.2 5.1v.3l-2.1-2.4a6.3 6.3 0 0 0-3-1.9c-.8-.2-1.4 0-2 .7-1.3 1.9-1 4.2 1 5.5l3.5 2a7 7 0 0 1 3.6 4.9c.8 3 .7 6-.7 8.8a6 6 0 0 1-1.1 1.6 10 10 0 0 1-8.4 3l-3-.6c-.3-.1-.5-.3-.5-.7l-1-7.1v-.8h.1Z"/><path fill="#F75049" d="M74 47.2a9 9 0 0 0-3 2.2L67.7 54c-1 1.5-2.1 3-3.8 4-3.9 2.4-7.8 2.8-12 .4a6.2 6.2 0 0 1-3-4.6c-.2-1.3.8-3 1.9-3.3h.4l-.6.9c-1.2 2 0 4.1 1.6 5.4 1.1 1 2.6 1.2 4 1.3 3 .2 5.2-1 6.8-3.4 1.5-2.2 2.5-4.6 3.4-7 1.3-3.4 3-6.5 5.4-9.2l.1-.7a3 3 0 0 0-.3-1c-.1-.2-.4-.4-.7-.5-.5-.2-.8-.5-.8-1 0-.6.3-.9 1-.9h4.5c.9 0 1.3.5 1 1.3l-.6.5c-.2 0-.4.2-.3.5L77.9 47c.3 1.2.8 2.3 1.3 3.5 0 .2.3.3.4.5.2.1.6.2.7.5.1.3.3.7.2 1 0 .5-.4.7-.8.7h-5c-.9-.1-1.1-.8-.7-1.4.2-.3.4-.5.7-.6.3-.2.4-.5.3-.8l-1-3.3Zm-.4-1.9-.5-2c-1.1 1-1.8 2.2-2.6 3.6 1.1-.6 2.1-1 3-1.6ZM83 63.2v8.6l.5-.5c1.4-1 2.7-2 4.5-2a3 3 0 0 1 2.9 1.9 8 8 0 0 1 .4 6.4c-.5 1.2-1.2 2.4-1.9 3.5-1 1.6-2.2 3-3.4 4.6l-.1.3c.6 0 1.3 0 2 .2l4 1a7 7 0 0 0 5-.7l1.4-.8c-.5 1.1-1.3 2-2.5 2.5-1.7.5-3.3.6-5 .3l-4.1-1c-1-.2-2-.2-3 .2h-.4l.5-1c1-1.8 2-3.5 2.7-5.3 1-2.5 1-5 .6-7.6-.2-1.3-1.4-1.9-2.5-1-.5.3-1 .6-1.3 1l-.4.7.2 7.1c0 .4.3.6.6.7.5.3.8.6.8 1.2 0 .7-.3 1-.9 1h-5c-.5 0-.8-.1-1-.6 0-.5 0-.9.4-1.3l.4-.2c.9-.2.9-.9.9-1.6L79 66c0-.4-.1-.6-.5-.6-.5-.1-.9-.6-1-1 0-.6.4-.9.8-1l.6-.1h4Z"/><path fill="#F75049" d="m59.1 46.5.3 7c0 .2.4.4.6.6.6.4.7.7.5 1.4 0 .4-.3.7-.8.7h-5.5c-1 0-1.4-.7-1-1.5 0-.3.3-.6.6-.7.7-.4.8-.9.8-1.5l-.1-10.7V38c0-1-.2-1-1-1.3-.5-.1-.9-.6-.9-1.1 0-.5.3-.8 1-1h.2c3.1 0 6.3-.3 9.4.2 2.8.5 4 1.8 4.6 4.6v2.4c-.1 2.3-2.8 4.7-5.4 4.6H59Zm0-6.1V44c0 .4.2.6.6.6l1.4.1c1.6 0 2.4-.8 2.4-2.4 0-1.6-.4-3-1-4.5-.3-.7-.8-1.1-1.5-1.3l-1.3-.2c-.4 0-.6 0-.6.5v3.6ZM5.8 63v-6.7l.4.1c1 .6 2.2.9 3.4.9H19c1 0 1.8-.2 2.7-.8v5.2l-.4-.4c-.4-.8-1.1-1-1.9-1.1h-3.1v16.6c0 .8 0 1.5.8 2 .5.2.6.7.6 1.3 0 .7-.5 1.1-1.3 1.2h-5.2c-.4 0-.7-.2-1-.4-.6-.4-.7-1.1-.3-1.6l.8-.8c.6-.2.7-.7.7-1.3a1175.1 1175.1 0 0 1-.2-15.2v-.8c0-1.1-.3-1.4-1.4-1a7.7 7.7 0 0 0-3.4 2.4l-.4.5h-.1ZM46.7 69v7.8l-.3-.7a4 4 0 0 0-4.4-2.5c-1 0-1.5.7-2 1.4v.3c.2 1.5.3 3.1 2.2 3.8 1.7.6 3.4.2 4.7-1.3l1.3-1.3-.6 5c-1.7-1-3.4-.6-5.2-.5-2.5.2-4.5-.7-5.7-3-1.5-3-1.9-6-.4-9.2a7.3 7.3 0 0 1 4.1-3.6c1-.4 2.2-.2 3.3-.2 1.4.1 2.7 0 4-.6V69l-.6-.6a5.8 5.8 0 0 0-2.5-1.4c-1.7-.5-3.3.1-4.1 1.7-.3.5-.4 1.1-.6 1.7-.1.4 0 .7.5 1 1.4 1 3.5.6 4.8-.7l1.4-1.6h.1ZM103.4 77.2v4.6c0 .7 0 1.2.7 1.6.2.1.3.7.3 1 0 .4-.5.4-1 .4h-3.6c-.6 0-1-.2-1-.7 0-.6.2-.8.7-1 .4 0 .4-.3.4-.5a341.5 341.5 0 0 0-.1-10.4l-.1-1.7c0-.5-.2-.8-.7-.9-.4 0-.6-.3-.6-.7 0-.4.3-.7.7-.8H105.5c2.5 0 3.8 1.2 4.4 4.1.3 1.5-.2 2.8-1.2 4-.6.6-1.4.8-2.3.9l-2.1.1h-1Zm0-7.6v6l.2.4a2 2 0 0 0 3-1.6c.1-1.2 0-2.4-.6-3.5-.5-1-1.3-1.5-2.5-1.3ZM94.5 65.6h2.4c.7 0 1.1.4 1.2 1 0 .4-.2 1-.8 1.1-.6.2-.7.5-.7 1l-.2 7.3v5.2c0 .5.1 1 .6 1.2.4.2.7.6.9 1 .3.7-.1 1.4-.9 1.4h-4.9c-.8-.1-1.2-1-.7-1.8l.5-.5c.6-.2.7-.7.7-1.2l-.2-12.7c0-.5-.3-.8-.8-.9-.5 0-.7-.5-.8-1 0-.5.3-.9.8-1l1.4-.1h1.5Z"/></svg>