<svg xmlns="http://www.w3.org/2000/svg" fill="none" viewBox="0 0 51 62"><path fill="#F75049" d="M22.3 50.1c-3.3 3.3-6.1 6.4-9.3 9-.5.6-2.4.1-3.4-.4a19.8 19.8 0 0 1-3.4-31.3c7.4-6.6 16-7.3 25.3-5.3 1.1.2 2.3.2 3.4.3 0-1.3.2-2.7-.2-3.9-1.6-4.1-5.3-5.3-9.3-5.4-5.2-.2-10 1.5-14.4 4C7.8 19 7.8 19 6 15.7c-1-2-2.1-3.8-3.2-5.7-.8-1.4-.6-2.5 1-3.4C13.8.5 24.7-2 36.2 1.8c10 3.2 13.2 12 13.1 20.5 0 1-.7 2-1.4 2.8L37.1 35.9c-1.3 1.3-2.3 1.5-3.9.2-4.3-3.4-9-3.5-14-1.5-3 1.1-4.7 3.3-4.9 6.6-.1 3.5 1.6 5.8 4.6 7.4l3.4 1.5ZM43.4 62a7.5 7.5 0 0 1-7.6-8c0-3.7 3.5-7 7.6-7 4.5 0 7.7 3.2 7.6 7.7 0 4.1-3.4 7.3-7.6 7.3Z"/></svg>