<svg xmlns="http://www.w3.org/2000/svg" fill="none" viewBox="0 0 69 78"><path fill="#F75049" d="M34.4 66.8c1.3-1 2.7-1.7 4.4-1.7 1.8 0 3.2.6 4 2.2 1-1 2.1-1.7 3.5-2 1.3-.4 2.6-.5 3.8 0 .5.3 1 .6 1.3 1 .4.4.6.4 1 0 1.2-.8 2.5-1.2 4-1.2 1.6 0 2.9.5 3.6 1.9l.2.3c1-1.1 2.2-2 3.7-2a8 8 0 0 1 2.7 0c1.5.4 2.3 1.4 2.3 2.8l.1 9.3c0 .4-.2.6-.7.6h-2.8c-.6 0-.7-.2-.7-.7v-6.8c0-1.2-.5-1.7-1.5-1.9-1-.2-2.5.5-2.9 1.2v7.4c0 .6-.3.8-1 .8h-2.7c-.5 0-.7-.2-.7-.7v-6.5c0-.8 0-1.6-.8-2-1-.4-1.8-.2-2.7.3-.6.3-.9.8-.9 1.5V77c0 .9 0 .9-.9.9h-2.4c-1 0-1 0-1-1v-6.6c.1-1.6-1.3-2.1-2.6-1.7-1.3.4-1.7 1-1.7 2.1v6.3c0 .9 0 .9-1 .9h-2.6c-.6 0-.7-.2-.7-.7v-6.7c0-1.2-.3-1.7-1.2-2-1-.2-2.7.4-3 1.2-.2.2-.2.5-.2.7v6.7c0 .8 0 .8-1 .8h-2.6c-.5 0-.7-.1-.7-.6V66c0-.5.1-.7.7-.7h2.7c.7 0 1 .2.9.8v.6ZM5.5 66.5a7.3 7.3 0 0 1 7-1.5c1.6.6 2.4 1.6 2.4 3l.1 9.4c0 .5-.2.6-.7.6h-3c-.6 0-.8-.2-.7-.7v-6.6c0-2-1.5-3-3.6-2.2-1.2.4-1.6 1-1.6 2v6.7c0 .7-.2.8-.9.8H1.8c-.7 0-.8-.2-.8-.8V61c0-.9 0-.9 1-.9h2.7c.7 0 .8.3.7.8v5.7ZM23.8 76.3a6.4 6.4 0 0 1-5.2 1.7c-2.2-.2-3.5-1.5-3.6-3.8v-8.7c0-.3.1-.5.5-.5h3c.6 0 .6.3.6.7v6.1l.1 1.2c.2 1 .7 1.5 1.7 1.5.6 0 1.3-.2 1.8-.4.8-.3 1.2-.8 1.2-1.7v-6.5c0-.9 0-.9.9-.9h2.5c.5 0 .7 0 .7.6v11.6c0 .4-.2.6-.6.6h-2.7c-.6 0-1-.2-.8-.8l-.1-.7ZM0 10.2h3a15 15 0 0 0 9.8-3.6c10-8.7 24.3-8.7 34.4-.6 1.4 1.2 1.5 2.4.2 3.7L32.4 25c-.4.4-1 .8-1.2 1.4-.3.6-.2 1.3-.2 2 .7 0 1.5 0 2-.3.8-.5 1.4-1.3 2-2 8-8 15.8-16 23.8-24.3a25.5 25.5 0 0 1 .1 33.4 6 6 0 0 0-1.3 4.2V54c0 1.3-.2 2-1.7 2-9.8-.2-19.7.1-29.4-.6-11.5-.8-21.6-11.3-23.1-23-.4-3-.5-6.3 0-9.3.8-3.8-.2-7-1.9-10.2L0 10.1Zm15 3.5c.5 2.3 2 3.7 4.3 3.3a4 4 0 0 0 3.3-4.8c-.5-2.3-2.4-3.4-4.8-3 .2 1.3 1 2.7.5 3.5-.4.7-2 .7-3.2 1Z"/></svg>