<svg xmlns="http://www.w3.org/2000/svg" fill="none" viewBox="0 0 81 77"><path fill="#F75049" d="m47.5 69.3.2.5c-.2.4-1.5 2.8-3 4.7-.6.9-1.4 1.6-2.1 2l-.2.1s-2 .9-3.8 0l-.2-.1a7.5 7.5 0 0 1-2.2-2 30.3 30.3 0 0 1-3-4.7l.3-.5 1 1.4 1.9 3c1 1.5 2 2.3 2 2.3s.6.6 1.6.6h1c1 0 1.5-.6 1.5-.6s1.2-.8 2-2.2h.1l2-3 .8-1.6ZM80.2 42.4c.2.2.4.3.7.3 0 1.2-.2 2.4-.4 3.6h-.2c-.3 1.4-1 3-1.7 4.6.9-2.7 1.4-5.6 1.6-8.5Z"/><path fill="#F75049" d="M80.3 46.2h.2a39 39 0 0 1-17.6 26.9c-.8.4-1.5.6-2.1.7l1-.8c8-5 14.1-12.9 16.8-22.1.8-1.6 1.4-3.2 1.7-4.7Z"/><path fill="#F75049" d="M78.6 50.9c-2.7 9.2-8.8 17-16.9 22a3472.4 3472.4 0 0 0 6.2-5.5A51.2 51.2 0 0 0 78.7 51Z"/><path fill="#F75049" d="M78.6 51c0 .2-1.2 3.3-3.4 7 .2-.3.3-.6.3-1l3.1-6Z"/><path fill="#F75049" d="M80.2 42.4c-.2 3-.7 5.8-1.6 8.5a66 66 0 0 1-3.1 6 2.2 2.2 0 0 0-1-1.8 37.9 37.9 0 0 0 3.2-15 36 36 0 0 0-4-16.5l.5-.2a2.2 2.2 0 0 0 1.1-2.4 38.4 38.4 0 0 1 5 18.6"/><path fill="#F75049" d="M74.4 55a2.2 2.2 0 0 1 1 2l-.8 1.5-.3.4a2.3 2.3 0 0 1-2 0 36.9 36.9 0 0 0 .6-.6H73.2a1.4 1.4 0 0 0 1.4-1 1.4 1.4 0 0 0 0-.7V56.3h-.1v-.1l-.1-.1-.1-.1h-.1v-.1H74c0-.3.2-.6.3-.8Z"/><path fill="#F75049" d="m74.6 58.5.9-1.5a2.2 2.2 0 0 1-1.2 1.9l.3-.4Z"/><path fill="#F75049" d="M75.2 58c-1.8 3.1-4.3 6.6-7.3 9.4a87 87 0 0 0 5.5-7.2l1-1.3.8-.8ZM74.3 56ZM74.4 55a35.3 35.3 0 0 1-.3.8H74l-.2-.1a1 1 0 0 0-.3-.1v-.9l.9.3ZM73.6 55.6ZM73.6 55.6ZM73.5 57ZM73.5 54.6v.1ZM73.5 54.3l-.6-.5V24l.2-.3h.4v30.6Z"/><path fill="#F75049" d="m73 53.8.5.5v.4a2.3 2.3 0 0 0-.6 0v-.9ZM73.5 55.6ZM73.5 57l-.1.2-.1-.2h.2ZM73.2 57h-.1.1ZM73.2 59.2c.4 0 .8-.1 1.1-.3l-.9 1.3s-2.9 4.2-5.5 7.2l-3 2.7c-2.3 1.7-4.6 2.7-5.4 1.9l.2-.6a37 37 0 0 0 7.8-6.2l.2-.2c1.8-1.9 3.3-3.9 4.6-6l1 .2ZM72.4 23l-.3.5a2.2 2.2 0 0 1-1.2-1.8 2.2 2.2 0 0 1 1-2.1 2.3 2.3 0 0 1 3.2.8l.2.6a2.2 2.2 0 0 1-1 2.4 2.3 2.3 0 0 1-1.2.3l-.7-.7Zm-.6-1v.1l.2.2v.1l.2.1v.1a1 1 0 0 0 .3.1l.2.1h.6a1 1 0 0 0 .1 0H73.7l.1-.1a1.4 1.4 0 0 0 0-2.4 1.4 1.4 0 0 0-1.6.1 1 1 0 0 0-.2.1 1.2 1.2 0 0 0-.1.2 1.2 1.2 0 0 0-.2.4v.1a.7.7 0 0 0 0 .2v.5l.1.2Z"/><path fill="#F75049" d="m73 23.7-1-.2.4-.5.7.7h-.2ZM73 23.7v.3-.3ZM73 55h.2l-.3.3V55ZM73 54.7a2.4 2.4 0 0 1 .4 0l-.2.3h-.3v-.3Z"/><path fill="#F75049" d="M73 55.5v-.2l.2-.3.2-.3h.1v.9a1 1 0 0 0-.3 0 1.4 1.4 0 0 0-.1 0ZM72 23.5l1 .2v.3L64 37.4l-.4-2 8.1-11.6.3-.3Z"/><path fill="#F75049" d="m73 54.7-.6.2c-5-1-8.2-6.8-9-9.3-.7-2.6-1.8-6.3-2.4-12.3v-.1C60.4 28 59 23.9 58.8 23l2.6.2 1 4.6c.4 2 .7 4.7 1.3 7.6l-1.1 1.5 1.1 1.1.4-.6A26.2 26.2 0 0 0 73 53.8v1Z"/><path fill="#F75049" d="m72.4 54.9.5-.2v.3l-.5-.1Z"/><path fill="#F75049" d="M72.4 54.9h.5v.4l-.4.4-.1.1h-.1a1.2 1.2 0 0 0-.1.2 1.3 1.3 0 0 0-.3.4H71a2.2 2.2 0 0 1 1.4-1.5ZM72.6 55.7ZM72.5 58.2a1.2 1.2 0 0 0 .3 0l-.5.8-.2-.1-.6-.5.8-.4h.1v.1h.1Z"/><path fill="#F75049" d="m72.5 55.7.4-.4v.3h-.1a1.4 1.4 0 0 0-.3.1ZM72.5 22.8ZM72.3 58ZM72 57.5v.2l.2.2.1.1-.8.4-.3-.5.7-.4ZM72.5 55.7l-.6.7a1.5 1.5 0 0 1 .3-.4 1 1 0 0 1 .2-.2h.1ZM71.8 22Z"/><path fill="#F75049" d="M71 56.4h.9v.1a1 1 0 0 0 0 .2h-.1v.5a.8.8 0 0 0 0 .2 1 1 0 0 0 .1.1l-.7.4c-.2-.4-.3-1-.2-1.5ZM71.7 21.7Z"/><path fill="#F75049" d="M71.2 57.9c0 .2.2.3.3.5l-8.5 4 .3-.7 7.9-3.8ZM69 13.2c.8 1 3.4 4.2 4.5 6.1a2.3 2.3 0 0 0-1.5.3c-.2 0-.3.1-.5.3a36.8 36.8 0 0 0-5.8-6.8 14 14 0 0 1 3.2.1ZM53.1 11.7l18.1 8.6-.2.5-17-8-.9-1ZM70.9 21.7l.1.6h-9.3l-.6-.6H71ZM70.8 13.4l-1.1-.1c-3-3-6.3-5.6-10-7.7l.6-.5a40.4 40.4 0 0 1 10.5 8.3Z"/><path fill="#F75049" d="M81 39.3a39 39 0 0 0-10.2-25.9l-1.1-.1a39.4 39.4 0 0 1 5.4 7l.2.7a38.4 38.4 0 0 1 5 18.6v.3a38.1 38.1 0 0 1-.1 2.5c.2.2.4.3.7.3A37.1 37.1 0 0 0 81 40v-.6ZM69 13.2l.7.1h-.8Z"/><path fill="#F75049" d="m69 13.2.7.1c1.9 2 3.5 4.2 5 6.5l-1.2-.5c-1.1-2-3.7-5-4.6-6ZM66.8 66c-2.1 2-4.5 3.9-7 5.4l.6-1.8s4.6-1.9 7-4.4c-.1.3-.4.5-.6.7ZM67.9 67.4l-3 2.7c1-.7 2-1.7 3-2.7ZM64.7 57.3l-1.4 4.4-1.6.7c.7-2.3 1.1-4.4 1.3-5.3l1.7.2ZM64.1 37.4l-.4.6-1.1-1 1-1.6.5 2Z"/><path fill="#F75049" d="m61.7 62.4 1.6-.7-.3.7-1.5.8.2-.8ZM61.7 22.3H61v-.6h.2l.6.6ZM60.8 73.8a2 2 0 0 1-.5 0l1.4-.8-1 .8Z"/><path fill="#F75049" d="m60.4 69.6-1.3-.9.1-.3c1-1.6 1.7-3.4 2.3-5.2l1.5-.8a129.5 129.5 0 0 1-2.6 7.2ZM60.3 5.1l-.6.5A40 40 0 0 0 40.5.7V0a40.8 40.8 0 0 1 19.8 5.1ZM59.5 72c.8.8 3.1-.2 5.4-1.9L61.7 73l-1.4.8a1 1 0 0 1-.5-.2c-.6-.5-.7-.8-.4-1.3V72ZM60 56.2c-.1 1.2-.7 4.8-1.3 7.7L56.1 65c.7-4.6.6-10.8.6-10.8l3.4 1.9ZM63.5 45.6c-.8-2.6-2-6.3-2.5-12.3v-.1C60.4 28 59 23.9 58.8 23a17 17 0 0 1-3.5-1c.4.7 1.1 2 1.7 4a29 29 0 0 1 1.1 7.2l.3 4.8c.3 2.8.7 7.4 2.5 11.7 1.7 4.1 6 6.6 10.1 6.7a2.2 2.2 0 0 1 1.4-1.5c-5-1-8.2-6.8-9-9.3ZM46.7 11.6a22.4 22.4 0 0 1 5.2 4.1 18.8 18.8 0 0 0-8-6l-.4-.2h-.2l-.2-.1-.4-.1-.5-.1h-.4l-.2-.1h-.7V6.5c4.3 0 7.4 1.2 9.7 2.9l1.7 2.5 1.7.8c.8 1 1.6 2 2.2 3 2 2.9 3.9 5 5 6h-.3v.5h.8l.3.2c-1.5-.2-3-.5-4.3-1-1.5-.7-3-1.8-4.8-3.2-1.8-1.4-3-2.6-5.9-4.5a12.9 12.9 0 0 0-6.2-1.9V9.7H41.7l.4.1a12.6 12.6 0 0 1 3.1 1l.8.4.7.4Z"/><path fill="#F75049" d="m56.1 65.1 2.6-1.2-.2.7-2.5 1.2.1-.7Z"/><path fill="#F75049" d="m58.5 64.6.2-.7 3-1.5-.2.8-3 1.4ZM56 65.8l2.5-1.2-.1.8c-.9 3.5-3.5 6.5-6.9 8.6-3.4 2.1-9 2.5-9 2.5.8-.4 1.6-1.1 2.3-2 3.8.6 9.6-2.7 10.8-6.8l.4-1.9ZM63.2 54.2c-1.2-1-3-4.1-3.8-7.2-.8-3.1-1-4.8-1.2-8.7l-.1-5v-1s-.2-3.7-1-6.4c-.7-2-1.4-3.2-1.8-3.8L55 22c-3-1.2-4-1.8-4-1.8a24.9 24.9 0 0 1 4.5 12.6c.2 3.8-.4 7-.4 10.1 0 4 1.8 11.5 9.7 12.8l-1.7-1.5ZM47 13.8c2.9 1.9 4 3 6 4.5 1.8 1.4 3.2 2.5 4.7 3.2-4-1.4-7.6-3.8-10.4-5.7-3.7-2.5-6.5-3-6.5-3V12c.7 0 3.7.2 6.2 1.9Z"/><path fill="#F75049" d="M50.6 29.5c1.3.4 2.4 1.1 3 1.6 0 .5.2 1 .3 1.4l-3.2-.3.3-.3-.1-.3v-.2h.5c0-.2-.2-.3-1-.8-1-.5-1.4-.7-2.2-.6a4 4 0 0 0-2.7 1.6l-1.1 1.1c-.5.4-.9.7-1 1l-1.3-.2v-1c0-2.3.7-3 1.5-3.2a27.7 27.7 0 0 1 7 .2ZM53.1 11.7l-.4-.2-.5-.7 1 1ZM52.2 10.8c-.5-.5-1-1-1.6-1.3l-3.8-5.6.8.2 4.6 6.7Z"/><path fill="#F75049" d="m54 12.8-1.7-.8-1.7-2.5 1.6 1.3.5.7.4.2 1 1ZM47.4 69.2l.4-.7 1.5-2.7c.4-.7.7-1.1.9-1.7.5-1.2 1.3-4 1.5-6.5.1-1.9-.4-3.8-1.2-5.5l-.8-1.5a26 26 0 0 0-6.4-5.4c-.6-.3-.4-.4-.2-.6l1.6-1a13.6 13.6 0 0 0 6.7 5.2s-2-4.8-1.6-4.9c.3 0 3 1.5 3.9 4 .9 2.3.7 7.3 0 10.1s-2.3 5-3.3 7l-2.2 3.9-.7.4Z"/><path fill="#F75049" d="M49.3 59.3s.4 1.3.4 3a8.4 8.4 0 0 1-.4 3.5l-1.5 2.7a41 41 0 0 1-1.2 2.2l-4.3-.4c-.6 0-.8-.6 0-1.2s6.2-5.7 6.6-7.3c.3-1.6 0-3.1 0-3.2l.4.7Z"/><path fill="#F75049" d="M49.5 65.4c1-1.6 1.6-10.2 1.3-12.3 0-.4-.2-.7-.3-1 .8 1.7 1.3 3.6 1.2 5.5-.2 2.5-1 5.3-1.5 6.5-.2.6-.5 1-.9 1.7l.2-.4ZM56 65.8l-8.3 4v-.1l.5-.8 7.9-3.8-.1.7Z"/><path fill="#F75049" d="m47.7 69.8-.2-.5.7-.4-.4.8ZM46.3 2.2l1.3 1.9-.8-.2-1-1.4.5-.3ZM45.9 39.3c.7 1 .8 1.8 1 2.7l.2 2-.4-.2c-.8-.4-1-.6-.9-.6 0-.1.6-.5.5-1.3-.2-.7-1.3-2.7-3-2.4v-5.7h.1c.1-.4.5-.7 1-1h.6c-.4.1-.8.5-.8.6 0 0-.2 2.5 0 3.4.3.9 1 1.5 1.7 2.5Z"/><path fill="#F75049" d="M46.8 4c-1.4-.3-2.7-.4-4-.5-.1-1.2-1.1-2.1-2.3-2.1V.7a40 40 0 0 1 29.2 12.6h-.8c-.9-.2-2-.3-3.2-.2a37.1 37.1 0 0 0-18.1-9l-1.3-1.9-.5.3 1 1.4ZM54 32.7l-.1-.2-3.2-.3c-.3.4-.9 1-1.5 1.2-.9.4-2.2-.3-2.7-.6-.5-.4-1.1-.4-1.4-.2l-.1.1c.8 0 1.2.5 2 1.1.8.6 1.6.9 2.7.4l3.4-1.3-2.6 5.2c-1.7 3.1-2 5-2.1 5.6-.1.4 0 .7.2 1 .1-.5.4-1 .8-1.5l.6-1c1-1.4 2.7-4.4 3.2-5.3a8.3 8.3 0 0 0 .7-4.2Z"/><path fill="#F75049" d="M46.4 31.6s.9 1 2 1.1c1.2.1 2-1 2.3-1l.2-.1c.1 0 .2.2 0 .3 0 0 0 .2-.2.3-.3.4-.9 1-1.5 1.2-.9.4-2.2-.3-2.7-.6-.5-.4-1.1-.4-1.4-.2l-.1.1h-.6c.3-.3.7-.6 1-1.1a4 4 0 0 1 2.8-1.6c.8 0 1.2 0 2.1.6 1 .5 1.1.6 1 .7 0 .1 0 .2-.4 0h-.3c-.5-.3-1.6-.8-2.4-.6-.8.1-1.8.8-1.8.9ZM39 3.6c0 .8.7 1.4 1.5 1.4a1.4 1.4 0 0 0 1.4-1.6c0-.7-.7-1.2-1.4-1.2a1.4 1.4 0 0 0-1.4 1.4Zm1.5-2.2a2.3 2.3 0 0 1 2.3 2.2c0 1.2-1 2.2-2.3 2.2a2.2 2.2 0 0 1-2.3-2.3c.1-1.2 1.1-2.1 2.3-2.1ZM42.6 76.5s5.5-.4 9-2.5a14.5 14.5 0 0 0 7-9.4l2.9-1.4a27.8 27.8 0 0 1-2.4 5.5c-1.5 2.5-4 4.7-7.2 6.2a37.3 37.3 0 0 1-9.5 1.7l.2-.1Z"/><path fill="#F75049" d="M42.4 76.6h.4c3-.2 6.1-.8 9.1-1.7-2.7 1.2-6 2-9.5 1.7ZM40.5.7v.7c-1.2 0-2.2 1-2.3 2l-4 .5 1-1.4-.5-.3-1.3 1.9a37.2 37.2 0 0 0-18.1 9 14 14 0 0 0-4 .2A40 40 0 0 1 40.5.7Z"/><path fill="#F75049" d="M40.5 0v.7A40 40 0 0 0 8.2 17.2l-.8-.4A40.2 40.2 0 0 1 40.5 0ZM53.5 31c-.5-1.6-1.2-3.7-1.6-4.5-.4-1.2-1.4-5.2-5-8.2a10.8 10.8 0 0 0-6.4-2.6c-.9 0-3.6.2-6.5 2.6-3.5 3-4.5 7-5 8.2L27.6 31c.5-.5 1.6-1.2 2.9-1.6-.2-.4-.6-1.4-.3-2.7a14 14 0 0 1 3.2-6.2c1.6-1.8 5-3.1 7.2-3.2 2.3 0 5.6 1.4 7.2 3.2a14 14 0 0 1 3.2 6.2c.3 1.3 0 2.3-.3 2.7 1.3.4 2.4 1.1 3 1.6Z"/><path fill="#F75049" d="M51 26.8a14 14 0 0 0-3.3-6.2c-1.6-1.8-5-3.1-7.2-3.2v11l-.6 3.8c-.2 2.5 0 8 0 9.7a6 6 0 0 0 .6 2.8c.7 0 1.8-1 2-1.3l.3-.7s.9.3 1.3.2c.5 0 .9-.4 1-.6.2-.2.2-.4-.2-1-.4-.4-1-.6-1.4-.2l-1 .5s-.4 0-.4-2v-7c0-2.4.7-3 1.5-3.3a27.7 27.7 0 0 1 7 .2c.2-.4.6-1.4.3-2.7ZM43 48.2c-1.8 0-2.5.8-2.5.8s-.7-.7-2.5-.8c-1.6-.2-3.4 1-4.5 2.6.2.3.8.8 2 .8 1.6 0 3-.7 3.1-.7 0 0 .8.6 1.9.7 1 0 1.9-.7 1.9-.7s1.5.8 3.1.7c1.2 0 1.8-.5 2-.8-1.1-1.5-2.9-2.8-4.5-2.6ZM41.9 53.5a2 2 0 0 0-1.4-.7 2 2 0 0 0-1.4.7l-.6.5h4l-.6-.5ZM40.5 72.5a45.5 45.5 0 0 0 4 1.3c-.8 1.4-2 2.2-2 2.2s-.5.6-1.5.6h-.5a2.7 2.7 0 0 1-2-.6s-1.2-.8-2-2.2a46.2 46.2 0 0 0 4-1.3ZM40.2 12v.8s-2.8.5-6.5 3a45.2 45.2 0 0 1-10.4 5.7c1.5-.7 3-1.8 4.8-3.2 1.8-1.4 3-2.6 5.9-4.5 2.5-1.7 5.5-1.9 6.2-1.9ZM45.2 58a5.8 5.8 0 0 0-2-3s.3 2.3 0 3.7C43 60 42 61 41.4 62.5a7 7 0 0 0-.4 1l-.5 2.3-.5-2.4a8 8 0 0 0-.4-1c-.6-1.4-1.5-2.4-1.8-3.7-.3-1.4 0-3.8 0-3.8l-.4.4c-.3.2-1.2 1.3-1.6 2.8v1.2c0 .7.3 1.3.6 2l.5.9c.5 1.1 3 5.2 3.6 6 .6-.8 3-4.9 3.6-6l.5-1c.3-.6.5-1.2.6-1.9v-1.2ZM29.6 31.3c0 .2.2.2.5 0v.3c-.1 0-.2.2 0 .3 0 0 0 .2.2.3l-3.2.3c0-.4.2-.9.4-1.4.5-.5 1.6-1.2 2.9-1.6l1.3-.3c2.4-.1 5 0 5.7.1.8.2 1.5 1 1.5 3.2v1l-1.3.2c-.1-.3-.5-.6-1-1l-1.1-1.1a4 4 0 0 0-2.7-1.6c-.8 0-1.2 0-2.1.6-1 .5-1.1.6-1 .7ZM32.1 61.8c.4 1.6 5.8 6.7 6.6 7.3.8.6.6 1.1 0 1.2l-4.3.4a32 32 0 0 1-1.2-2.2l-1.5-2.7-.2-.4c-.2-.8-.3-1.5-.2-3 0-1.8.4-3 .4-3l.4-.8s-.3 1.6 0 3.2ZM38.6 76.6c-3.6.2-6.8-.5-9.5-1.7a37.3 37.3 0 0 0 9.5 1.7Z"/><path fill="#F75049" d="m22.5 64.6 2.5 1.2.4 2c1.2 4 7 7.3 10.8 6.7.7.9 1.5 1.6 2.2 2 0 0-5.5-.4-9-2.5a14.5 14.5 0 0 1-7-9.4ZM30.1 31.4h-.5c0-.2.2-.3 1-.8 1-.5 1.4-.7 2.2-.6a4 4 0 0 1 2.7 1.6l1.2 1.2H36v-.2c-.4-.2-1-.2-1.5.2-.6.3-1.8 1-2.7.6A5.3 5.3 0 0 1 30 32l.1-.3h.2c.2.1 1 1.2 2.2 1.1a3 3 0 0 0 2-1.1s-.9-.8-1.7-1c-.8 0-2 .4-2.4.6l-.3.2Z"/><path fill="#F75049" d="M36.7 32.8c.4.3.8.6.9 1 .2.6 0 5.7 0 5.7-1.6-.3-2.7 1.7-2.9 2.4-.1.8.4 1.2.5 1.3 0 0-.1.2-1 .6a4 4 0 0 0-.3.2c0-.4 0-1.3.2-2 .2-.9.3-1.7 1-2.7.7-1 1.4-1.6 1.6-2.5.3-1 .1-3.3.1-3.4 0 0-.4-.5-.8-.7h.7ZM35.2 2.5l-1 1.4-.8.2 1.3-1.9.5.3Z"/><path fill="#F75049" d="m34.2 4-3.8 5.5-1.6 1.3 4.6-6.7.8-.2ZM49.3 59.3l-.2-3.3a8.9 8.9 0 0 0-1.6-5.2c-.2.3-.8.8-2 .8-1.6 0-3-.7-3.1-.7 0 .3.4 1 1.6 2a26.9 26.9 0 0 1 3.5 3.8l.5.6a11.3 11.3 0 0 1 1.3 2ZM35.5 51.6c-1.2 0-1.8-.5-2-.8l-.2.3A8.9 8.9 0 0 0 32 56l-.2 3.3a11.6 11.6 0 0 1 1.3-2l.5-.6.4-.5c.8-1 1.8-2 3.1-3.3 1.2-1 1.5-1.7 1.6-2 0 0-1.5.8-3.1.7ZM33.5 69.3l-.2.5v-.1l-.5-.8.7.4Z"/><path fill="#F75049" d="m32.8 68.9.4.8-8.2-3.9-.1-.7 7.9 3.8Z"/><path fill="#F75049" d="M36.3 43.7s1.5.8 1.6 1c.2 0 .4.2-.2.5a26 26 0 0 0-6.4 5.4l-.8 1.5c-.8 1.7-1.3 3.6-1.2 5.5a27 27 0 0 0 1.5 6.5 12 12 0 0 0 .9 1.7l1.5 2.7.4.7-.8-.3-2.2-4c-1-1.8-2.6-4.1-3.3-6.9-.7-2.8-.9-7.8 0-10.2 1-2.4 3.6-4 3.9-3.9.3.1-1.6 5-1.6 5s.6-1.2 2.5-2.8c1.9-1.7 4.2-2.4 4.2-2.4Z"/><path fill="#F75049" d="M34 33.8c.8-.6 1.2-1.1 2-1v-.2c-.4-.2-1-.2-1.5.2-.6.3-1.8 1-2.7.6-.6-.3-1.2-.8-1.5-1.2l-3.2.3V34.1c0 1 .4 2.1.7 2.8l3.2 5.3.6 1c.4.6.7 1 .8 1.4.1-.2.3-.5.2-.9 0-.6-.4-2.5-2.1-5.6l-2.6-5.2 3.4 1.3c1 .5 1.9.2 2.7-.4ZM30.4 9.5 28.7 12l-1.7.8.9-1 .4-.3.5-.7c.5-.5 1-1 1.6-1.3ZM25.9 22c3-1.2 4-1.8 4-1.8a24.9 24.9 0 0 0-4.5 12.6c-.8.3-1.6.4-2.5.4v-1s.2-3.6 1-6.3c.7-2 1.4-3.2 1.8-3.8l.2-.1Z"/><path fill="#F75049" d="m28.8 10.8-.5.7-.4.2.9-.9ZM22.2 23c1-.2 2.3-.5 3.5-1-.4.7-1.1 2-1.7 4a29 29 0 0 0-1 6.2l-.1 1H20c.6-5.2 1.9-9.3 2.2-10.2ZM25.4 32.8c-.2 3.8.4 7 .4 10.1 0 4-1.8 11.5-9.7 12.8l1.7-1.5c1.2-1 3-4.1 3.8-7.2.8-3.1 1-4.8 1.2-8.7l.1-5c.9-.1 1.7-.2 2.5-.5ZM25 65.8l-2.5-1.2-.2-.7 2.6 1.2.1.7Z"/><path fill="#F75049" d="M24.9 65.1 22.3 64l-1.4-7.7c1.7-.8 3.4-2 3.4-2s0 6.3.6 11Z"/><path fill="#F75049" d="m22.5 64.6-3-1.4-.2-.8 3 1.5.2.7ZM19.6 23.2l2.6-.2c-.3 1-1.6 5-2.2 10.2-.6 6.1-1.7 9.8-2.5 12.4-.7 2.5-4 8.4-8.9 9.3l-.5-.2v-.9c1.5-1.3 5-4.8 6.7-9.4a48 48 0 0 0 2.1-7.2l.6.8 1.1-1-1.3-1.8 1.3-7.4 1-4.6ZM21.8 68.4l.1.3-1.3 1-.2-.6a130 130 0 0 1-2.4-6.6l1.5.7c.6 1.8 1.4 3.6 2.3 5.2Z"/><path fill="#F75049" d="M20 33.2H23l-.3 4.8c-.3 2.8-.7 7.4-2.5 11.7-1.7 4.1-6 6.6-10.1 6.7A2.2 2.2 0 0 0 8.6 55c5-1 8.2-6.8 9-9.3.7-2.6 1.8-6.3 2.4-12.3v-.1ZM20 21.7v.6h-.7l.6-.6h.2Z"/><path fill="#F75049" d="M10.1 21.7H20l-.6.6H10l.1-.6ZM19.5 63.2l-1.5-.8-.3-.7 1.6.7.2.8Z"/><path fill="#F75049" d="M23.3 21.5c-1.4.5-2.8.8-4.3 1l.3-.2h.8v-.6h-.2c1-1 3-3 4.9-5.8l2.2-3.1 1.7-.8 1.7-2.5c2.3-1.7 5.4-2.8 9.8-2.9V9h-.8l-.2.1h-.4l-.5.2H38l-.2.1-.2.1a16.2 16.2 0 0 0-2 .8 16.2 16.2 0 0 0-4.2 3c-.8.7-1.6 1.5-2.2 2.4a26.2 26.2 0 0 1 5.2-4.1l.7-.4.8-.4a14.8 14.8 0 0 1 3-1H39.8l.4-.1v2.2c-.6 0-3.6.2-6.1 1.9-2.9 1.9-4 3-6 4.5a31.8 31.8 0 0 1-4.7 3.2ZM17.3 35.1l1.3 1.8-1.1 1.1-.6-.8.4-2ZM18 57c.2 1 .6 3 1.3 5.4l-1.6-.7-1.4-4.4L18 57Z"/><path fill="#F75049" d="m18 62.5-8.5-4.1.3-.5 8 3.8c0 .2 0 .5.2.8ZM12 13.2c1-.1 2.1-.2 3.3 0a36 36 0 0 0-5.8 6.7 2.2 2.2 0 0 0-2-.6l1.2-1.9 3.4-4.2ZM13.5 65.2a26 26 0 0 0 7 4.4l.8 1.8a37 37 0 0 1-7.8-6.2Z"/><path fill="#F75049" d="M11.3 13.3h.8l-3.4 4.1-.5-.2c1-1.4 2-2.7 3.1-3.9ZM9 19.6a2.2 2.2 0 0 1 1 1.2 2.2 2.2 0 0 1-1 2.6l-.2-.4-.7.7a2.2 2.2 0 0 1-.9 0l-.4-.3A2.2 2.2 0 0 1 5.7 21l.2-.6.5-.6a2.3 2.3 0 0 1 2.6-.2Zm-1.8 3.1h.1l.1.1h.2a.7.7 0 0 0 .1 0h.8a1 1 0 0 0 .2-.2h.1a1 1 0 0 0 .2-.2l.1-.2V22l.1-.1v-.2h.1V21.4a1.4 1.4 0 0 0 0-.2V21l-.1-.1a1 1 0 0 0-.1-.2.8.8 0 0 0-.1-.1 2 2 0 0 0-.2-.2h-.1v-.1a1.4 1.4 0 0 0-2 .5c-.4.7-.2 1.5.5 1.9ZM8.6 54.9a2.3 2.3 0 0 1 1.4 1.5A2.2 2.2 0 0 1 8.7 59a2.3 2.3 0 0 1-2-.1 2.3 2.3 0 0 1-1-1.1 2.2 2.2 0 0 1-.1-1.4c.1-.6.5-1 1-1.4a2.3 2.3 0 0 1 2-.1Zm-1.7 1a.8.8 0 0 0-.1 0 .7.7 0 0 0-.1.1 1.3 1.3 0 0 0-.1.2 1.2 1.2 0 0 0-.1.1v.1l-.1.2v.7a1.5 1.5 0 0 0 .1.3 1.4 1.4 0 0 0 1.4.7.7.7 0 0 0 .1 0h.2a2 2 0 0 0 .2-.1 1.2 1.2 0 0 0 .2 0V58h.1a.5.5 0 0 0 0-.1h.1a1.4 1.4 0 0 0 .2-.4l.1-.1a1 1 0 0 0 0-.2V57l.1-.2v-.2a1 1 0 0 0 0-.3H9v-.2a1.4 1.4 0 0 0-.3-.3 1.1 1.1 0 0 0-.2 0 1.4 1.4 0 0 0-.1-.2h-.1l-.2-.1H8a.8.8 0 0 0-.1 0H7.6a.3.3 0 0 0-.1 0h-.1a1 1 0 0 0-.2 0l-.1.1a1 1 0 0 0-.2.1ZM9.8 20.3l18-8.6-.8 1-17 8-.2-.4ZM9.2 22.1Z"/><path fill="#F75049" d="m8.8 23 .3.4c-.3.2-.7.3-1 .3l.7-.7ZM7.4 16.8l.8.4a38.5 38.5 0 0 0-2.3 3.2l-.2.6c-3.1 5.6-5 12-5 18.7l-.7-.4a39 39 0 0 1 7.4-22.5Z"/><path fill="#F75049" d="M8 23.7c.4 0 .8-.1 1-.3l.4.4 8 11.3a88 88 0 0 1-.5 2.1L8.1 23.7ZM8 53.8v1a2.3 2.3 0 0 0-.4 0l-.1-.2v-.3l.6-.5ZM7.9 23.7H8v30.1l-.6.5V23.7h.4ZM7.5 22.8ZM7.5 54.6v.1ZM7.4 55.6ZM6.8 56ZM6.7 58.9a2.3 2.3 0 0 0 2 0 36.5 36.5 0 0 0 12.6 12.5l.2.6c-1.2 1.1-5.7-1.6-8.4-4.6l-1.8-2.2c-2-2.5-3.7-5-3.7-5l-1-1.3Z"/><path fill="#F75049" d="M11.3 65.2A54 54 0 0 1 6.7 59l.9 1.3s1.7 2.5 3.7 5ZM6.4 19.8c.5-.9 1.1-1.8 1.8-2.6l.5.2c-.5.7-1 1.3-1.2 1.9-.5 0-.8.3-1.1.5ZM.8 39.7C.8 33 2.6 26.6 5.7 21a2.2 2.2 0 0 0 1 2.4l.5.2a35.7 35.7 0 0 0-.6 31.5 2.2 2.2 0 0 0-1 1.9c-1-1.5-2.2-3.7-3.2-6.1C1.5 48 1 45.2.8 42.3"/><path fill="#F75049" d="M2.4 51.2a32.3 32.3 0 0 0 3.7 7.2c1.3 2 3 4.3 5.2 6.8l1.8 2.2c2.7 3 7.2 5.7 8.4 4.6l.1.3c.3.5.2.8-.4 1.3a1 1 0 0 1-.5.2c-8.7-5-15.3-13-18.3-22.6Z"/><path fill="#F75049" d="M.7 46.2A25.5 25.5 0 0 0 2.4 51a1.5 1.5 0 0 0 0 .2c3 9.7 9.6 17.8 18.3 22.7-.6 0-1.5-.2-2.6-.7A40.5 40.5 0 0 1 .5 46.3h.2Z"/><path fill="#F75049" d="M5.7 57.8c-2.1-3.4-3-5.9-3.3-6.6V50.8c1 2.4 2.3 4.6 3.1 6 0 .3 0 .6.2.9ZM2.4 50.9C1.6 49.3 1 47.7.7 46.2H.5a39 39 0 0 1-.4-3.5c.3 0 .5-.2.7-.4.2 3 .7 5.8 1.6 8.6Z"/><path fill="#F75049" d="M.8 40.5v-.8l-.8-.4a37 37 0 0 0 .1 3.4c.3 0 .5-.2.7-.4v-1.8Z"/></svg>