<svg xmlns="http://www.w3.org/2000/svg" fill="none" viewBox="0 0 84 84"><path fill="#F75049" d="M70 84H50.7l-1.7-3.2-5 3.2h-22c-5.2-3.7-7.5-9-8.5-15-1.9-11.8.8-22.3 10.4-30.3 1-.9 1-1.5.3-2.6a32 32 0 0 1-5.4-19.4c.5-6.9 3-12.7 9-16.7H49c3.2 2.3 6 5 7.1 8.8 2.8 8.9 2 17.3-3.7 24.9-1.5 2-3.2 3.9-4.8 5.8-.4.5-.9 1.2-.7 1.6L52 51l.7-.2c.5-2.2 1.2-4.4 1.5-6.6.2-1.3.6-1.7 1.8-1.6h11l3.3.1c-.7 8.8-2.4 17-7.4 24.2-.9 1.3-.9 2.2-.1 3.5L70 84ZM34 52.7c-2.5 2-3.8 4.3-4.2 7-.5 3 0 5.9 2.6 7.9 2.5 1.8 5.1.8 7.5-.5.6-.3 1.1-1.6.9-2-2.1-4.1-4.4-8.1-6.8-12.4Zm3.6-25.8c2.7-3 4.2-6 4.8-9.2.6-3.6-1.5-5.8-5-5.4-2.8.3-4.2 2.6-3.3 5.9.8 2.8 2.2 5.5 3.5 8.7ZM0 71.1C1.5 73 3 75 4.7 76.5c2.6 2.6 5.4 5 8.2 7.5H0V71.1ZM71.1 84c1.8-1.5 3.8-3 5.4-4.7 2.6-2.6 5-5.4 7.5-8.2V84H71.1ZM12.9 0 0 12.9V0h12.9ZM84 12.9l-2.3-2.5-9.2-9L71.1 0H84v12.9Z"/></svg>