<svg xmlns="http://www.w3.org/2000/svg" fill="none" viewBox="0 0 107 70"><path fill="#F75049" d="M57 70 44.3 58.7c-1.4-1.2-1.6-1.2-2.1.5l-2.3 7.3c-.3 1-.5 2-2 1.8-1.2-.2-2-1.4-1.7-2.8a1813.8 1813.8 0 0 1 7.7-21c.3-.6.9-1 1.3-1.5.5.6 1.5 1.1 1.5 1.7 0 1.5-.4 3-.6 4.4l-.5 2c.7-.3 1.4-.4 1.9-.8l7-5.4c1-.9 2.1-2.1 1.4-3.7-.6-1.5-2.2-1.7-3.6-1.6-2.5.2-5 .4-7.3 1.3-3.8 1.3-7.4 3.2-11.2 4.9l-1.6.9c-.8.4-1.3.1-1.1-.8.4-2.4 1.1-4.5 3.8-5.6 4.5-1.9 9-3.7 14-4.2 2-.1 4.2-.1 6.2.4 4.4 1 6 4.9 3.3 8.6a31 31 0 0 1-5.6 5.6c-1.9 1.5-4 2.6-6 3.9-1.4.9-1.4 1-.1 2l12 9.4c1.9 1.5 1.8 1.6 1 4H57ZM0 19.2c1-3.3 3.5-4.8 6.5-5.9 4.8-1.7 9.5-3.4 14.7-3.1l2.1.1c4.5 1 7.3 4.8 3.7 9.3-1.7 2-3.8 3.8-5.8 5.4-1.6 1.3-3.4 2.3-5.1 3.4-2 1.2-2 1.2-.2 2.6l11.4 8.7c.4.4 1 .7 1.3 1.3.3.5.6 1.4.4 1.9-.3.4-1.1.8-1.7.8-1.7.1-2.8-1-3.9-2l-8-7.4c-2.4-2.1-4-1.7-5 1.3l-1.7 5.3c-.4 1-.9 1.6-2 1.2-1-.4-1.7-1-1.5-2.2 0-.5.2-.9.3-1.3l7.5-20c.2-.5.7-1 1-1.4.6.5 1.6 1 1.7 1.6 0 1.2-.3 2.5-.5 3.8-.1 1-.4 1.8-.6 2.7.8-.4 1.7-.7 2.4-1.2l6.1-4.6c.7-.6 1.3-1.3 1.7-2 1-1.7.4-3-1.4-3.6-2.4-1-4.9-.4-7.3.2a60.7 60.7 0 0 0-13.4 5.7l-2.7 1v-1.6ZM107 21.4c-3.9-1.4-7.3-.2-10.6 1.7-1.5.8-1.4 1-.7 2.6.4.7 1.5 1.3.8 2.3-.7.9-1.5 1.9-2.5 2.3-1 .5-2.3.6-3.6.6-1.4 0-1.9-.7-1.3-2 .4-1 1.2-2 1.7-3 .3-.6.6-1.3.6-2s-.5-1.4-.8-2.1L89 23.3l-3.5 4.4c-.4.4-1.1.9-1.7.8-1 0-1.4-.9-1.5-1.9v-1.2L81 26c-.9 1-1.6 2-2.6 2.7-.3.4-1.1.4-1.6.3-.3-.1-.5-.8-.7-1.3-.1-.2 0-.5 0-.8 1.2-3.4 2.3-6.9 3.7-10.2.6-1.5 2-1.6 3.9-.7 1.7 1 1.7 1 2.5-.8L93.2 0h.5c1.4 2.6 1 5-.4 7.6-1.8 3.7-3.4 7.6-5 11.4-.6 1.3-1.7 2.5-1.2 4.1 1-1.1 2.2-2.2 3.1-3.5.5-.8.6-1.8.8-2.8a9 9 0 0 1 3-5c1.1-1 2.4-1.7 4-1.5 3.3.2 3.4.4 2 3.2l-.4.5c-.6.8-.4 2.2-1.8 2.3v-3.8c-.5.1-1 .1-1.2.4a7.7 7.7 0 0 0-2.8 7.6c.4 1.4.7 1.6 2 .8 2.1-1.6 4.5-2.8 7-3.4 1.8-.4 3.2-.3 4.2 1.3v2.2Zm-22.5-2.2c-.5-.6-.9-1.2-1.5-1.4-.3-.2-1.1.4-1.3.8-.8 1.8-1.4 3.6-2 5.4-.2.2 0 .5 0 .7l.6-.3 3.5-4c.3-.3.4-.7.7-1.2Zm9 9-1.2-1.4-1.2 1.5c.3.2.6.5 1 .5s.8-.4 1.4-.7Z"/><path fill="#F75049" d="M66 28.3v-.8l.3-2-1.5 1.6c-1 1-1.7 2-2.6 3-.5.4-1.1 1-1.7 1-.8 0-1.4-.7-1.4-1.7s-.4-1-1-.4l-1.6 1.8c-1.3 1.6-2.5 1.4-3.3-.4-.5-1.4-.5-1.4-1.4-.4l-1.3 1.8c-.5.7-1.3 1.1-2 .6-.5-.5-.8-1.4-.7-2 .1-1.3.7-2.4 1-3.6l.6-1.5v-.8c-.3 0-.7 0-.9.3l-4.1 5.8c-.5.7-.7 1.5-1.1 2.1-.2.4-.8.9-1 .8a2 2 0 0 1-1-1c-.3-.4-.2-1-.2-1.6-.1-.6-.4-.7-.9-.2-1 .8-1.9 1.8-3 2.6-2.6 1.7-4.2 1.2-5.4-1.8-.4-1-.8-1.1-1.5-.3l-2.5 3c-.6.7-1.3 1.4-2.3.9-1-.5-1-1.4-.7-2.3l2-5.2a118.5 118.5 0 0 1 2.7-6.1c.6.2 1.5.5 1.7 1a4 4 0 0 1 0 2.3c0 .8-.6 1.5-.9 2.2l-.3 1.7c.5-.3 1-.5 1.3-.9.7-.8 1.2-1.7 1.8-2.5l3.4-4.4c.6-.7 1.6-1.2 2.5-1.5 1-.3 2.1-.5 2.8.7.6 1.3.2 3.6-.8 4.2h-1.2c-.2 0-.2-.6-.2-.9l-.1-1.2c-.5.1-1 .2-1.3.6a14 14 0 0 0-3.7 7.2c-.2 1.9.6 2.4 2.1 1.5 2.8-1.5 5-3.6 6.2-6.7L49 10.4c.3-.6.5-1.2.9-1.7.5-.9 1.4-.9 1.8.1.3 1 .4 2.1.1 3C51 14 50 16 49 18l-2 4.6c-.1.2 0 .5.1.7l.5-.3 2.7-3.3c.7-.8 1.6-1.1 2.6-.7 1 .4 1.5 1 1.1 2.1-.4 1-.8 2.2-1 3.3-.2.5-.2 1-.2 1.5l1.4-1 2.2-4c.4-.7.7-1.6 1.2-2.3.8-1.1 2-1.5 3.2-1 1 .3 1.7 1.1 2.8 0 .8-.6 2.5 1.7 2 3L64 24.2l.2.7.4-.2c1.6-1.8 3.6-3.2 4.4-5.7l.6-1.4c.5-1 1.4-1.3 2.2-.8.8.6.5 1.2 0 1.9l-.3.7-.5 1.7c.4-.4.9-.8 1.2-1.3.8-.8 1.4-1.8 2.2-2.7a3 3 0 0 1 1.5-1c.5 0 1.3 0 1.7.4.2.3 0 1-.2 1.6l-1.9 5.5c-.3 1.1-1 .8-1.2.3-.5-.6-.6-1.5-.9-2.3l-.3-.9c-.2.2-.5.3-.6.6l-3.7 7.6c-.3.7.2 2.2-1.3 1.9-1.1-.3-1.6-1.2-1.5-2.5Zm-9-1.2.5-.1c1.5-1.7 3-3.4 4.4-5.3.2-.2-.5-1.3-1-1.8-.2-.1-1.2.3-1.4.6-1 1.9-1.7 3.8-2.5 5.6v1ZM78.3 46.2c0 .3 0 1-.2 1.7-.3 1.2-1 2.1-2.3 2.3-1.2.2-2.4.2-3.2-1-.8-1-.7-2.3 0-3.4.3-.6.7-1.1 1.2-1.4 1-.8 1.2-1.7.5-2.8-.3-.4-.8-1.4-.9-1.3-.8.3-1.7.6-2.2 1.3-.5.6-.6 1.6-1 2.4-.8 2.3-2 4.3-4 5.8a4 4 0 0 1-3.5.9c-2-.4-3-1.8-2.5-3.7 1-3.8 2.7-7.2 5.5-10 1.7-1.7 2.9-1.6 4.7.1 2 2 2.4 2.1 4.3 0 1.5-1.9 3.3-3.3 5.5-4.2a4 4 0 0 1 2.5 0c.4.2.7 1 1.1 1.4l-1.2.9c-1 .5-2.1 1-3 1.6-.7.5-1.3 1.3-1.7 2-.2.6 0 1.4 0 2 .5 0 1.1 0 1.7-.3a8.2 8.2 0 0 0 4.1-3.4 16 16 0 0 1 4-3.9c1-.8 2.5-1.1 3.7-.2 1.2 1 .8 2.3.6 3.5-.1.8-.4 1.6-.7 2.3-.8 1.8-1.9 3-4 3-1.5 0-2.6.6-2.9 2.1v1.8c.6 0 1.4.2 2 0 1.1-.7 2.4-1.5 3.4-2.5 1.5-1.4 2.7-3 4.1-4.5l.6-.3.2.7c-.5 3-6.4 8.9-9.2 9.5-2.3.4-3.6-.4-4.1-2.7-.2-.6-.2-1.2-.2-1.8-.1-.7.8-1.7-.3-2-1-.2-2.6 1.2-2.7 2.1l.1 2Zm-9.7-4.7c-.2-.2-.4-.7-.8-1h-.9a12.5 12.5 0 0 0-3.2 6.1c0 .6 0 1.1.8.9 1.2-.4 4.1-4.5 4-6Zm19-2c1.6 0 3.1-2 2.7-3.6 0-.2-.8-.4-1-.3l-2.5 3c-.6.8 0 1 .8 1Zm-11 7-1.1-1c-.4.6-.8 1.1-1 1.7l.5.7 1.6-1.3ZM97.9 52.4h.2l1.8.6c-.6.3-1.1.7-1.8.8-7.6.8-15.3 1.4-23 2.3-5.9.8-11.8 1.9-17.8 2.9-.7.1-1.5.6-1.9-.6-.3-1 .1-1.7 1.5-2l5.8-.8L89.4 53l8.5-.5Z"/><path fill="#F75049" d="m34.7 15.6 1 .1-.4.9-2.1 3c-.6.8-1.3.7-2.1.4-.2 0-.5-.4-.5-.7-.2-1.5 1-3 2.6-3.4l1.5-.3Z"/></svg>