<svg xmlns="http://www.w3.org/2000/svg" fill="none" viewBox="0 0 111 20"><path fill="#F75049" d="M27.2 13.5H16.7c0 1.3.6 2.4 1.8 2.8 1.4.5 3.2.2 3.8-.8.4-.5.8-.7 1.4-.7H27a4 4 0 0 1-2.4 4c-3 1.4-6.2 1.4-9.2 0-1.9-1-2.8-2.7-3-4.7a18 18 0 0 1 .2-5.3c.7-3 3-4.6 6.6-4.8 5-.3 8 2.5 8 7.5v2Zm-4.6-3.3c0-1.8-1-2.8-2.7-2.8-2-.1-3.2.9-3.2 2.8h5.9ZM63.4 19.8c-.7 0-1.4 0-2-.2-3.5-.6-5.5-2.9-5.7-6.4 0-1.5.1-3 .4-4.4.6-2.4 2.2-3.8 4.6-4.4 1.8-.5 3.6-.5 5.4-.1 3 .7 4.9 2.8 5.1 6 .1 1.4.1 2.9-.2 4.3-.6 3-3 5-6 5.1h-1.6v.1ZM60 12l.1 1.5c.3 1.9 1.4 2.8 3.4 2.8s3.2-.8 3.5-2.6c.2-1 .2-2.1 0-3.1-.3-2.1-1.5-3-3.6-2.9-2 .1-3 1.1-3.3 3.2v1.1ZM87.5 19.5h-4.4V11c0-.6 0-1.2-.2-1.7a2 2 0 0 0-.4-1c-1-1-2.4-.8-3.6-.6-1 .1-1.7.9-1.8 2a44 44 0 0 0-.2 3.3v6.5h-4.1V4.3h1.7l1 2c1.8-2.3 4.4-2.5 7.1-2.2 2.6.2 4.2 1.7 4.5 4.1.3 3.8.3 7.5.4 11.3ZM43.6 13.5c.5 2.3-1 4.9-3.4 5.7a11 11 0 0 1-7.7 0c-2.8-1.1-3.8-3.5-4-6.3 0-1.2 0-2.5.3-3.7.8-3.5 3.6-5.4 7.8-5.2 1.3 0 2.7.4 4 .9 2.1.8 3.3 3 3.1 5.4h-4.1l-.2-.1c-.7-2.3-1.5-2.8-3.7-2.6-1.7.2-2.8 1.4-2.9 3.3v2c.4 3 2.4 3.8 4.9 3 .8-.2 1.3-1.3 2.3-2.4h3.6ZM106 13.5h4.1a5 5 0 0 1-2.8 5.4c-2.9 1.3-5.9 1.3-8.8 0-2-1-3.2-2.8-3.3-5-.1-1.9 0-3.8.5-5.6.4-1.8 1.7-3 3.5-3.7 2.4-.8 5-.9 7.4 0 2.4.9 3.8 3 3.6 5.7H106l-.2-.5c-.5-1.7-1.1-2.2-2.7-2.2-2 0-3.2.6-3.5 2.2-.3 1.3-.3 2.7 0 4 .3 1.7 1.4 2.4 3.3 2.4 1.7 0 2.3-.5 3-2.3v-.4ZM46.7 7.6h-2.2V5.4l2.2-1.2V.4H51v3.7h4v3.5h-3.8V15c0 .8.9 1 1.6 1.2H55v3.4c-1.5 0-3 .2-4.4 0-2.6-.4-3.8-2-3.9-5V7.7ZM11.5 19.7c-1.5 0-2.8.2-4.2 0-2.6-.3-4-2-4-4.6V7.6H1.2c-.6-2-.6-2 1.2-2.9.7-.3 1-.8.9-1.5V.4h4.2v3.7h4v3.5H7.6v7.2c.1 1.1 1 1.4 2 1.5h1.9v3.4ZM89.5 4.2h4.2v15.3h-4.2V4.2Z"/></svg>