<svg xmlns="http://www.w3.org/2000/svg" fill="none" viewBox="0 0 106 92"><path fill="#F75049" d="M53.1 0h.3a96.5 96.5 0 0 1 19.7 2.7l2.5.6c.3.1.3.2.3.5V21a37.4 37.4 0 0 1-11.3 26.9c-3.7 3.5-8 6-13 7.4l-1.3.4h-.7a32.7 32.7 0 0 1-17.2-11.4A39.2 39.2 0 0 1 24.2 22V3.5l.2-.1a114.5 114.5 0 0 1 17.7-3l5-.3.3-.1h5.7ZM28 17.2v9.6a24.5 24.5 0 0 0 10.5 21 19.8 19.8 0 0 0 23.6-.4A24.5 24.5 0 0 0 72 29V5.6c0-.4 0-.4-.4-.5l-6.8-1.7a74.4 74.4 0 0 0-17.2-1.6l-4.5.3a140.7 140.7 0 0 0-14.7 3c-.4.1-.4.1-.4.6v11.5ZM105.6 71.9h-1.2c-.2 0-.4.1-.5.3l-5.4 8.9-.2.5V89.5h2c.2 0 .3.1.3.4v.4c0 .4 0 .4-.4.4h-6.4c-.4 0-.4 0-.4-.4 0-1 0-.7.8-.8h1.4V81.9l-.1-.6-5.9-9c0-.3-.2-.4-.5-.4h-1c-.3 0-.4 0-.4-.3V71c0-.2 0-.2.2-.2h6.8c.5 0 .5 0 .5.4 0 .8 0 .7-.7.7h-2l5 7.9 4.8-7.8h-2.4c-.2 0-.3-.2-.3-.4V71c0-.3 0-.4.3-.3h5.7v1ZM105.6 60.5h-.5v-1h-2.7v3h1.8c.2 0 .3-.1.3-.3V62c0-.5 0-.5.5-.4v2.2h-.2c-.2 0-.3 0-.3-.3 0-.6 0-.6-.7-.6h-1.4v3.1h.6c.2 0 .3.1.2.4h-2.4c-.2 0-.3 0-.3-.2s.1-.2.3-.2h.6v-6.6h-.6c-.1 0-.3 0-.3-.3 0-.2.2-.2.3-.2h4s.2 0 .3-.2c0-.2.3-.1.5 0v1.7ZM34.2 80.8v-8.5c0-.3-.1-.4-.4-.4h-1.5c-.4 0-.4 0-.4-.4 0-.9-.1-.7.8-.7h8c4.7-.1 8.8 3.3 9.7 7.9a9.9 9.9 0 0 1-9.8 12h-8.2c-.5 0-.5 0-.5-.5 0-.8 0-.6.7-.7h1.2c.4 0 .4 0 .4-.3v-8.5Zm2.6 8.4h3.9l1-.1a6.8 6.8 0 0 0 4.7-3.6c1-1.7 1.3-3.5 1.1-5.4a8.9 8.9 0 0 0-1.8-5 6.6 6.6 0 0 0-5.5-2.7h-3.4v16.8ZM55.5 75.3v13.9c0 .3 0 .4.3.4h1.5c.4 0 .4 0 .4.3 0 .6-.3.8-.8.8H52c-.4 0-.4 0-.4-.4 0-.5.3-.7.8-.7H53.8V73.3c0-.3 0-.5-.2-.7-.3-.6-.8-.9-1.5-.8h-.8c-.2 0-.3 0-.3-.3 0-1-.2-.8.8-.8h3c.4 0 .6 0 .8.3l7.7 10.6 2.8 3.8c0 .1 0 .2.2.3V72.3c0-.4 0-.4-.4-.4h-1.5c-.2 0-.3 0-.3-.3 0-1-.2-.8.8-.8h4.8c.5 0 .5 0 .5.4 0 .8.1.7-.8.7h-1.1c-.3 0-.4.1-.4.4V90.7c0 .2 0 .3-.2.3-.6.1-.9 0-1.2-.5l-10.7-15-.3-.2ZM84.1 70.7v-.5c0-.2 0-.3.3-.3h.8c.2 0 .3 0 .3.4v4.1c0 .3 0 .3-.4.3h-.7c-.2 0-.3 0-.3-.3v-2.2h-6.7c-.4 0-.4 0-.4.4v6.9c0 .4 0 .4.4.4h4.8c.4 0 .4 0 .4-.5V78c0-.4 0-.4.4-.4h.8c.2 0 .2 0 .2.2v5.4c0 .3 0 .3-.3.4h-.8c-.2 0-.3 0-.3-.3v-1.6c0-.4 0-.4-.4-.4h-4.8c-.4 0-.4 0-.4.4v7.2c0 .4 0 .4.4.4H84c.4 0 .4 0 .4-.4V87c0-.3 0-.3.4-.3h.7c.3 0 .4 0 .4.3a277.6 277.6 0 0 0 0 3.4c0 .3 0 .3-.3.3H72.4c-.2 0-.3 0-.3-.2v-.7c0-.2.1-.3.3-.3h2V72.4c0-.5 0-.5-.5-.5h-1.5c-.2 0-.3 0-.3-.3 0-1-.1-.8.8-.8h11.2ZM1.4 89.9v1H0v-5c0-.4 0-.4.4-.4h.8c.2 0 .3 0 .3.3v1.7c0 .3 0 .5.2.6l1.8 1a5 5 0 0 0 4.2-.2 3 3 0 0 0 1.1-4.5 7.1 7.1 0 0 0-2.2-1.9L3.8 81c-.9-.6-1.8-1.2-2.5-2a5 5 0 0 1 1.2-7.7c1.2-.6 2.4-.9 3.8-.8 1 0 2.1.2 3.1.8v-.8c0-.2 0-.3.3-.3h.9c.1 0 .2 0 .2.2v4.9H9.6l-.2-.2v-1.6c0-.2 0-.3-.2-.4-.7-.5-1.5-1-2.3-1-1-.2-1.8-.2-2.7.2-1.8.9-2.1 3.4-.8 4.6a12 12 0 0 0 2.1 1.7l3.3 2c.8.5 1.5 1 2.1 1.8 1 1 1.2 2.2 1.1 3.5-.2 3-2.6 5-5.3 5.2A7.9 7.9 0 0 1 1.5 90ZM20.5 89.5V82c0-.3 0-.5-.2-.7l-5.7-9c-.2-.2-.4-.3-.7-.3h-1c-.2 0-.3 0-.3-.2V71c0-.2 0-.3.2-.3h6.8c.4 0 .4 0 .4.5 0 .8.2.7-.7.7h-1.9v.1l5 7.8 4.7-7.8h-2.4c-.2 0-.3-.1-.3-.4 0-1 0-.8.8-.8H30c.5 0 .5 0 .5.4 0 .8.1.8-.7.7-.7 0-1 .2-1.3.7L23.4 81l-.2.7V89c0 .4 0 .4.4.4h1.5c.3 0 .3 0 .3.4 0 1 .2.8-.8.8h-5.9c-.4 0-.4 0-.4-.4 0-.5.2-.8.7-.8h1.5ZM8 66v-6.6h-.5c-.2 0-.3 0-.3-.2 0-.1.1-.2.3-.2h2.3c.1 0 .2 0 .2.2s0 .2-.2.2h-.6v3h4.2v-3h-.6c-.1 0-.2 0-.2-.2 0-.1 0-.2.2-.2h2.3c.2 0 .3 0 .3.2s-.1.2-.3.2h-.4c-.2 0-.3.1-.3.3v6c0 .4 0 .4.4.4h.3c.1 0 .3 0 .3.2s-.1.2-.3.2h-2.3c-.1 0-.2 0-.2-.2 0-.1 0-.2.2-.2h.5l.1-.7V63H9.2v3h.5c.2 0 .3.2.3.3 0 .2-.1.2-.3.2H7.5c-.2 0-.3 0-.3-.2s.2-.2.3-.2H8ZM62.8 63v.2l1.6 2.4c.2.3.4.5.9.5.1 0 .2 0 .2.2s-.1.2-.3.2h-.5c-.6.1-1-.2-1.2-.6l-1.6-2.4c-.1-.3-.6-.4-.9-.3V66c0 .2 0 .2.2.2h.3c.2 0 .2.1.2.3 0 .1 0 .2-.2.2H59c0-.4 0-.5.3-.5.5 0 .5 0 .5-.4v-6.2h-.5c-.4 0-.4 0-.3-.5h3.7c1 0 1.7.7 1.7 1.9.1 1-.3 1.8-1.4 2l-.2.1Zm-1.9-2v1.3c0 .2 0 .3.2.3h1.2c.5-.2.9-.5 1-1v-1.2c-.1-.5-.5-.8-1-.8l-1-.1c-.3 0-.4 0-.4.3V61ZM96 58.8c1.4 0 2.3.6 3 1.5a4.1 4.1 0 0 1 0 5.1 3.4 3.4 0 0 1-5 .5c-2.3-1.9-1.8-5.7 1-6.8.3-.2.8-.2 1-.3Zm2.7 4c0-.8-.2-1.6-.6-2.2-1-1.5-2.9-1.6-3.8 0a4 4 0 0 0 0 4.4c1 1.6 3 1.4 4-.2.3-.6.4-1.3.4-2ZM39.7 59.4v7.2c-.3.2-.4 0-.6-.2l-3.6-5-.4-.6-.1.4v4.5c0 .4 0 .4.4.4h.3c.1 0 .2 0 .2.2s0 .2-.2.2h-1.9c-.2 0-.3 0-.3-.2s.2-.2.3-.2h.4c.2 0 .2 0 .2-.2v-5.7c0-.6-.1-.7-.7-.8h-.3c-.1-.2 0-.4.2-.4h1.2c.2 0 .3.1.4.3l3.2 4.3.7 1V60c0-.5 0-.5-.4-.5h-.2c-.2 0-.2 0-.2-.2 0-.1 0-.2.2-.2h2l.1.2c0 .2 0 .2-.2.2h-.7ZM27.2 59.5v4.8c.2 1 1 1.7 2 1.7a2 2 0 0 0 2.1-1.7v-4.5c0-.4 0-.4-.3-.4h-.2c-.1 0-.3 0-.3-.3 0-.2.2-.2.3-.2H33c-.1.5-.1.5-.5.5h-.5v5.2c-.3 1.2-1.2 1.8-2.3 2a3 3 0 0 1-2.6-.5c-.6-.4-1-1-1-1.8V60c0-.6 0-.6-.5-.6 0 0-.3 0-.3-.2 0-.1 0-.2.2-.2h2.4c.1 0 .2 0 .2.2s-.1.2-.3.2h-.5ZM57.9 60.5h-.6v-1h-2.6v3h1.7c.3 0 .4-.1.4-.4v-.3c0-.2.1-.2.3-.2.1 0 .2 0 .2.3v2H57c-.2 0-.2 0-.3-.2 0-.7 0-.7-.6-.7h-1.4V65.7c0 .2 0 .3.3.3h2c.3 0 .4 0 .4-.3v-.4c0-.2 0-.3.3-.3s.3.1.3.3v1c0 .2-.1.2-.4.2h-4.5c-.2 0-.3 0-.3-.2s0-.2.2-.2c.6 0 .6 0 .6-.7v-5.6c0-.4 0-.4-.4-.4-.2 0-.4 0-.4-.2 0-.3.2-.2.3-.2H57c.1 0 .4 0 .4-.2l.4-.1.2.2v1.6ZM17.1 66v-6.2c0-.4 0-.4-.4-.4h-.2c-.1 0-.2 0-.2-.2 0-.1 0-.2.2-.2h3.9c.2 0 .4 0 .5-.2l.4-.1v.3l.1 1.3c0 .2-.1.2-.3.2-.2 0-.3 0-.3-.3v-.6h-2.6v2.8h2V62c0-.2.2-.3.4-.3.1 0 .3 0 .3.3v1.8c0 .4-.4.1-.6.2V63h-1.9a246.8 246.8 0 0 1-.3 2.7c0 .2.2.3.3.3h2.3c.2 0 .3 0 .2-.3v-.4c0-.2.1-.3.3-.3.3 0 .3.1.3.3v1c0 .2 0 .3-.3.2h-4.6c-.2 0-.3 0-.3-.2 0-.1 0-.2.3-.2h.5ZM67.2 66.3c-.2.4-.2.4-.5.4l-.2-.2v-1.9h.6v1c.7.4 1.3.6 2 .4 1-.3 1.3-1.3.5-2-.2-.3-.6-.5-1-.7l-1.3-.9c-.6-.4-.9-1-.8-1.7a2 2 0 0 1 2-1.8l1.6.1v-.2c.5-.1.6 0 .6.4v1.2c0 .2 0 .4-.3.4-.2 0-.3-.1-.3-.3 0-.6-.1-.8-.7-1h-1c-.8.2-1 1.2-.5 1.8l1 .7c.4.4 1 .7 1.5 1 .7.5 1 1.3.8 2.1-.3.9-.9 1.4-1.7 1.6-.8.1-1.3 0-2.3-.4ZM6.2 59.6h-2c-.2 0-.2 0-.2.2v5.8c0 .5 0 .5.4.5h.4c.1 0 .3 0 .3.2 0 .1-.1.2-.3.2H2c-.1 0-.3 0-.3-.2s.2-.2.3-.2h.5c.3 0 .4-.1.3-.3V60c0-.4 0-.4-.4-.4H1c-.2 0-.4 0-.3.3v.2c0 .3-.1.4-.4.3-.2 0-.2 0-.2-.3V59l.1-.3.4.1c.1.2.2.2.4.2h4.9c.1 0 .2 0 .3-.2h.4l.1.2v1.3c0 .2 0 .2-.2.2s-.3 0-.3-.2v-.6ZM48.8 65l2.1-5.6h-.3c-.4 0-.4 0-.4-.5h2c0 .4 0 .5-.4.5-.2 0-.3.2-.4.4l-2.6 6.5c0 .2 0 .4-.3.4s-.3-.2-.4-.4l-2.5-6.6c-.1-.2-.2-.3-.5-.3s-.3 0-.3-.5h2.8v.3l-.1.2h-.9l2.2 5.5ZM81.7 59.6h-2c-.2 0-.3 0-.3.2v5.8c0 .5 0 .5.5.5h.4c.2 0 .2 0 .2.2s0 .2-.2.2h-2.8c-.2 0-.3 0-.3-.2 0-.1 0-.2.2-.2h.6c.3 0 .4-.1.4-.4v-6.1H76v.8c-.5.1-.5 0-.5-.4V59l.1-.3.4.1c0 .2.3.2.4.2h4.6c.3 0 .5 0 .6-.2h.4l.1.2v1.3c0 .2 0 .2-.2.2s-.3 0-.3-.2v-.6ZM84.6 59.5l1.9 2.9 1.8-3h-.7c-.2 0-.3 0-.3-.2s0-.2.2-.2h1.8c.1 0 .2 0 .2.2s-.1.2-.3.2c-.2 0-.3.1-.4.3l-1.9 3-.1.5v2.5c0 .3 0 .4.3.4h.3c.2 0 .2 0 .2.2s0 .2-.2.2h-2.2c-.2 0-.2 0-.2-.2 0-.1 0-.2.2-.2l.5-.1v-2.6l-.1-.6-2-3c-.1-.3-.3-.4-.5-.4s-.4 0-.4-.2c0-.3.2-.2.4-.2h2.2c.1 0 .3 0 .3.2s-.2.2-.3.2h-.6v.1ZM73.5 66.5h-1.2c-.1 0-.2 0-.2-.2s.1-.2.3-.2c.5 0 .5 0 .5-.6V60c0-.5 0-.5-.5-.5-.1 0-.3.1-.3-.1 0-.3 0-.3.2-.3h2.3c.2 0 .2 0 .2.2s0 .2-.2.2c-.6 0-.6 0-.6.7v5.5c0 .5 0 .5.5.5h.3v.3l-.2.1h-1.1ZM43.3 59.5v6.1c0 .5 0 .5.4.5h.2c.1 0 .2 0 .2.2s0 .2-.2.2h-2.3c-.2 0-.3 0-.3-.2s.1-.2.3-.2c.4 0 .6-.3.6-.7v-5.6c0-.4 0-.4-.4-.4-.2 0-.4.1-.5-.2 0-.3.3-.2.5-.2h2.1c.2 0 .2.1.2.2l-.2.2h-.6Z"/><path fill="#F75049" d="m71.2 23.7-1.6-.2-4.8-.7a155.5 155.5 0 0 0-9-.8l-7.1-.1a108.8 108.8 0 0 0-11.8.8l-4.6.5-3.2.5c-.2 0-.3 0-.3-.3v-17c0-.5 0-.5.5-.6a90 90 0 0 1 22.2-3.2 69.2 69.2 0 0 1 19.2 3.1l.3.1.2.3v17.6Zm-25.5-5v-.1c-.1-1 .1-1.4 1-1.7l1-.6c.5-.2.7-.6.6-1.2 0-.2 0-.3.3-.2l.2.1c1.4.7 3 .9 4.5.4.8-.2 1.5-.7 2.1-1.2 1-.7 2-1 3-1 .8.1.7.1.7.7v.2c0 .8.6 1.4 1.4 1.5h.8l1.1-.1c.5 0 .8.2.8.7 0 .3-.1.6-.3.8-.3.4-.5.5-1 .3-.4-.3-.9-.2-1.4 0-.2 0-.3.2-.3.3l.4.5.5.2.3.1c-.5.4-.8.9-.6 1.5.3-.1.6-.1.8 0 .5.1.8 0 1.1-.4.2-.2.2-.2.5 0 .1.2.3.3.6.3.2-.1.4 0 .6.1.3-.6.3-1.1-.2-1.6v-.5c.1-.2.4-.4.7-.4h.7c.2 0 .3-.2.3-.4l-.4-.1-.1-.3.2-.2h.3l.3-.2-.2-.3c-.3-.2-.3-.4-.1-.7l.3-.5c.2-.2 0-.4-.2-.4h-1L64 14c-.5-.2-.5-.5-.3-.9l.7-.5c1-.6 1-1.8.2-2.5-.3-.3-.7-.4-1-.6-.8-.2-1.6-.3-2.5-.3l-4.6.3-2.7.2c-.4 0-.8-.2-1-.3-.6-.2-.6-.7-.3-1.1.3-.3.6-.4 1-.5a7 7 0 0 1 2-.2h1.2c.6-.1 1-.4 1.6-.7l1-.5-.2-.1c-.4-.6-1.2-.7-1.9-.4l-.8.5-.2.1v-.3l.3-.4.2-.4-.8.2a1 1 0 0 0-.9.7c0 .3-.2.4-.5.4-.7 0-1.4.1-2 .4-.6.3-1 .7-1.3 1.3-.2.5 0 1.1.4 1.5.3.3.7.5 1.1.6 1 .2 2.2 0 3.2 0 1.6-.3 3.3-.4 5-.4l1.9.3.6.2c.3.3.3.7-.1.8l-.7.1H51c-.5-.1-.5 0-.7.4a7 7 0 0 1-.5 1.3c-.4.5-.8.6-1.3.3H48c-.5.5-1.2.6-2 .6l-.4.3-.6.6c-1 .7-2 1.3-3.1 1.8l-1 .2c-.2.1-.4 0-.7-.1l-.8-.5a1 1 0 0 0-1 0l.2.5c0 .3.2.5.3.6l.4.2-.1.1c-.6.3-1 .7-1 1.4l.6.1c.3.3.6.3 1 .1l.4-.2.1.2c.2.6.3.7.9.8l.3.1c0 .2.2.1.3 0l.1-.4v-1.2c.5-.3.7-.3 1.2 0 .2 0 .4.2.6 0-.1-.7-.1-.8.4-1 .3.6.8 1 1.6 1Zm-3-12.6A4 4 0 0 0 40 8c-.5 1-.7 2-.2 3l.4-.2.1.6.5 1.3c.2.4.3.4.6.1l.3-.2c.1-.2.2-.2.3 0l.1.2c.4.4 1 .6 1.5.7 0-.4-.2-.6-.4-.8-.2-.1-.3-.4-.5-.7l-.4-1.3c-.3-.5-.3-1-.2-1.6 0-.3 0-.5-.2-.8-.3-.4-.3-1 0-1.4.4-.4 1-.5 1.5-.2l.6.5c.2.2.2.4 0 .5-1 .5-1.3 1.7-1 2.5l.5 1.6c.1.3.3.5.6.5s.4-.1.5-.4c-.2-.2-.5-.4-.6-.7v-1a.8.8 0 0 1-.6-.6l-.2-.4h1c.6.1.6.1.5.7l-.2 1h1.1l-.2-1.3.1-.3 1.2-.2c.2 0 .3.2.2.3-.2.2-.2.6-.6.7-.2.1-.2.2-.2.4.2.6 0 1-.5 1.3v.1c.1.2.4.3.6.3.3 0 .4-.2.5-.5l.5-1.4.1-.4c0-.9-.1-1.7-1-2.2-.2-.1-.2-.3 0-.5l.3-.3c.4-.5 1.1-.5 1.6 0 .5.4.5 1.1 0 1.6-.2.1-.2.3-.1.5v1.5c-.3.5-.4 1-.6 1.6-.1.3-.3.6-.5.7-.3.2-.3.4-.4.6h.1c.6 0 1-.3 1.4-.8 0-.2.2-.2.3 0 .2 0 .3.2.4.3.2.1.3.1.4-.1.3-.5.5-1 .6-1.6l.1-.4.3.2.3-1.2c0-1.6-.9-3-2.4-3.5-.3-.1-.4-.3-.3-.6v-.1c-.7 0-1.3 0-1.9.3l-.6-.1c-.2-.3-.3-.3-.5 0-.2.2-.3.2-.5 0-.6-.2-1.1-.2-1.7-.2h-.2l.2.5ZM36.8 10c.2.2.1.3 0 .5a1 1 0 0 0-.2.4c-.1.3-.1.3-.3.2l-.5-.2c-.5-.2-1 0-1.3.3l.2.4c0 .3.2.6.5.8a104.1 104.1 0 0 0-.5 1c.1.2.4.4.7.4.4 0 .8 0 1-.3.3-.2.7-.1 1 0 .3.2.2.5.1.7v.7c.2-.2.3-.3.5-.3h.4v.4c0 .3-.1.5.1.8h.1c.6-.6 1-.6 1.7-.3.6.3 1.2.4 1.9.3 1-.2 1.7-.8 2.5-1.5l.1-.2h-.3c-.6.2-1.2.2-1.8 0-.6-.4-1.3-.5-2-.7a8 8 0 0 1-2.3-.9.7.7 0 0 1-.4-.7V11c-.2-.5-.6-.9-1.2-1ZM52.2 18c-1.1.5-1.4.7-1.3 1.2l.4.3.5.2.5-.2h.5c.3.2.6.4 1 .3l.4.1.1.1c.4-.3.4-.6.3-1v-.4c.1-.2.3-.2.5 0l.7.2h.7l-.3-.4V18h1l-.1-.2c-.2-.5-.1-.8.4-.8h.7c.4-.1.7-.2 1-.5.3-.1.3-.4 0-.5-.4-.5-.7-1-.9-1.6 0-.3-.1-.4-.4-.3-.5 0-1 .2-1.5.5L55 15.8l-.1.2.4.1c.4.2.4.3.2.6l-.1.2c-.4.4-1 .6-1.5.6-.1 0-.3 0-.4-.2-.2 0-.4-.3-.6-.4-.4-.2-.8-.2-1.2 0l.3.6v.3l.3.4ZM56.7 8l.4.2h.6l1.4-.6c.2 0 .1-.2 0-.2-.4-.1-.7-.2-1 0a3 3 0 0 1-1.2.5h-.2Zm-12.3 5 .3.2h.3c.3.3.6 0 1 0v-.4l-.7-.3-1 .5Zm-1-5.6c-.2-.2-.4-.3-.6-.2l-.3.4c0 .2 0 .4.2.4l.6-.6Zm4.4.6c.2-.3.2-.5 0-.7-.1-.2-.3-.2-.5 0l.5.7Z"/><path fill="#F75049" d="M70.8 31.2c.2 2.1-2.7 8.8-4.5 10.8-.5-.5-1.1-.7-1.8-.7h-9.4v8.3c0 .4 0 .4-.4.5a19 19 0 0 1-9.3 0c-.3 0-.3-.2-.3-.5v-8.2h-9.4c-.7 0-1.3 0-1.9.7-2.4-3.3-3.9-6.9-4.6-10.9H45v-7.9c0-.4 0-.4.5-.5h9.2c.4 0 .4 0 .4.4v8h15.7Zm-21.2 8.3v-5.3c0-.8-.4-1.4-1-1.6l-.7-.2h-4c-.3 0-.3 0-.3.4V39h4.3c.6 0 1.2 0 1.7.5Zm1 0c.4-.4.9-.5 1.4-.5h4.5v-6.3c0-.3 0-.3-.3-.3l-4 .1c-1 0-1.7.7-1.7 1.7V39.6ZM48.2 44l-2.1.8 2 .8-1 2h.1l1.9-1 .8 2.2.8-2 2 .9v-.1l-.9-2 2.1-.7v-.1l-2-.7.9-2v-.1l-2 1-.8-2.2-.8 2.1-2-1v.1l1 2Zm3.6-16.3a500.7 500.7 0 0 1 .9-2l-2 1-.7-2.2-.8 2-2-.8 1 2-2.2.8 2 .8-.8 2 1.8-1 .9 2.2.7-2.1 2 .9-.9-2 2-.8-2-.8Zm-18 11.5h.1l2-.9.8 2 .8-2 1.9.9-1-2 2.2-.7v-.1l-2.2-.8 1-2-2 1-.8-2.1-.8 2-2-.9 1 2-2.1.8 2.2.8-1 2Zm25.5-2.8 2 .8-.9 2 2-1 .7 2 .8-2 2 1V39l-1-2 2.2-.7-2-.8.9-2-2 1-.8-2.2-.8 2-2-.8 1 2-2 .8ZM58 37v-.3c0-.2 0-.3-.2-.3H57v.6h.8Zm0 2v-.5l-.1-.2H57v.6h.8Zm-14.8-2.5h-1l.1.6h.8v-.6Zm0 2.4v-.4l-.2-.2h-.7v.6h.8Zm14.8-4.3H57v.6h.4c.5 0 .5 0 .4-.5ZM42.2 33c0 .4 0 .6.4.6h.2c.2 0 .2 0 .2-.2 0-.4 0-.4-.3-.4h-.5Zm14.8 0c0 .2 0 .5.2.6h.7v-.6H57Zm-14.9 1.9.1.5h.8v-.5h-.9Z"/><path fill="#F75049" d="M48.6 36.1h-3.8c-.3 0-.3 0-.3-.3s0-.3.3-.3h3.4c.4 0 .4 0 .4.4v.2ZM46.6 33.8h1.7c.3 0 .3.1.3.3 0 .2 0 .3-.3.3h-3.5c-.3 0-.4 0-.3-.3 0-.3 0-.3.3-.3h1.8ZM46.6 37.2h1.7c.3 0 .3 0 .3.3s0 .4-.3.4h-3.5c-.3 0-.4-.1-.3-.4 0-.3 0-.3.3-.3h1.8ZM53.5 35.5h1.8c.3 0 .3.1.3.3 0 .2 0 .4-.2.4h-3.7c-.2 0-.2-.2-.2-.4s0-.3.3-.3h1.7ZM53.6 33.8h1.7c.3 0 .3.1.3.3 0 .2 0 .3-.3.3h-3.5c-.3 0-.3 0-.3-.3 0-.2 0-.3.3-.3h1.8ZM53.6 37.2h1.7c.3 0 .3.1.3.3 0 .3 0 .4-.3.4h-3.5c-.3 0-.3-.1-.3-.4 0-.2 0-.3.3-.3h1.8Z"/></svg>