<svg xmlns="http://www.w3.org/2000/svg" fill="none" viewBox="0 0 81 81"><path fill="#F75049" d="M81 81h-7.3L41.1 48.3H40.2L7.6 81H.1V73l32.6-32.5v-.2l-.1-.2L0 7.5V.1h7.3l32.6 32.6h1L73.4 0H81V8L48.4 40.5v.4L81 73.5V81Z"/><path fill="#F75049" d="M80.9 18.7v15l-6.8 6.8 6.8 6.8v14.5L59.4 40.4c0 .1 0 0 0 0 0-.2.1-.3.2-.3l21.3-21.4ZM61.7 81H47.5l-6.9-6.9-6.8 6.8H19.4l21.4-21.5h-.2l.3.1a20193.8 20193.8 0 0 1 21 21.3l-.2.2ZM.1 19.1l21.6 21.6L11 51.3.3 62.2c-.5-2.4-.2-4.6-.3-6.7v-7.6l7.6-7.6c-2.6-2-5-4.9-7.5-7.2v-14ZM33.3.1c1 1.2 2.5 2.6 3.8 4L40.5 8c2.9-2.4 5.3-5.3 8.2-8h12.7l-21 21.1.4.5h-.6L18.8 0h14.5Z"/></svg>