<svg xmlns="http://www.w3.org/2000/svg" fill="none" viewBox="0 0 62 64"><path fill="#F75049" d="M29.3 11.4 36.1.7c.3-.5 1.4-.6 2.2-.6l13-.1c1.7 0 2.8.9 3.6 2.2a186 186 0 0 1 6.5 11.6 5 5 0 0 1 0 3.8c-1.4 3-3.2 6-5 9.4-1-1.5-1.9-2.6-2.4-3.9-.8-1.6-2-1.8-3.5-1.8l-6.8.1c-1.4 0-2.3-.2-3-1.6-.8-1.8-2.2-3.3-3-5.2-1-2.5-2.8-3.4-5.3-3.3h-3ZM29.6 52.8l3.5-.2c1.9 0 3.7-.2 4.2-2.6l.3-.6c3.6-6.9 3.6-7.1 11.2-6.8 4 .3 5.7-2.1 7.3-5.5l1 1.3 4.2 7.2c1 1.6 1 3.2 0 4.7l-4.6 7.8-1.6 3.5a4.2 4.2 0 0 1-4 2.4l-12.6-.1a5 5 0 0 1-3.4-1.8c-2-2.8-3.5-5.9-5.5-9.3ZM20.7 47.5c-3.9 0-7.6.3-11.3-.2C8.1 47.1 7 45 6 43.6L.8 34.4c-1-1.6-1.1-3-.1-4.6 2.5-4 4.8-8.2 7.3-12.3.3-.4 1-1 1.5-1h11.4l-2.6 5.8c1.4 2.4 2.3 4.6 3.7 6.5 2.3 3 .8 5.4-.9 7.9l-.8 1.3c-1.9 2.6-2.2 5.2 0 7.9l.3.7.1.9Z"/></svg>